<?xml version='1.0' encoding='utf-8'?>
<svg xmlns="http://www.w3.org/2000/svg" width="400.0" height="400.0" viewBox="0 0 400.0 400.0"><path d="M 325.863006592,385.170990944 L 299.463005066,380.230990916 L 192.943001747,362.52999115 L 92.9029998779,380.000990927 L 66.1029968262,388.470991135 L 236.913002014,399.890991211 L 325.863006592,385.170990944 z" fill="#2b2b2b" opacity="0.1" /><path d="M 138.579986572,106.719993591 L 104.839988708,129.949993134 L 102.649986267,157.559993744 L 125.729988098,198.579994202 L 284.509986877,184.409994125 L 279.619987488,122.769994736 L 262.789985657,112.569992065 L 138.579986572,106.719993591 z" fill="#b8c645" /><path d="M 262.789985657,112.569993973 L 138.579986572,106.719993591 L 104.839988708,129.94999361 L 102.649986267,157.559993744 L 122.029983521,144.219993591 L 265.819984436,132.269993663 L 279.619987488,122.769993782 L 262.789985657,112.569993973 z" fill="#e8ef78" /><path d="M 266.748997688,153.732997894 L 261.824994087,62.3649978638 L 241.995991707,55.7269973755 L 196.509995461,27.0899963379 L 148.288995266,62.1859970093 L 134.39999485,68.8059959412 L 131.153995514,147.606998444 L 266.748997688,153.732997894 z" fill="#2b2b2b" opacity="0.99" /><path d="M 276.249984741,348.709999084 L 272.139984131,237.579998016 L 265.819984436,199.879997253 L 208.03998518,176.379997253 L 133.382987976,216.694999695 L 106.329986572,362.63999939 L 131.619987488,384.669998169 L 277.259986877,385.049995422 L 300.139984131,380.109992981 L 276.249984741,348.709999084 z" fill="#446024" /><path d="M 133.694988251,216.570014954 L 117.019988775,199.730010986 L 93.5399894714,380.110015869 L 110.329988956,369.099014282 L 118.949988842,353.530014038 L 133.694988251,216.570014954 z" fill="#5a753c" /><path d="M 131.619991302,384.668998718 L 93.5399894714,380.108999252 L 118.949990273,353.528999329 L 131.619991302,384.668998718 z" fill="#6f9d52" /><path d="M 253.984996796,328.425983429 L 221.56999588,345.050983429 L 226.388996124,368.980983734 L 243.138996124,368.980983734 L 254.109996796,359.470983505 L 253.984996796,328.425983429 z" fill="#3e8f6e" /><path d="M 254.110993385,359.469984055 L 274.928993225,380.110984802 C 274.928993225,380.110984802 276.749992371,380.008984566 267.999992371,380.129984856 C 259.249993324,380.250984192 253.059993267,380.169984818 253.059993267,380.169984818 L 225.900993347,380.110984802 L 226.389993668,368.980984449 L 254.110993385,359.469984055 z" fill="#53af8a" /><path d="M 274.92999649,389.32998848 L 225.900997162,389.32998848 L 225.900997162,380.109988451 L 267.248996735,380.109988451 L 283.498996735,373.989988327 L 274.92999649,389.32998848 z" fill="#3e8f6e" /><path d="M 254.109996796,331.799988747 L 224.268996239,357.26998806 L 221.56999588,345.049988389 L 217.789997101,327.731988907 L 253.963996887,315.799987793 L 254.109996796,331.799988747 z" fill="#35785d" /><path d="M 178.719989777,346.629985809 L 173.609989166,366.981986046 L 156.849988937,368.981986046 L 141.819988251,362.640985489 L 144.539989471,339.019986153 L 144.87998867,336.069986343 L 178.719989777,346.629985809 z" fill="#3e8f6e" /><path d="M 141.819988251,362.639983177 L 131.619989395,384.669983864 L 174.309988022,384.669983864 L 173.609989166,366.980983734 L 141.819988251,362.639983177 z" fill="#53af8a" /><path d="M 174.309988022,392.329986095 L 131.619989395,392.329986095 L 131.619989395,384.66998595 L 152.969988708,378.109985828 L 174.309988022,384.66998595 L 174.309988022,392.329986095 z" fill="#3e8f6e" /><path d="M 144.629987717,339.569983482 L 176.049987793,357.269983292 L 178.719987869,346.629983544 L 187.064987183,318.539983749 L 146.46398735,320.90798378 L 144.629987717,339.569983482 z" fill="#35785d" /><path d="M 253.969987869,155.110006332 L 265.819988251,132.020008087 L 308.189987183,195.77000618 L 252.650987625,217.401008606 L 248.408987045,205.140007019 L 253.969987869,155.110006332 z" fill="#5a753c" /><path d="M 148.439992905,134.390003204 L 187.039993286,154.610004425 L 222.069992065,181.6200037 L 203.230993271,254.349002838 L 152.61999321,254.349002838 L 152.61999321,237.330001831 L 131.619995117,183.130002975 L 148.439992905,134.390003204 z" fill="#5a753c" /><path d="M 208.039989471,176.129993439 L 203.18998909,237.329994202 L 203.229990005,254.349994659 L 253.969989777,254.349994659 L 254.109989166,230.579994202 L 265.819990158,132.019992828 L 241.069989681,129.699993134 L 240.189989567,139.989994049 L 229.669989586,139.499992371 L 224.139989853,163.279993057 L 208.039989471,176.129993439 z" fill="#6f9d52" /><path d="M 203.229992867,254.598983765 L 178.719993591,331.798984528 L 204.378993034,352.280982971 L 254.234992981,331.548984528 L 253.968994141,256.619983673 L 231.018993378,261.968986511 L 203.229992867,254.598983765 z" fill="#5a753c" /><path d="M 151.379989624,272.819986343 L 144.379989624,338.444988251 L 204.379989624,352.279987335 L 203.230989456,254.59998703 L 151.379989624,272.819986343 z" fill="#6f9d52" /><path d="M 152.619987488,254.599985123 L 253.969985962,254.599985123 L 253.969985962,273.639986038 L 151.379989624,272.820985794 L 152.619987488,254.599985123 z" fill="#99c26c" /><path d="M 117.019989014,199.479997635 L 122.029989243,143.969997406 L 160.989990234,130.839996338 L 151.2999897,165.409997463 L 154.769989967,206.529998779 L 117.019989014,199.479997635 z" fill="#738d56" /><path d="M 207.589986801,166.910002708 L 221.569987178,152.40000248 L 229.669987202,139.500001907 L 244.409986496,141.640003204 L 243.119987488,163.410002232 L 208.039987564,176.130002975 L 199.719987869,168.690002441 L 207.589986801,166.910002708 z" fill="#35785d" /><path d="M 207.589990616,166.910000801 L 208.039989471,176.130001068 L 151.2999897,165.410000801 L 148.439990997,135.140001297 L 160.989990234,131.590000153 L 175.209990263,146.270000458 L 207.589990616,166.910000801 z" fill="#53af8a" /><path d="M 244.409996033,141.88999939 L 178.719997406,138.799999237 L 160.119995117,125.510002136 L 151.299995422,24.6399993896 L 253.989997864,20.2200012207 L 244.409996033,141.88999939 z" fill="#dfbca4" /><path d="M 234.519996643,141.430000305 L 167.310997009,132.590000153 L 159.239995956,34.4700012207 L 147.159996033,15.25 L 157.719997406,138.080001831 L 160.120996475,153.36000061 L 207.588996887,167.160003662 L 232.290996552,155.010002136 L 234.519996643,141.430000305 z" fill="#c3977a" /><path d="M 210.309994698,159.358994484 L 234.519996643,141.428994179 L 157.719993591,138.078993797 L 210.309994698,159.358994484 z" fill="#8a6651" /><path d="M 174.489994049,0 L 157.719993591,12.779001236 L 136.349994659,18.1100025177 L 134.308990479,69.2500019073 L 152.778995514,83.7300033569 L 160.878993988,21.8800010681 L 208.819993973,43.4590016603 L 253.149993896,28.9490013123 L 250.49899292,64.5790023804 L 261.95999527,62.6000022888 L 266.268997192,24.6390018463 L 244.409992218,15.2500019073 L 231.759994507,0 L 174.489994049,0 z" fill="#4f5252" /><path d="M 174.489995241,0 L 136.349994659,18.1109995842 L 159.239995003,34.4699993134 L 208.81999588,43.4599990845 L 174.489995241,0 z" fill="#6e7073" /><path d="M 165.289993286,107.970001221 L 246.709991455,112.700000763 L 244.409992218,141.88999939 L 167.269992828,138.5 L 165.289993286,107.970001221 z" fill="#c3977a" /><path d="M 231.759998322,0 L 208.819997787,43.4599990845 L 252.759998322,34.1299991608 L 266.26999855,24.6399996281 L 231.759998322,0 z" fill="#464646" /><path d="M 165.289994717,107.970000267 L 154.769994736,103.75 L 157.719994783,138.079999924 L 167.269994736,138.5 L 165.289994717,107.970000267 z" fill="#8a6651" /><path d="M 182.111999512,119.495003223 L 185.991999626,123.365003109 L 209.062000275,123.365003109" fill="#8a6651" /><path d="M 182.111999512,119.495003223 L 185.991999626,123.365003109 L 209.062000275,123.365003109" fill="#00000000" stroke="#8a6651" stroke_width="4.0" fill-opacity="0.1" stroke-linecap="butt" stroke-linejoin="miter" stroke-miterlimit="10" stroke-width="4" /><path d="M 179.582000017,116.985002756 L 187.041999817,116.125002861 L 178.722000122,124.205002785 L 179.582000017,116.985002756 z" fill="#8a6651" /><path d="M 197.400003433,100.450000048 L 207.030003662,107.049999952 L 216.670003891,100.450000048 L 197.400003433,100.450000048 z" fill="#8a6651" /><path d="M 167.270004272,75.1699991226 L 187.420004845,81.3599996567 L 197.400005341,100.449998856 L 203.080005646,69.6099996567 L 174.380004883,67.0100002289 L 167.270004272,75.1699991226 z" fill="#c3977a" /><path d="M 216.670005798,100.450000763 L 230.99000597,81.3600003719 L 246.790006638,75.1700000763 L 239.691005707,70.7000007629 L 226.64900589,69.25 L 210.980005264,69.6100006104 L 210.980005264,88.7300004959 L 216.670005798,100.450000763 z" fill="#c3977a" /><path d="M 216.670003891,100.449998856 L 207.030003662,102.879999161 L 197.400003433,100.449998856 L 203.080003738,69.609998703 L 210.981003761,69.609998703 L 216.670003891,100.449998856 z" fill="#e8c9b6" /><path d="M 210.980005264,69.6099998951 L 239.690006256,70.6999999285 L 246.790006638,75.1700000763 L 239.690006256,63.3199996948 L 226.435005903,66.2239999771 L 210.980005264,69.6099998951 z" fill="#464646" /><path d="M 203.080005646,69.6099998951 L 174.380004883,70.6999999285 L 167.270004272,75.1700000763 L 174.380004883,63.3199996948 L 203.080005646,69.6099998951 z" fill="#464646" /><path d="M 226.651001526,76.4800033569 C 229.345001459,76.4800033569 231.531001568,78.6650035381 231.531001568,81.3600034714 C 231.531001568,84.0550034046 229.345001459,86.2400035858 226.651001526,86.2400035858 C 223.95600152,86.2400035858 221.769001484,84.0550034046 221.769001484,81.3600034714 C 221.769001484,78.6650035381 223.95600152,76.4800033569 226.651001526,76.4800033569 z" fill="#2b2b2b" /><path d="M 182.880000114,76.4800033569 C 185.575000048,76.4800033569 187.760000229,78.6650035381 187.760000229,81.3600034714 C 187.760000229,84.0550034046 185.575000048,86.2400035858 182.880000114,86.2400035858 C 180.185000181,86.2400035858 178,84.0550034046 178,81.3600034714 C 178,78.6650035381 180.185000181,76.4800033569 182.880000114,76.4800033569 z" fill="#2b2b2b" /><path d="M 231.360005379,159.359016418 L 242.370005608,159.359016418 L 242.370005608,385.230010986 L 231.360005379,385.230010986 L 231.360005379,159.359016418 z" fill="#c4c4c4" /><path d="M 236.86100061,148.439992905 C 242.516000748,148.439992905 247.100000381,153.023992538 247.100000381,158.679992676 C 247.100000381,164.335992813 242.516000748,168.919992447 236.86100061,168.919992447 C 231.206000805,168.919992447 226.620000839,164.335992813 226.620000839,158.679992676 C 226.620000839,153.023992538 231.206000805,148.439992905 236.86100061,148.439992905 z" fill="#dddddc" /><path d="M 218.810001373,389.159988403 L 236.460001945,397.299987793 L 247.100002289,379.859985352 L 242.371002197,227.609985352 L 218.810001373,227.739990234 L 218.810001373,389.159988403 z" fill="#c4c4c4" /><path d="M 254.110003471,227.739990234 L 236.860003471,227.739990234 L 236.460003853,397.299987793 L 254.110003471,389.159988403 L 254.110003471,227.739990234 z" fill="#9da0a1" /><path d="M 272.140007019,237.32999897 L 282.661006927,225.199998736 L 272.140007019,214.679998398 L 262.170005798,224.649998784 L 244.411005497,224.649998784 L 236.860005493,217.089999199 L 229.310005665,224.649998784 L 213.16100502,224.649998784 L 203.191005707,214.679998398 L 191.069004059,225.199998736 L 203.191005707,237.32999897 L 209.049005508,230.57999897 L 229.310005665,230.57999897 L 236.860005493,238.129999161 L 244.411005497,230.57999897 L 266.28900528,230.57999897 L 272.140007019,237.32999897 z" fill="#dddddc" /><path d="M 117.019989014,199.479999542 L 152.619989395,237.329998016 L 211.729988098,227.479998589 L 213.739990234,209.649998665 L 205.999988556,201.899999619 L 117.019989014,199.479999542 z" fill="#53af8a" /><path d="M 308.189987183,195.770004272 L 257.548988342,201.640005112 L 248.409988403,212.010004883 L 254.808988571,224.650005341 L 279.928987741,228.240005493 L 308.189987183,195.770004272 z" fill="#53af8a" /><path d="M 211.730008125,227.480003357 L 206.000007629,201.901003838 L 231.11000824,194.340003967 L 211.730008125,227.480003357 z" fill="#dfbca4" /><path d="M 231.111006737,194.33899498 L 226.621006966,210.909995079 L 228.731006622,224.650995255 L 254.810007095,224.650995255 L 257.549006462,201.639995098 L 231.111006737,194.33899498 z" fill="#dfbca4" /><path d="M 231.109997749,194.339004517 L 228.729998112,224.650003433 L 211.729998589,227.480003357 L 214.798998356,208.26900363 L 231.109997749,194.339004517 z" fill="#c3977a" /></svg>