<?xml version='1.0' encoding='utf-8'?>
<svg xmlns="http://www.w3.org/2000/svg" width="400.0" height="400.0" viewBox="0 0 400.0 400.0"><path d="M 286.530006409,186.019989491 L 294.920006752,163.589988708 L 308.13000679,168.219989777 L 319.960006714,179.019989491 L 296.38000679,199.989990234 L 285.992006302,201.158988953 L 286.530006409,186.019989491 z" fill="#dfbca4" /><path d="M 300.250007629,178.619986296 L 292.130007505,156.269987106 L 285.070007324,156.409986496 L 286.530007362,186.019986153 L 281.805007935,202.214986801 L 293.040007472,193.279985428 L 300.250007629,178.619986296 z" fill="#c3977a" /><path d="M 294.920007706,163.58998847 L 315.600007057,142.049987793 L 328.700006485,154.29998827 L 319.960006714,179.019989014 L 294.920007706,163.58998847 z" fill="#c3977a" /><path d="M 226.700012207,163.189987183 L 248.010011673,181.659986973 L 243.429011822,194.499986649 L 230.440011978,209.73998642 L 198.908013344,242.085985184 L 207.824011803,193.514986992 L 226.700012207,163.189987183 z" fill="#3e8f6e" /><path d="M 248.010011673,181.659986496 L 276.059011459,204.409986258 L 270.969011307,214.980986595 L 244.540011406,219.639986038 L 230.441011429,209.73998642 L 248.010011673,181.659986496 z" fill="#99c26c" /><path d="M 244.540008545,219.639997482 L 286.580007553,185.559997559 L 308.390007019,208.219997883 L 268.420007706,236.259998322 L 244.540008545,219.639997482 z" fill="#738d56" /><path d="M 329.410003662,385.079995632 L 192.380002975,374.45999527 L 71.4400024414,386.319995701 L 192.660003185,399.999996185 L 329.410003662,385.079995632 z" opacity="0.1" /><path d="M 157.170000076,376.08900404 L 131.119999886,386.299003601 L 126.579999924,376.219003677 L 130.25,359.429003716 L 138.299999952,356.409004211 L 150.289999962,360.199004173 L 157.170000076,376.08900404 z" fill="#4f5252" /><path d="M 256.070007324,362.6200068 L 245.780007839,381.290006638 L 225.490008354,370.760006905 L 223.790008545,359.140006542 L 242.110008001,350.63000679 L 256.070007324,362.6200068 z" fill="#4f5252" /><path d="M 242.850007057,351.259002686 L 225.491007328,370.759002686 L 223.790007591,359.139002681 L 229.78100729,352.690002441 L 242.850007057,351.259002686 z" opacity="0.1" /><path d="M 130.25,359.429998875 L 140.780000329,356.409998894 L 150.289999962,360.200998783 L 128.070000648,369.400998592 L 130.25,359.429998875 z" opacity="0.1" /><path d="M 242.781002045,378.290002346 L 225.491003036,370.760002375 L 226.770002365,384.800002098 L 281.389001846,385.260002136 L 281.091001511,370.15000248 L 256.070002556,362.620002747 L 242.781002045,378.290002346 z" fill="#6e7073" /><path d="M 167.460006714,391.878993988 L 167.170005798,375.618993759 L 143.160005808,373.088993073 L 132.780005455,383.668993473 L 126.580005646,376.218993664 L 125.880004883,391.878993988 L 167.460006714,391.878993988 z" fill="#6e7073" /><path d="M 228.740009308,259.359985352 L 252.929008484,332.619987488 L 235.380008698,348.598987579 L 215.340009689,346.678985596 L 206.360010147,319.499986649 L 189.410010368,308.459986687 L 165.630010605,346.678985596 L 150.29101181,356.409988403 L 125.060009003,344.779987335 L 125.310009003,271.558986664 L 138.54101181,235.499984741 L 228.740009308,259.359985352 z" fill="#53af8a" /><path d="M 221.710013866,264.879985809 L 247.160013199,337.009986877 L 237.550013542,341.889987946 L 209.290014267,278.23998642 L 221.710013866,264.879985809 z" fill="#3e8f6e" /><path d="M 203.940014839,294.898986816 L 227.230014801,345.547988892 L 215.339015007,346.67898941 L 189.410015106,308.45998764 L 191.35001564,277.948986053 L 203.940014839,294.898986816 z" fill="#3e8f6e" /><path d="M 175.370013237,297.319982529 L 156.51001358,348.638980865 L 146.470013618,347.598983765 L 162.320013404,279.008983612 L 175.370013237,297.319982529 z" fill="#3e8f6e" /><path d="M 152.740012169,265.549983978 L 138.780011892,348.979984283 L 130.050011635,345.248985291 L 133.240012169,282.799983978 L 152.740012169,265.549983978 z" fill="#3e8f6e" /><path d="M 252.930007935,332.619981766 L 215.340007782,346.679982007 L 223.790006638,359.139982224 L 257.690006256,347.039981961 L 252.930007935,332.619981766 z" fill="#35785d" /><path d="M 165.63000679,346.679986954 L 125.060007095,344.779987335 L 125.010007858,359.139986992 L 156.970006943,360.59998703 L 165.63000679,346.679986954 z" fill="#35785d" /><path d="M 203.940006256,294.899986744 L 189.410006404,308.459985733 L 175.370006561,297.319986343 L 191.350006461,270.949987411 L 203.940006256,294.899986744 z" fill="#35785d" /><path d="M 74.5900115967,236.699983597 L 114.210010529,263.499982834 L 125.010009766,241.879982948 L 74.5900115967,236.699983597 z" fill="#4f5252" /><path d="M 87.7200088501,130.089981079 L 173.270011902,130.849981308 L 198.745010376,132.580981731 L 159.390010834,148.659981728 L 126.720010281,149.959981918 L 87.7200088501,130.089981079 z" fill="#c4c4c4" /><path d="M 127.450012207,143.359981537 L 87.7200107574,130.089981079 L 84.260011673,158.249980927 L 84.06001091,179.649981499 L 79.5500106812,196.449981689 L 74.5900115967,236.699981689 L 139.590011597,246.019981384 L 127.450012207,143.359981537 z" fill="#6e7073" /><path d="M 161.390010834,139.149982452 L 127.4500103,143.359981537 L 125.81001091,158.229980469 L 120.190010071,243.749980927 L 180.160011292,230.639980316 L 193.404010773,132.967983246 L 161.390010834,139.149982452 z" fill="#4f5252" /><path d="M 84.2600107193,158.249979019 L 94.2000106871,164.539979935 L 108.550010681,167.099979401 L 102.590010643,207.239980698 L 79.5500106812,196.449979782 L 81.7400102615,178.68998003 L 84.8000106812,171.21998024 L 84.2600107193,158.249979019 z" fill="#9da0a1" /><path d="M 108.550011635,167.099982142 L 81.7400121689,178.689982414 L 84.260011673,158.24998188 L 108.550011635,167.099982142 z" fill="#c4c4c4" /><path d="M 216.290008545,165.399990082 L 230.440010071,209.739990234 L 228.740009308,259.359989166 L 203.940010071,294.899993896 L 191.350009918,277.949989319 L 175.370009899,297.319992065 L 146.410009384,256.659988403 L 125.010009766,253.319990158 L 128.880008698,212.389989853 L 158.864009857,148.848991394 L 187.784009933,144.335990906 L 216.290008545,165.399990082 z" fill="#738d56" /><path d="M 194.260006666,208.218988419 L 176.820006371,255.679988861 L 191.3500067,266.820989609 L 206.850007057,256.158988953 L 194.260006666,208.218988419 z" fill="#4f5252" /><path d="M 206.850007057,256.15998745 L 176.820006371,255.679986954 L 191.3500067,277.949987411 L 206.850007057,256.15998745 z" fill="#464646" /><path d="M 209.540011406,191.369989395 L 194.260011286,208.219989777 L 179.780011177,189.229989052 L 195.710011244,186.429988861 L 209.540011406,191.369989395 z" fill="#464646" /><path d="M 137.590007782,204.219986916 L 137.590007782,173.939987183 L 125.810008049,158.229988098 L 96.6800079346,224.929985046 L 117.140007858,223.879985809 L 128.880007744,217.400985718 L 137.590007782,204.219986916 z" fill="#5a753c" /><path d="M 159.390007019,148.659988403 L 125.810005188,158.229990005 L 137.590005875,204.219989777 L 159.390007019,148.659988403 z" fill="#3e8f6e" /><path d="M 146.410009384,256.659980774 L 152.740009308,265.54998064 L 133.240009308,282.799980164 L 125.310009003,271.558980465 L 130.050008774,258.629980087 L 146.410009384,256.659980774 z" fill="#c3977a" /><path d="M 96.6800079346,224.928979874 L 119.690007687,275.529979706 L 146.410007477,256.658979416 L 128.880007744,217.399978638 L 96.6800079346,224.928979874 z" fill="#99c26c" /><path d="M 195.710000992,186.429981232 L 180.780000687,160.119981766 L 159.390001297,148.659980774 L 155.370000839,206.239982605 L 195.710000992,186.429981232 z" fill="#99c26c" /><path d="M 226.700004578,163.189981461 L 201.79000473,168.46998024 L 195.710004807,186.429981079 L 230.440004349,209.739980698 L 226.700004578,163.189981461 z" fill="#99c26c" /><path d="M 171.980007172,-1.52587890625E-05 L 112.420005798,53.7499847412 L 206.36000824,42.0089845657 L 171.980007172,-1.52587890625E-05 z" fill="#3e8f6e" /><path d="M 222.340006351,141.879987717 L 206.361006737,154.729988575 L 206.361006737,178.68998909 L 226.699006081,163.189988375 L 222.340006351,141.879987717 z" fill="#5a753c" /><path d="M 165.700012445,118.689977646 L 159.390012741,148.659977913 L 178.120012283,168.139978409 L 176.820012093,143.819978029 L 165.700012445,118.689977646 z" fill="#5a753c" /><path d="M 128.880010605,125.899990082 L 165.700012207,118.689989567 L 167.690011978,108.079989672 L 161.320011139,96.3599891663 L 146.610011339,105.699989796 L 128.880010605,125.899990082 z" fill="#35785d" /><path d="M 285.379014015,55.129989624 L 269.999013901,87.6699876785 L 265.079013824,128.469985962 L 294.00901413,114.279987335 L 292.55901432,62.9499874115 L 291.469014168,56.4699859619 L 285.379014015,55.129989624 z" fill="#3e8f6e" /><path d="M 275.370021045,86.6699924469 L 284.51002121,118.939991951 L 265.080020905,128.469991684 L 267.830020905,115.909992218 L 274.580021054,112.469992161 L 272.080021143,103.179992199 L 275.370021045,86.6699924469 z" fill="#99c26c" /><path d="M 285.380012512,55.1299858093 L 272.623012543,101.229986668 L 268.992012024,114.347986698 L 259.630012512,148.179985046 L 222.340013742,141.879985809 L 203.290014267,171.479988098 L 195.710014343,186.429985046 L 187.840015411,160.279987335 L 161.320014954,96.3599872589 L 209.731013298,52.2499885559 L 260.600013733,28.0899887085 L 285.380012512,55.1299858093 z" fill="#dfbca4" /><path d="M 250.820999146,32.7299842834 L 285.598999023,55.3699846268 L 273.330998898,36.3799843788 L 260.598999023,24.0899839401 L 252.190999985,26.4799842834 L 250.820999146,32.7299842834 z" fill="#8a6651" /><path d="M 209.730007172,52.2499847412 L 191.959007263,135.479980469 L 207.089006424,148.179981232 L 214.349006653,160.279979706 L 206.360006332,178.689979553 L 195.709007263,186.429977417 L 178.120007515,168.139980316 L 165.700006485,118.689981103 L 167.689006805,108.07998085 L 161.319007874,96.3599815369 L 209.730007172,52.2499847412 z" fill="#c3977a" /><path d="M 209.7310009,52.2499847412 L 192.020001411,81.3299860954 L 174.470001221,92.5499858856 L 192.800001621,99.7499856949 L 165.701002121,118.689987183 L 161.319002151,96.3599863052 L 178.970001698,77.1299858093 L 209.7310009,52.2499847412 z" fill="#8a6651" /><path d="M 191.490007401,68.8699836731 L 192.800006866,99.7499847412 L 153.730007172,103.269985199 L 149.110006332,81.2999844551 L 156.519006729,75.9929847717 L 163.38000679,92.569984436 L 184.570007324,91.5199842453 L 183.160007477,74.5399847031 L 191.490007401,68.8699836731 z" fill="#99c26c" /><path d="M 222.340000153,141.879981041 L 178.520000458,132.649981499 L 214.350000381,160.279980659 L 222.340000153,141.879981041 z" fill="#8a6651" /><path d="M 209.729995728,52.2499809265 L 153.729996681,71.5899810791 L 115.809997559,96.8499817848 L 128.878997803,125.899982452 L 209.729995728,52.2499809265 z" fill="#3e8f6e" /><path d="M 172.045535247,0.0445598596438 L 116.380027724,57.8183245046 L 209.272188855,39.5530014767 L 172.045535247,0.0445598596438 z" fill="#3e8f6e" /><path d="M 112.418992996,53.7499885559 L 87.718993187,76.9999878407 L 115.80899334,96.84998703 L 118.138993263,71.5899877548 L 112.418992996,53.7499885559 z" fill="#3e8f6e" /><path d="M 171.981002808,0.000986099243164 L 196.660001755,39.1609859467 L 260.598999023,28.0909862518 L 260.598999023,19.5799860229 L 249.46100235,0.490985870361 L 171.981002808,0.000986099243164 z" fill="#71c8a6" /><path d="M 260.599014282,28.0899839401 L 292.559013367,62.9499835968 L 309.990013123,41.6489839554 L 249.460014343,0.489984512329 L 260.599014282,28.0899839401 z" fill="#53af8a" /><path d="M 260.598991394,28.0899848938 L 115.808998108,96.84998703 L 112.418998718,53.7499856949 L 260.598991394,28.0899848938 z" fill="#53af8a" /><path d="M 241.620013714,97.2599887848 L 235.200013876,68.2899880409 L 227.670013428,53.7499885559 L 247.040014267,53.2699871063 L 247.540014267,61.9999876022 L 241.620013714,97.2599887848 z" fill="#c3977a" /><path d="M 255.79001236,63.5099878311 L 260.600012779,56.1699876785 L 277.060012817,64.4099874496 L 251.560012817,86.9999876022 L 255.79001236,63.5099878311 z" fill="#c3977a" /><path d="M 249.440014124,98.7499880791 L 244.349014044,103.449988127 L 241.620013952,97.2599880695 L 249.440014124,98.7499880791 z" fill="#8a6651" /><path d="M 255.790013313,63.5099887848 L 249.440013289,98.7499885559 L 241.620013237,97.2599887848 L 247.540013313,61.9999885559 L 255.790013313,63.5099887848 z" fill="#e8c9b6" /><path d="M 260.600013733,56.1699874401 L 271.731013298,54.2399873734 L 277.060012817,64.4099874496 L 260.600013733,56.1699874401 z" fill="#3e8f6e" /><path d="M 247.040014267,53.2699871063 L 238.81001389,47.9399871826 L 227.670013428,53.7499871254 L 247.040014267,53.2699871063 z" fill="#3e8f6e" /><path d="M 262.900016785,117.669987917 L 238.570016921,132.649988174 L 215.83001709,109.369987488 L 262.900016785,117.669987917 z" fill="#738d56" /><path d="M 256.840017319,118.079987288 L 244.570016861,118.506987296 L 241.620017052,118.609987304 L 237.36401701,117.120987296 L 221.730016708,111.649987221 L 234.749017239,123.679987431 L 244.029016972,125.239987373 L 256.840017319,118.079987288 z" fill="#ffffff" /><path d="M 262.900016785,117.669987679 L 242.960016966,111.129987717 L 215.83001709,109.369987488 L 237.816016912,117.86898756 L 241.620017052,119.339987755 L 262.900016785,117.669987679 z" fill="#446024" /><path d="M 270.689998627,77.9999818802 C 270.689998627,80.7609817982 268.450998545,82.9999818802 265.689998627,82.9999818802 C 262.927998543,82.9999818802 260.689998627,80.7609817982 260.689998627,77.9999818802 C 260.689998627,75.2389819622 262.927998543,72.9999818802 265.689998627,72.9999818802 C 268.450998545,72.9999818802 270.689998627,75.2389819622 270.689998627,77.9999818802 z" fill="#2b2b2b" /><path d="M 238.250003576,70.6999816895 C 238.250003576,73.4609835823 236.012002059,75.6999852657 233.25,75.6999852657 C 230.487997941,75.6999852657 228.249996424,73.4609835823 228.249996424,70.6999816895 C 228.249996424,67.93797963 230.487997941,65.6999781132 233.25,65.6999781132 C 236.012002059,65.6999781132 238.250003576,67.93797963 238.250003576,70.6999816895 z" fill="#2b2b2b" /></svg>