<?xml version='1.0' encoding='utf-8'?>
<svg xmlns="http://www.w3.org/2000/svg" width="400.0" height="400.0" viewBox="0 0 400.0 400.0"><path d="M 71.6699981689,382.439992666 L 166.969999313,371.859992981 L 282.36000061,385.459992677 L 153.439998627,399.999992371 L 71.6699981689,382.439992666 z" fill="#2b2b2b" opacity="0.1" /><path d="M 145.160000801,335.499992728 L 138.250000477,361.199993134 L 129.180000782,370.129993439 L 124.720000267,364.439992905 L 122.06000042,327.149992943 L 125.150000572,303.979991913 L 145.160000801,335.499992728 z" fill="#c3977a" /><path d="M 127.239998817,320.75 L 147.249999046,327.439999998 L 145.159998894,335.5 L 122.059998512,327.149999976 L 127.239998817,320.75 z" fill="#8a6651" /><path d="M 188.349993706,288.279987335 L 189.569993019,327.869987793 L 188.129993439,354.799987793 L 179.349993289,367.319988251 L 173.379993439,357.529987335 L 167.259993553,335.499987602 L 188.349993706,288.279987335 z" fill="#c3977a" /><path d="M 174.100003004,316.07000351 L 189.57000351,327.8700037 L 167.26000309,335.500003815 L 165.030002594,327.59000361 L 174.100003004,316.07000351 z" fill="#8a6651" /><path d="M 177.769996345,386.110007286 L 173.519996405,386.040007591 L 170.719996452,369.049007416 L 173.3799963,357.530007362 L 183.459996223,364.299007416 L 181.299996376,371.059007347 L 177.769996345,386.110007286 z" fill="#734d5f" /><path d="M 124.720003605,364.440013885 L 118.100003719,378.98001343 L 122.990003705,391.65001297 L 124.720003605,364.440013885 z" fill="#734d5f" /><path d="M 138.250003815,361.200006485 L 143.290003777,371.130006105 L 136.670003653,379.410006046 L 123.280003548,382.000005722 L 124.720004082,364.440006256 L 138.250003815,361.200006485 z" fill="#dfbca4" /><path d="M 123.280005455,381.999991417 L 143.290005684,371.129991531 L 145.740005493,375.529991388 L 141.490005493,381.999991417 L 122.990005493,386.539991379 L 123.280005455,381.999991417 z" fill="#95627b" /><path d="M 122.989999771,386.53998661 L 145.739999294,375.529986382 L 152.789999008,386.53998661 L 141.629999399,388.629986763 L 122.989999771,386.53998661 z" fill="#95627b" /><path d="M 188.129999399,354.580008507 L 199.649999619,367.030008554 L 193.679999352,373.510008335 L 184.609999418,376.750008583 L 173.379999161,357.530008316 L 188.129999399,354.580008507 z" fill="#dfbca4" /><path d="M 184.610004425,376.750002384 L 199.650004387,367.030002594 L 203.18000412,370.490002394 L 197.780004263,376.530002356 L 186.980004311,379.850002289 L 184.610004425,376.750002384 z" fill="#95627b" /><path d="M 186.979999542,380.848999977 L 203.179999352,370.489999771 L 214.049999237,380.848999977 L 199.719999373,383.008999825 L 186.979999542,380.848999977 z" fill="#95627b" /><path d="M 122.989999771,391.650001287 L 152.789999008,391.650001287 L 152.789999008,386.540001154 L 122.989999771,386.540001154 L 122.989999771,391.650001287 z" fill="#734d5f" /><path d="M 181.299992561,371.060002327 L 179.059991837,373.151002407 L 179.999992371,375.310002327 L 190.579992771,386.320002556 L 214.049993515,386.320002556 L 214.049993515,380.850002527 L 194.539992571,380.850002527 L 181.299992561,371.060002327 z" fill="#734d5f" /><path d="M 99.3100013733,312.900009155 L 152,300.9500103 L 209.439998627,314.339012146 L 195.189998627,264.750010967 L 165.100000381,230.120010376 L 117.159999847,274.389010906 L 113.200000763,278.139010906 L 99.3100013733,312.900009155 z" fill="#532f42" /><path d="M 309.579990387,192.149992675 L 300.359990239,198.859992504 L 293.399990082,194.999992609 L 293.399990082,185.749992847 L 309.579990387,192.149992675 z" fill="#8a6651" /><path d="M 281.749987602,174.839994907 L 308.76998806,171.839995384 L 309.579987526,192.14999485 L 281.01998806,187.779994965 L 281.749987602,174.839994907 z" fill="#c3977a" /><path d="M 284.260009766,193.519996643 L 369.191009521,135.849996567 L 373.070007324,141.509996414 L 287.660007477,198.859994888 L 284.260009766,193.519996643 z" fill="#9da0a1" /><path d="M 281.589999914,194.649998665 L 284.25999999,193.519998789 L 287.660000086,198.859998822 L 285.960000038,201.03999877 L 281.589999914,194.649998665 z" fill="#4f5252" /><path d="M 369.190002441,135.849998772 L 371.780002475,131.79999876 L 377.690002441,140.04999876 L 373.070002437,141.509998798 L 369.190002441,135.849998772 z" fill="#4f5252" /><path d="M 279.160000801,177.59000349 L 303.830000877,182.680003643 L 301.240001678,188.59000349 L 278.110001564,189.480003834 L 279.160000801,177.59000349 z" fill="#dfbca4" /><path d="M 283.149988174,170.310005188 L 260.329988003,172.900005341 L 252.199987411,182.400005579 L 254.789987564,193.340005875 L 280.33898735,198.670005798 L 283.149988174,170.310005188 z" fill="#95627b" /><path d="M 226.07000351,171.819993019 L 260.330003738,172.899992943 L 254.79000473,193.339992523 L 225.210004807,201.039992332 L 226.07000351,171.819993019 z" fill="#734d5f" /><path d="M 181.660003662,178.93999958 L 191.810003281,176.430000305 L 196.270003319,170.809999466 L 226.07000351,171.819999695 L 242.410003662,187.150000095 L 225.210003853,201.039999962 L 186.550003052,210.690000534 L 181.660003662,178.93999958 z" fill="#734d5f" /><path d="M 19.7700004578,126.470005035 L 50.5800008774,168.220005035 L 59.2200012207,168.510005951 L 67.0600013733,142.520005703 L 62.5300006866,132.300005913 L 19.7700004578,126.470005035 z" fill="#464646" /><path d="M 183.459999084,96.4500026703 L 85.1999969482,178.730003357 L 50.5799942017,168.220001221 L 89.2299957275,52.0400009155 L 183.459999084,96.4500026703 z" fill="#4f5252" /><path d="M 183.460002899,96.4499988556 L 172.300003052,133.670000076 L 85.2000007629,178.729999542 L 130.260001659,71.4099998474 L 183.460002899,96.4499988556 z" fill="#464646" /><path d="M 195.621003151,22.9599952698 L 221.099002838,56.9399967194 L 200.161003053,109.199996948 L 179.501003265,20.9499969482 L 195.621003151,22.9599952698 z" fill="#464646" /><path d="M 196.560003042,18.2800006866 L 221.100002289,56.9400005341 L 179.500003815,20.9500007629 L 196.560003042,18.2800006866 z" fill="#464646" /><path d="M 137.529995918,173.039997101 L 92.5399971008,67.8799972534 L 118.239995956,49.5899963379 L 144.939995766,81.4099960327 L 173.669994354,148.42999649 L 163.879995346,194.059997559 L 137.529995918,173.039997101 z" fill="#c3977a" /><path d="M 191.36999321,31.1699981689 L 206.70999527,145.039997101 L 144.149993896,156.199996948 L 117.089992523,49.9499969482 L 191.36999321,31.1699981689 z" fill="#dfbca4" /><path d="M 173.310003281,150.799993515 L 163.880002022,194.279993057 L 137.320001602,156.919993401 L 173.310003281,150.799993515 z" fill="#8a6651" /><path d="M 110.679998875,62.1199989319 L 128.029998779,92.9999990463 L 123.13999939,97.3199987411 L 126.589998245,138.919998169 L 129.969999313,155.549999237 L 80.4499988556,78.2399997711 L 110.679998875,62.1199989319 z" fill="#464646" /><path d="M 123.140002251,97.3200035095 L 108.310002327,101.710003853 L 116.220002413,121.500003815 L 129.320002556,116.110003471 L 123.140002251,97.3200035095 z" fill="#dfbca4" /><path d="M 120.469996452,102.720003128 L 113.269996166,104.800003052 L 121.90999651,110.130002975 L 120.469996452,102.720003128 z" fill="#8a6651" /><path d="M 124.139998198,113.43999815 L 127.809998035,124.599997997 L 121.909998178,126.399998188 L 119.029998302,115.099997997 L 124.139998198,113.43999815 z" fill="#734d5f" /><path d="M 112.339997768,192.329998016 L 96.8599977493,199.889998436 L 90.8899974823,237.399997711 L 113.199997902,251.069999695 L 122.339998245,246.969997406 L 124.579998016,236.099998474 L 126.089998245,214.579998195 L 109.749997854,179.519996643 L 112.339997768,192.329998016 z" fill="#734d5f" /><path d="M 99.1699972153,185.059999943 L 96.8599977493,199.890000343 L 119.969997406,211.340000153 L 125.009997368,206.369999886 L 119.819997787,169.659999847 L 100.819997787,174.270000458 L 99.1699972153,185.059999943 z" fill="#734d5f" /><path d="M 90.890001297,237.400006771 L 113.200000763,251.071006775 L 122.340000153,246.969006777 L 124.579999924,236.099006653 L 90.890001297,237.400006771 z" fill="#734d5f" /><path d="M 147.249994278,327.441005707 L 117.739994049,273.961004853 L 124.209993362,258.050004959 L 165.529994011,223.140003204 L 192.809993744,257.260004044 L 189.569992065,327.871006012 L 147.249994278,327.441005707 z" fill="#95627b" /><path d="M 122.059993744,327.150009155 L 117.739994049,273.960008502 L 124.209993362,258.049009323 L 165.529993057,223.139007568 L 174.309993744,251.86000824 L 147.24999392,327.440010071 L 122.059993744,327.150009155 z" fill="#734d5f" /><path d="M 112.050001144,179.879001617 L 119.820001602,169.660003662 L 123.640001297,168.220001221 L 143.290001869,179.450000763 L 164.310001373,189.530002594 L 171.360002518,202.269001007 L 165.170001984,235.59000206 L 150.700001717,252.73000145 L 118.030002594,276.690002441 L 124.580001831,236.100002289 L 112.050001144,179.879001617 z" fill="#95627b" /><path d="M 192.450004578,237.61000061 L 200.730003357,270.138999939 L 174.310004234,251.86000061 L 182.95000428,267.270000458 L 165.170003891,235.589000702 L 164.310005188,189.530000687 L 181.730004251,176.63999939 L 177.700004101,168.36000061 L 193.250003815,172.25 L 195.980004311,176.790000916 L 192.450004578,237.61000061 z" fill="#b3879d" /><path d="M 159.630000591,208.749999389 L 164.670000613,203.779999256 L 168.840000629,208.88999939 L 164.740000606,213.999999523 L 159.630000591,208.749999389 z" fill="#d1a0b8" /><path d="M 159.989994526,227.170006096 L 164.959994495,222.420006275 L 169.279994488,227.460006103 L 165.169994533,232.280005932 L 159.989994526,227.170006096 z" fill="#d1a0b8" /><path d="M 150.700000763,252.729999542 L 99.3099994659,312.901000977 L 97.7999992371,271.369999886 L 124.580000013,236.099998474 L 150.700000763,252.729999542 z" fill="#b3879d" /><path d="M 192.450003624,237.61100769 L 213.760004044,282.241005898 L 209.440003395,314.340007782 L 182.950003624,267.27000618 L 174.310003281,251.861005783 L 192.450003624,237.61100769 z" fill="#d1a0b8" /><path d="M 174.310005188,251.860003471 L 150.700004578,252.730003357 L 165.170004845,235.589003563 L 174.310005188,251.860003471 z" fill="#d1a0b8" /><path d="M 168.339997768,134.600002527 L 158.40999794,131.000002444 L 168.909997463,127.840002537 L 176.689997673,129.42000246 L 185.179997444,128.270002365 L 188.209997177,128.700002432 L 174.239997566,135.040002346 L 168.339997768,134.600002527 z" fill="#ffffff" /><path d="M 188.209997177,128.69999814 L 174.169997573,124.089998245 L 158.40999794,130.999998093 L 174.011997581,129.795998096 L 188.209997177,128.69999814 z" fill="#734d5f" /><path d="M 173.379997559,138.349993706 L 188.209997177,128.699994087 L 174.309997559,132.439993858 L 158.40999794,130.999993801 L 173.379997559,138.349993706 z" fill="#b3879d" /><path d="M 173.810000598,80.1899986267 L 181.010000706,110.849998474 L 170.000000715,112.509998322 L 165.460000515,81.2699985504 L 173.810000598,80.1899986267 z" fill="#e8c9b6" /><path d="M 174.890004873,117.549996853 L 181.010004997,110.849997044 L 170.000004768,112.509996891 L 174.890004873,117.549996853 z" fill="#8a6651" /><path d="M 144.510004997,84.0699996948 L 165.460004807,81.2699995041 L 170.000004768,112.509999275 L 144.510004997,84.0699996948 z" fill="#c3977a" /><path d="M 179.420003653,103.939998627 L 190.010004044,76.2299995422 L 173.810003281,80.1899986267 L 179.420003653,103.939998627 z" fill="#c3977a" /><path d="M 141.780001163,77.3099963665 L 159.990001678,81.9999963641 L 135.950000763,84.8699963093 L 141.780001163,77.3099963665 z" fill="#464646" /><path d="M 194.679995537,74.7899993658 L 173.809994698,80.1899995804 L 190.439995289,67.5899991989 L 194.679995537,74.7899993658 z" fill="#464646" /><path d="M 123.63999939,168.219999313 L 100.819999695,174.189999342 L 99.1699991226,184.989999771 L 99.1699991226,185.059999466 L 128.609999657,175.269999385 L 123.63999939,168.219999313 z" fill="#b3879d" /><path d="M 171.94000423,156.130001068 L 177.700004101,168.360002041 L 181.220004082,173.470001817 L 181.730004311,176.640001774 L 174.390004277,187.660001755 L 164.310004234,189.530002594 L 171.94000423,156.130001068 z" fill="#734d5f" /><path d="M 123.640007019,168.219993114 L 129.760005951,155.049993515 L 164.310005188,189.529993057 L 138.470005989,189.459993362 L 123.640007019,168.219993114 z" fill="#734d5f" /><path d="M 177.700000763,168.359996796 L 196.270000458,170.809996963 L 195.980000496,176.789997101 L 181.730000496,176.639997005 L 180.36000061,173.759996891 L 177.700000763,168.359996796 z" fill="#d1a0b8" /><path d="M 186.899993896,81.1399998665 C 184.353993893,81.1399998665 182.289993763,83.2039999962 182.289993763,85.75 C 182.289993763,88.2960000038 184.353993893,90.3600001335 186.899993896,90.3600001335 C 189.4459939,90.3600001335 191.50999403,88.2960000038 191.50999403,85.75 C 191.50999403,83.2039999962 189.4459939,81.1399998665 186.899993896,81.1399998665 z" fill="#2b2b2b" /><path d="M 152.13999939,87.1299977303 C 149.593999386,87.1299977303 147.529999256,89.19399786 147.529999256,91.7399978638 C 147.529999256,94.2859978676 149.593999386,96.3499979973 152.13999939,96.3499979973 C 154.685999393,96.3499979973 156.749999523,94.2859978676 156.749999523,91.7399978638 C 156.749999523,89.19399786 154.685999393,87.1299977303 152.13999939,87.1299977303 z" fill="#2b2b2b" /><path d="M 187.049999237,0 L 89.2299995422,52.0399999619 L 69.2200012207,74.7900009155 L 128.029998779,93 L 205.839996338,29.7989997864 L 187.049999237,0 z" fill="#4f5252" /><path d="M 187.049995422,0 L 84.1209945679,47.7990007401 L 69.2199935913,74.7900009155 L 187.049995422,0 z" fill="#464646" /><path d="M 187.050000191,0 L 128.029998779,93 L 221.970001221,30.0900001526 L 187.050000191,0 z" fill="#6e7073" /></svg>