<?xml version='1.0' encoding='utf-8'?>
<svg xmlns="http://www.w3.org/2000/svg" width="400.0" height="400.0" viewBox="0 0 400.0 400.0"><path d="M 65.4600067139,392.320012093 L 184.43000412,378.400012016 L 350.800003052,389.730012178 L 185.490005493,400.000012398 L 65.4600067139,392.320012093 z" opacity="0.1" /><path d="M 286.650001526,218.849006653 L 270.889001369,221.690006256 L 270.290000916,161.890007019 L 273.250001431,157.28900528 L 277.769001245,154.010005951 L 286.650001526,218.849006653 z" fill="#95627b" /><path d="M 277.769989014,154.010005951 L 270.290988922,161.890005112 L 237.519989014,133.410005569 L 237.780988693,130.230005264 L 240.809989929,128.840005875 L 277.769989014,154.010005951 z" fill="#b3879d" /><path d="M 318.299015045,389.309997559 L 283.739014626,383.361000061 L 243.230014801,389.309997559 L 243.230014801,257.270000458 L 246.199012756,246.871002197 L 243.230014801,228.130004883 L 318.299015045,209.130004883 L 314.860015869,262.451000214 L 318.299015045,310.321001053 L 313.949012756,354.701000214 L 318.299015045,389.309997559 z" fill="#90759f" /><path d="M 318.299015045,209.130004883 L 243.230014801,227.010005951 L 243.230014801,257.27000618 L 318.299015045,310.320007324 L 318.299015045,209.130004883 z" fill="#584164" /><path d="M 332.940010071,220.879997015 L 228.58000946,246.869997025 L 228.58000946,228.519996881 L 332.940010071,202.529996872 L 332.940010071,220.879997015 z" fill="#785d87" /><path d="M 318.299015045,310.32000351 L 243.230014801,389.309001923 L 318.299015045,389.309001923 L 318.299015045,310.32000351 z" fill="#785d87" /><path d="M 232.42999649,115.169997692 L 227.700996399,122.879997611 L 221.919996262,129.699997902 L 216.499996185,120.479997575 L 222.1299963,112.669997215 L 232.42999649,115.169997692 z" fill="#b3879d" /><path d="M 232.430000603,115.169998169 L 221.92000103,129.699997902 L 239.991000652,135.559997559 L 243.550000191,130.709997654 L 232.430000603,115.169998169 z" fill="#95627b" /><path d="M 152.239999771,324.799999237 L 166.699999809,344.349998474 L 186.849999428,339.299999237 L 201.539999008,327.38999939 L 185.489999771,265.959999084 L 157.590000153,308.529998779 L 152.239999771,324.799999237 z" fill="#785d87" /><path d="M 166.699996948,344.349985123 L 184.429997444,369.579984665 L 206.369997025,364.360985756 L 209.919998169,358.799984932 L 201.539997101,327.389986038 L 166.699996948,344.349985123 z" fill="#584164" /><path d="M 107.580001831,266.849994659 L 185.490005493,265.95999527 L 157.590003967,308.529994965 L 133.460003853,297.329995155 L 107.580001831,266.849994659 z" fill="#90759f" /><path d="M 157.590005875,308.530007601 L 150.250005722,339.300006866 L 129.970005512,347.679008484 L 109.690006256,340.300006866 L 101.280006409,299.340007782 L 99.6400051117,282.700008392 L 107.580005646,266.849006653 L 157.590005875,308.530007601 z" fill="#a687b9" /><path d="M 150.250001907,339.299987793 L 143.73000145,367.009987831 L 131.560001254,373.299987793 L 115.620000839,372.230987549 L 109.690000534,340.299987793 L 150.250001907,339.299987793 z" fill="#785d87" /><path d="M 143.730005264,367.009993553 L 152.630004883,387.78999424 L 134.200004876,389.78999424 L 115.130004883,387.78999424 L 115.620004654,372.230993748 L 143.730005264,367.009993553 z" fill="#95627b" /><path d="M 209.920000002,358.799015045 L 235.319999695,382.730014801 L 205.840000153,384.730014801 L 184.909999847,382.730014801 L 184.430000305,369.57901454 L 209.920000002,358.799015045 z" fill="#95627b" /><path d="M 115.130004883,387.789997578 L 152.630004883,387.789997578 L 152.630004883,394.32999754 L 115.130004883,394.32999754 L 115.130004883,387.789997578 z" fill="#532f42" /><path d="M 184.910005569,382.730000019 L 235.320005417,382.730000019 L 235.320005417,389.269999981 L 184.910005569,389.269999981 L 184.910005569,382.730000019 z" fill="#532f42" /><path d="M 190.380003691,165.680000305 L 200.57000351,196.160000801 L 197.590003967,224.430000305 L 178.780003548,237.540000916 L 178.634003639,231.061000824 L 177.750003815,191.750000954 L 190.380003691,165.680000305 z" fill="#b3879d" /><path d="M 193.721000195,219.099999428 L 197.590000033,224.429999352 L 219.138999939,226.990999222 L 214.970999718,248.990999222 L 181.790000916,250.679999352 L 179.611000061,226.169999123 L 193.721000195,219.099999428 z" fill="#95627b" /><path d="M 192.85000515,222.239997864 L 191.620004654,233.709997535 L 206.870004892,248.129997253 L 219.140005112,226.989997864 L 207.769004822,225.29999733 L 192.85000515,222.239997864 z" fill="#734d5f" /><path d="M 204.540006161,212.51899147 L 198.940006256,206.490990639 L 219.430006027,179.930990219 L 224.510005951,184.689990997 L 216.190006256,198.958990812 L 212.820006132,209.299990654 L 204.540006161,212.51899147 z" fill="#c3977a" /><path d="M 204.53999567,207.509998322 L 221.349995613,224.789998055 L 209.259995699,236.829998016 L 200.109995842,228.699998379 L 204.53999567,207.509998322 z" fill="#c3977a" /><path d="M 200.569992065,196.159992218 L 195.069992065,196.349992752 L 192.849992275,222.239993095 L 200.109992027,228.699993134 L 204.539991856,212.518992677 L 200.569992065,196.159992218 z" fill="#dfbca4" /><path d="M 204.539993286,212.519006103 L 216.189993285,198.95900631 L 228.039993286,218.510005951 L 219.139993191,226.991005898 L 204.539993286,212.519006103 z" fill="#e8c9b6" /><path d="M 158.210000038,41.4899978638 L 168.969999313,29.8499984741 L 181.219999313,27.5499954224 L 199,125.17999649 L 166.840000153,133.359996796 L 128.569999695,135.989997864 L 109.970001221,69.6299962997 L 106.25,38.3499984741 L 132.760000229,35.1499977112 L 158.210000038,41.4899978638 z" fill="#dfbca4" /><path d="M 151.579994202,140.349998474 L 198.999996185,125.17999649 C 175.698993683,129.219997406 152.397994041,133.259998322 129.097994804,137.300998688 C 124.154994965,113.733997345 119.211994171,90.1669969559 114.269994736,66.5999965668 L 106.249994278,38.3499984741 L 90.5599937439,57.5299987793 L 95.0099945068,72.4199962616 L 105.909994125,90.6599969864 L 100.989994049,91.9699969292 L 98.2299957275,97.2799969912 L 92.439994812,93.1099967957 L 87.7699928284,82.9899969101 L 82.5799942017,90.9599971771 L 76.2699928284,94.4899969101 L 85.6299934387,102.199996948 L 89.859992981,111.579997063 L 92.5699958801,117.479997635 L 93.9699935913,129.309997559 L 100.669994354,158.299995422 L 159.249994278,155.509998322 L 151.579994202,140.349998474 z" fill="#c3977a" /><path d="M 186.389993191,55.9300003052 L 190.989993095,21.9700012207 L 173.589993477,24.7900009155 L 186.389993191,55.9300003052 z" fill="#464646" /><path d="M 98.2300014496,97.2800036622 L 100.67000103,102.860003471 L 89.8600012064,111.580003738 L 76.2700014114,94.4900035858 L 87.7700012326,82.9900035858 L 98.2300014496,97.2800036622 z" fill="#dfbca4" /><path d="M 158.209997177,41.4900016785 L 190.989997864,21.9700008631 L 156.119997025,0 L 153.409996033,22.7500009537 L 158.209997177,41.4900016785 z" fill="#6e7073" /><path d="M 158.209999084,41.4900016785 L 156.119998932,0 L 65.4599990845,34.17000103 L 85.0199985504,40.1500015259 L 106.249999046,38.3500003815 L 158.209999084,41.4900016785 z" fill="#8f8f8f" /><path d="M 65.4600009918,34.1699981689 L 61.9700012207,87.1699981689 L 77.7900004387,73.8199977875 L 90.5600004196,57.529998064 L 106.25,38.3499984741 L 65.4600009918,34.1699981689 z" fill="#6e7073" /><path d="M 90.560002327,57.5299987793 L 105.910001755,90.6599988937 L 98.2300024033,97.2799987793 L 87.7700023651,82.9899988174 L 76.2700023651,94.4899978638 L 61.9700031281,87.1699991226 L 90.560002327,57.5299987793 z" fill="#464646" /><path d="M 82.5399999619,95.1899978667 L 86.7300000191,91.0099978447 L 91.9600000381,99.7199978828 L 82.5399999619,95.1899978667 z" fill="#8a6651" /><path d="M 89.8599970341,111.580001831 L 97.5399968624,105.300002098 L 94.0999969542,129.860001564 L 89.8599970341,111.580001831 z" fill="#8a6651" /><path d="M 116.489994049,137.550001144 L 198.999996185,125.180001259 L 159.249995112,142.610001326 L 159.249995112,155.510001183 L 141.757994652,148.16300106 L 116.489994049,137.550001144 z" fill="#8a6651" /><path d="M 178.780002594,111.070000648 L 157.640002429,112.480000496 L 141.190002441,107.470000505 L 143.890002251,100.930000305 L 134.850002289,106.710000515 L 137.20000267,118.040000916 L 140.370002747,111.940000534 L 157.640002429,116.950000763 L 178.780002594,111.070000648 z" fill="#8a6651" /><path d="M 164.830001354,55.0900020599 L 161.690001488,62.7600017786 L 161.220001221,70.7200021744 L 165.240001202,80.4700012207 L 182.970001221,51.6000022888 L 174.600001335,42.1900024414 L 164.830001354,55.0900020599 z" fill="#c3977a" /><path d="M 161.690001488,50.9099986553 L 174.600001812,42.1899986267 L 182.970002174,51.5999987125 L 178.080001831,55.4399986267 L 172.330001831,48.8199986266 L 164.830001831,55.0899987221 L 161.690001488,50.9099986553 z" fill="#464646" /><path d="M 122.63999176,62.4100036621 L 144.049992561,73.5300030708 L 156.469993591,95.1900024414 L 154.979992867,75.0400030613 L 151.579992294,64.1600027084 L 122.63999176,62.4100036621 z" fill="#c3977a" /><path d="M 151.580000877,64.1599986553 L 124.390000343,55.7899985313 L 122.640000343,62.4099986553 L 146.700000763,70.0899987221 L 151.580000877,64.1599986553 z" fill="#464646" /><path d="M 161.690006018,62.7600002289 L 167.620006561,92.4000005722 L 162.890006065,95.6000003815 L 156.470005989,95.1900005341 L 151.580005646,64.1599998474 L 161.690006018,62.7600002289 z" fill="#e8c9b6" /><path d="M 167.619997978,92.4000034332 L 162.739998162,100.420003891 L 156.46999836,95.1900036335 L 167.619997978,92.4000034332 z" fill="#8a6651" /><path d="M 160,156.375 L 100.81199646,157.125 L 98.25,162.875 L 160,156.375 z" fill="#c3987b" /><path d="M 96.064994812,160.86999321 L 97.4139938354,180.340992689 L 147.859994888,204.859992981 L 159.516994476,155.697992325 L 100.637994766,158.387992859 L 96.064994812,160.86999321 z" fill="#fdfdfd" /><path d="M 100.860002041,157.620006561 L 143.910003662,189.670004845 L 119.140002251,209.349004745 L 88.6500015259,228.140003204 L 78.2900009155,204.490004539 L 71.25,173.800004959 L 100.860002041,157.620006561 z" fill="#95627b" /><path d="M 159.250004292,155.510000229 L 190.380004883,165.680000305 L 180.890004158,197.25 L 163.390004158,200.989999771 L 143.910003662,189.670000076 L 159.250004292,155.510000229 z" fill="#95627b" /><path d="M 88.6499996185,228.138992786 L 97.1199989319,257.86999321 L 107.57999897,266.848991394 L 152.420000076,271.439990997 L 152.629999161,226.990992785 L 143.909999847,189.668991089 L 88.6499996185,228.138992786 z" fill="#734d5f" /><path d="M 143.909996033,189.668991089 L 180.889997482,197.24899292 L 185.489997864,265.958992004 L 152.419997215,271.439990997 L 143.909996033,189.668991089 z" fill="#532f42" /><path d="M 81.9099969864,232.309986115 L 107.579996109,266.849986553 L 91.6999969482,285.84998703 L 65.3199977875,263.070986509 L 81.9099969864,232.309986115 z" fill="#95627b" /><path d="M 101.279999375,299.34000206 L 91.6999993324,285.850001335 L 107.579999447,266.850000381 L 101.279999375,299.34000206 z" fill="#dfbca4" /><path d="M 71.2500011921,173.799999237 L 48.2900009155,248.480997086 L 65.3200011253,263.06999588 L 88.6500015259,228.139997482 L 71.2500011921,173.799999237 z" fill="#b3879d" /><path d="M 177.819996357,65.8600006104 C 177.819996357,68.196000576 175.925996304,70.0900006294 173.589996338,70.0900006294 C 171.253996372,70.0900006294 169.359996319,68.196000576 169.359996319,65.8600006104 C 169.359996319,63.5240006447 171.253996372,61.6300005913 173.589996338,61.6300005913 C 175.923996449,61.6360006332 177.814996243,63.5260004997 177.819996357,65.8600006104 z" fill="#2b2b2b" /><path d="M 144.050007343,73.5299987793 C 144.050007343,75.865998745 142.15600729,77.7599987984 139.820007324,77.7599987984 C 137.484007359,77.7599987984 135.590007305,75.865998745 135.590007305,73.5299987793 C 135.590007305,71.1939988136 137.484007359,69.2999987602 139.820007324,69.2999987602 C 142.15600729,69.2999987602 144.050007343,71.1939988136 144.050007343,73.5299987793 z" fill="#2b2b2b" /></svg>