<?xml version='1.0' encoding='utf-8'?>
<svg xmlns="http://www.w3.org/2000/svg" width="400.0" height="400.0" viewBox="0 0 400.0 400.0"><path d="M 289.419998169,389.399993896 L 142.790001869,381.548994064 L 3.74000549316,389.689993858 L 136.59000206,399.999994278 L 289.419998169,389.399993896 z" fill="#2b2b2b" opacity="0.1" /><path d="M 244.860004425,24.3700008392 L 173.080003738,70.3099994659 L 158.509002686,56.6000003815 L 150.460002899,42.990000248 L 158.740005493,37 L 244.860004425,24.3700008392 z" fill="#27788b" /><path d="M 116.779998779,57.3100013733 L 105.289999008,59.6000022888 L 35.5900001526,108.490001678 L 119.869998932,91.5900011063 L 120.359996796,71.4100017548 L 116.779998779,57.3100013733 z" fill="#399fb9" /><path d="M 119.86999321,91.5890007019 L 173.079992294,70.3090014458 L 150.459992886,42.9890022278 L 133.029993057,47.5890007019 L 116.779993057,57.3090019226 L 119.86999321,91.5890007019 z" fill="#308fa6" /><path d="M 146.119995713,68.5690011978 L 128.389995575,40.7590026855 L 137.089995384,76.6090011597 L 151.429995537,107.958999634 L 164.302995682,139.952003479 L 173.524995804,133.163002014 L 162.31999588,106.299001694 L 146.119995713,68.5690011978 z" fill="#5ec0d9" /><path d="M 137.570000648,48.2200012207 L 126.350000381,53.2000007629 L 137.090000629,76.6100006104 L 146.120000839,68.5700011253 L 137.570000648,48.2200012207 z" fill="#399fb9" /><path d="M 157.48000145,40.0200004578 L 106.940000534,61.4200000763 L 106.210000992,40.5600004196 L 110.950000763,11.5799999237 L 116.220001221,7.37000083923 L 121.680001259,7.61000061035 L 144.680001259,24.4400005341 L 157.48000145,40.0200004578 z" fill="#5ec0d9" /><path d="M 121.68000412,7.60899925232 L 244.860004425,24.3689991832 L 157.480003357,40.0189990997 L 121.68000412,7.60899925232 z" fill="#399fb9" /><path d="M 110.949996948,11.5799980164 L 35.5899963379,108.490001678 L 106.939994812,61.4199998379 L 110.949996948,11.5799980164 z" fill="#308fa6" /><path d="M 118.750000238,0 L 108.180000305,3.82999992371 L 110.951000214,11.5799999237 L 121.680000305,7.61000001431 L 118.750000238,0 z" fill="#399fb9" /><path d="M 73.6600017548,327.649999619 L 78.4600009918,360.65999794 L 106.530001879,356.378998756 L 135.250001907,346.779998779 L 104.160001844,334.739998817 L 84.2100009918,330.102998734 L 73.6600017548,327.649999619 z" fill="#1c7678" /><path d="M 78.4600028992,360.660006046 L 98.9200034142,366.870006561 L 110.740003347,368.420005798 L 135.250003815,346.780006409 L 78.4600028992,360.660006046 z" fill="#369395" /><path d="M 110.739999056,368.419003963 L 138.279998779,387.539004326 L 105.969999075,389.299003601 L 76.6399993896,387.539004326 L 78.4599990845,360.659004211 L 110.739999056,368.419003963 z" fill="#155e5f" /><path d="M 76.6399993896,387.539992571 L 138.279998779,387.539992571 L 138.279998779,394.069992781 L 76.6399993896,394.069992781 L 76.6399993896,387.539992571 z" fill="#1c7678" /><path d="M 270.540007591,179.588996887 L 243.030007362,207.42899704 L 229.740007401,236.008996964 L 267.400007248,259.198997498 L 279.400007248,229.838996887 L 278.150007248,206.318997383 L 270.540007591,179.588996887 z" fill="#50a9aa" /><path d="M 278.150997162,206.320001602 L 289.700997353,206.320001602 L 322.120998383,206.320001602 L 323.969997406,215.48000145 L 320.499998093,232.170001268 L 267.400997162,259.200000763 L 278.150997162,206.320001602 z" fill="#71cacc" /><path d="M 319.259996414,206.318994522 L 338.169996262,204.767993927 L 365.169996262,206.318994522 L 320.499996185,232.169994354 L 319.259996414,206.318994522 z" fill="#c3977a" /><path d="M 382.937988281,198.244003296 L 358.82800293,197.567001343 L 337.785003662,204.442993164 L 337.825012207,204.589996338 L 364.962005615,206.576004028 L 382.937988281,198.244003296 z" fill="#8b6651" /><path d="M 21.75,286.740013123 L 11.5600000024,267.469013214 L 3.73000001907,266.139015198 L 1,341.019012451 L 7.42000007629,341.089012146 L 21.75,286.740013123 z" fill="#1c7678" /><path d="M 65.4699983597,262.66999054 L 32.6799983978,271.52999115 L 40.57999897,293.679990292 L 57.639998436,322.559989929 L 66.4999980927,299.219990253 L 68.1999988556,282.749990463 L 65.4699983597,262.66999054 z" fill="#369395" /><path d="M 32.6800022125,271.530006409 L 26.7700014114,291.910006523 L 26.9200019836,310.590005875 L 57.6400022507,322.558006287 L 32.6800022125,271.530006409 z" fill="#1c7678" /><path d="M 26.9199991226,310.588991642 L 7.41999912262,341.088993073 L 11.5599994659,267.468990326 L 32.6799993515,271.528991699 L 26.9199991226,310.588991642 z" fill="#155e5f" /><path d="M 58.2300004959,207.950004578 L 65.4700007439,262.670005798 L 68.2000005245,282.750007629 L 80.5300006866,244.210006118 L 84.7400007248,219.990005493 L 73.4400006533,212.230007172 L 58.2300004959,207.950004578 z" fill="#1c7678" /><path d="M 270.540000916,180.330003738 L 228.150001526,252.620002747 L 169.000002444,231.280002594 L 69.0900039673,189.260003567 L 113.840003967,113.200004578 L 154.747002602,124.627002716 L 211.68000412,140.530002594 L 270.540000916,180.330003738 z" fill="#1c7678" /><path d="M 162.680996299,137.60900116 L 165.68399632,162.107002258 L 173.209996223,187.120002747 L 198.979995728,192.140003204 L 207.619995117,195.910003662 L 222.829998016,197.830001831 L 235.759994507,203.29000473 L 248.911994934,188.434001923 L 256.338996887,192.835002899 L 249.807998657,215.792003632 L 231.989997864,246.269003868 L 199.869995117,366.870010376 L 57.6399993896,322.559005737 L 84.7399978638,219.990003586 L 58.2299957275,207.950004578 L 69.0899963379,189.260002136 L 90.7999954224,197.750003815 L 152.899996758,199.68000412 L 153.358996391,166.869003296 L 152.220995903,137.656005859 L 162.680996299,137.60900116 z" fill="#c4c4c4" /><path d="M 84.7410049438,219.989994049 L 139.311006546,262.808995247 L 121.151008606,293.45999527 L 164.940006256,343.379997253 L 210.350006104,327.20999527 L 226.680007935,266.138995171 L 111.921005249,211.859992981 L 84.7410049438,219.989994049 z" fill="#8f8f8f" /><path d="M 151.430002213,107.960006714 L 113.840001583,113.200004578 L 84.7400016785,219.990005493 L 120.780001521,212.530006409 L 152.900001526,199.680007935 L 154.310001373,155.810006142 L 151.430002213,107.960006714 z" fill="#71cacc" /><path d="M 245.060005665,31.9000015259 L 278.5090065,56.4099998474 L 312.340003967,52.5 L 270.53900528,180.330001831 L 229.700005531,171.38999939 L 207.620006561,195.909996033 L 190.049003601,165.629997253 L 167.890007019,105.449998856 L 176.019004822,106.109998703 L 180.590003967,103.679998398 L 177.491004944,78.7899971008 L 200.609004974,71.6299972534 L 203.929004669,99.1699991226 L 215.889005661,96.2899990082 L 206.28900528,35.2900009155 L 245.060005665,31.9000015259 z" fill="#dfbca4" /><path d="M 245.060005188,31.9000015259 L 205.560006082,160.539997101 L 228.959005356,167.919998169 L 217.370006561,180.11000061 L 207.620006084,195.909996033 L 202.900006056,178.779998779 L 194.549006462,166.219997406 L 167.890007019,105.449998856 L 180.590005875,103.749999046 L 195.140006065,102.419999123 L 202.230006218,101.169999123 L 216.629006386,98.359998703 L 208.580006123,34.9199981689 L 245.060005188,31.9000015259 z" fill="#c3977a" /><path d="M 194.849994659,94.5200018883 L 193.659994602,83.1400017738 L 183.919994354,84.1100020409 L 194.849994659,94.5200018883 z" fill="#8a6651" /><path d="M 180.590003967,103.680001497 L 202.230003357,101.170001507 L 181.849003792,113.130001545 L 180.590003967,103.680001497 z" fill="#8a6651" /><path d="M 265.959991455,119.258997194 L 257.31999135,123.098997116 L 252.959991455,115.188997269 L 265.959991455,119.258997194 z" fill="#8a6651" /><path d="M 245.499997139,78.4899997711 L 254.58999756,85.8100004196 L 252.959997535,115.190000534 L 262.319997787,94.5200002193 L 264.119997978,78.4200000763 L 245.499997139,78.4899997711 z" fill="#c3977a" /><path d="M 277.190003633,82.7000017166 L 268.360003471,94.5200018287 L 269.429003716,107.960001945 L 283.389003754,91.8600018024 L 293.210003853,90.6800017357 L 277.190003633,82.7000017166 z" fill="#c3977a" /><path d="M 204.960004807,160.239997864 L 194.550004959,166.219997406 L 198.610004425,180.919996977 L 207.620004654,195.909996033 L 219.07000494,183.349997044 L 228.960004807,167.919997215 L 204.960004807,160.239997864 z" fill="#8a6651" /><path d="M 278.659991264,77.6800003052 L 294.979991913,85.0700002909 L 293.209991455,90.6800003052 L 277.189990997,82.7000002861 L 278.659991264,77.6800003052 z" fill="#464646" /><path d="M 265.670006752,73.4000005722 L 246.320006371,72.7300004959 L 245.500006676,78.4900007248 L 264.120006561,78.4200005531 L 265.670006752,73.4000005722 z" fill="#464646" /><path d="M 225.860004425,120.58900547 L 278.150005341,137.059005737 L 251.120004892,143.779006004 L 225.860004425,120.58900547 z" fill="#c3977a" /><path d="M 238.419994354,127.970001698 L 266.629993439,136.760001898 L 251.559993923,141.190001965 L 238.419994354,127.970001698 z" fill="#ffffff" /><path d="M 265.960003853,8.12000083923 L 223.350004196,12.2500019073 L 233.170003891,26.7300014496 L 245.060003757,31.9000015259 L 278.220003128,60.1800022125 L 275.780004501,34.7800015211 L 265.960003853,8.12000083923 z" fill="#464646" /><path d="M 223.350001812,12.2500009537 L 188.350002289,16.680000782 L 200.681001663,31.4500007629 L 210.65100193,36.9900007248 L 245.060001373,31.900001049 L 223.350001812,12.2500009537 z" fill="#6e7073" /><path d="M 188.350003242,16.6800003052 L 177.490003586,78.7899990082 L 199.200003624,75.7599983215 L 202.230003834,101.169998169 L 218.330003738,99.25 L 210.650003433,36.9899997711 L 188.350003242,16.6800003052 z" fill="#464646" /><path d="M 278.219993591,60.1800022125 L 265.959993362,8.12000083923 L 312.339994431,52.5000019073 L 278.219993591,60.1800022125 z" fill="#8f8f8f" /><path d="M 264.120012224,78.4199962616 L 277.190011978,82.6999969482 L 265.960012197,119.259996414 L 252.960012436,115.189996719 L 264.120012224,78.4199962616 z" fill="#e8c9b6" /><path d="M 167.890005112,105.449993134 L 169.220005035,156.839992523 L 173.210004807,187.119991302 L 207.620004654,195.909992218 L 194.550004959,166.219992638 L 167.890005112,105.449993134 z" fill="#50a9aa" /><path d="M 228.960000038,167.919996262 L 207.620000839,195.909996033 L 222.539999962,199.81999588 L 235.760000229,203.289995193 L 246.25,190.219995499 L 253.629999161,175.309995651 L 228.960000038,167.919996262 z" fill="#71cacc" /><path d="M 152.900007248,199.68000412 L 173.210007668,187.120002747 L 167.890007496,105.450000763 L 151.430006981,107.960002899 L 152.900007248,199.68000412 z" fill="#dddddc" /><path d="M 235.759994507,203.289999485 L 247.650993824,219.469999313 L 270.539993286,180.329999924 L 253.629993886,175.309999466 L 235.759994507,203.289999485 z" fill="#dddddc" /><path d="M 391.089988708,136.310007095 L 296.699989319,136.310007095 L 296.699989319,153.140006542 L 359.849988937,155.360006332 L 391.089988708,153.140006542 L 391.089988708,136.310007095 z" fill="#308fa6" /><path d="M 391.089988708,166.469995022 L 349.619988918,168.349995136 L 296.699989319,166.469995022 L 296.699989319,153.139995098 L 391.089988708,153.139995098 L 391.089988708,166.469995022 z" fill="#5ec0d9" /><path d="M 391.089988708,166.470005512 L 296.699989319,166.470005512 L 296.699989319,179.800005436 L 345.579988956,181.010005474 L 391.089988708,179.800005436 L 391.089988708,166.470005512 z" fill="#399fb9" /><path d="M 391.089988708,186.459993839 L 344.369989008,186.999993801 L 296.699989319,186.459993839 L 296.699989319,179.799993992 L 391.089988708,179.799993992 L 391.089988708,186.459993839 z" fill="#5ec0d9" /><path d="M 391.089988708,186.459995747 L 296.699989319,186.459995747 L 296.699989319,192.989995718 L 348.40998888,193.999995708 L 391.089988708,192.989995718 L 391.089988708,186.459995747 z" fill="#308fa6" /><path d="M 391.089988708,199.660000086 L 346.1799891,201.010000229 L 296.699989319,199.660000086 L 296.699989319,192.989999771 L 391.089988708,192.989999771 L 391.089988708,199.660000086 z" fill="#5ec0d9" /><path d="M 398.089988708,199.660005569 L 289.699989319,199.660005569 L 289.699989319,206.320005417 L 398.089988708,206.320005417 L 398.089988708,199.660005569 z" fill="#27788b" /><path d="M 315.5499897,136.310005665 L 296.63999176,136.310005665 L 306.129989624,145.670005322 L 315.5499897,136.310005665 L 334.400990486,136.310005665 L 343.829990234,145.670005322 L 353.320990562,136.310005665 L 372.16999054,136.310005665 L 381.659988403,145.670005322 L 391.089988708,136.310005665 L 372.16999054,136.310005665 L 362.749990463,145.670005322 L 353.320990562,136.310005665 L 334.400990486,136.310005665 L 324.909990311,145.670005322 L 315.5499897,136.310005665 z" fill="#5ec0d9" /><path d="M 386.371005058,104.060001221 L 381.600004883,98.2240014076 L 376.795004845,104.060001221 L 381.600004883,111.060001373 L 386.371005058,104.060001221 z" fill="#e4c728" /><path d="M 367.251513481,104.060001221 L 362.611013427,98.2240014076 L 357.745013237,104.060001221 L 362.611013427,111.060001373 L 367.251513481,104.060001221 z" fill="#e4c728" /><path d="M 329.550997734,104.060001221 L 324.780997559,98.2240014076 L 319.97499752,104.060001221 L 324.780997559,111.060001373 L 329.550997734,104.060001221 z" fill="#e4c728" /><path d="M 310.432005882,104.060001221 L 305.790006101,98.2240014076 L 300.924005985,104.060001221 L 305.790006101,111.060001373 L 310.432005882,104.060001221 z" fill="#e4c728" /><path d="M 384.290004969,108.569997787 L 378.970004797,108.569997787 L 378.970004797,136.90999794 L 384.290004969,136.90999794 L 384.290004969,108.569997787 z" fill="#308fa6" /><path d="M 327.469997644,108.569997787 L 322.150997639,108.569997787 L 322.150997639,136.90999794 L 327.469997644,136.90999794 L 327.469997644,108.569997787 z" fill="#308fa6" /><path d="M 365.170013428,108.569997787 L 359.920013428,108.569997787 L 359.920013428,136.90999794 L 365.170013428,136.90999794 L 365.170013428,108.569997787 z" fill="#308fa6" /><path d="M 308.350006104,108.569997787 L 303.100006104,108.569997787 L 303.100006104,136.90999794 L 308.350006104,136.90999794 L 308.350006104,108.569997787 z" fill="#308fa6" /><path d="M 354.869989395,125.470005512 L 332.919988632,125.470005512 L 343.829989016,136.510005474 L 354.869989395,125.470005512 z" fill="#27788b" /><path d="M 354.869989395,125.470000744 L 343.829989016,114.500000477 L 332.919988632,125.470000744 L 354.869989395,125.470000744 z" fill="#5ec0d9" /><path d="M 169.589996338,228.250006676 L 187.089996338,234.680006742 L 178.229996338,239.920006752 L 169.589996338,228.250006676 z" fill="#c3977a" /><path d="M 204.810005426,224.268989563 L 223.429005623,232.088989258 L 253.260005951,281.93999052 L 169.220005035,329.348991394 L 162.720005035,317.758991241 L 235.760005951,276.329990476 L 204.810005426,224.268989563 z" fill="#27788b" /><path d="M 218.030003309,235.268997192 L 223.429003716,232.088997126 L 204.809002876,224.268997192 L 209.250003338,231.649997234 L 213.380003273,234.748997211 L 218.030003309,235.268997192 z" fill="#27788b" /><path d="M 209.250003815,231.650005341 L 218.030002594,235.269006729 L 244.100002289,279.799005508 L 237.530002594,279.13000679 L 235.76000309,276.330005646 L 220.250002861,254.911006093 L 209.250003815,231.650005341 z" fill="#dddddc" /><path d="M 235.760002136,276.329998016 L 244.100002289,279.799999237 L 170.330001831,321.229999542 L 162.720005035,317.759998322 L 203.340003662,291.469998837 L 235.760002136,276.329998016 z" fill="#c4c4c4" /><path d="M 204.810001373,224.269004822 L 125.209999084,271.090004921 L 152.241001129,323.741004944 L 235.760002136,276.331004858 L 204.810001373,224.269004822 z" fill="#399fb9" /><path d="M 180.299993515,272.049005032 L 153.939992905,277.509005547 L 139.309991837,262.80900526 L 149.729992867,256.389004707 L 180.299993515,272.049005032 z" fill="#27788b" /><path d="M 169.589993954,228.250005722 L 153.269993782,234.750004768 L 143.969993591,242.950005054 L 155.489994049,269.760004044 L 171.879993916,262.520005226 L 186.579994202,251.290004969 L 169.589993954,228.250005722 z" fill="#dfbca4" /><path d="M 186.580003738,251.290013313 L 180.300004005,272.050013542 L 155.490003586,269.76001358 L 186.580003738,251.290013313 z" fill="#8a6651" /><path d="M 84.7400016785,219.990002394 L 143.970001221,242.95000267 L 169.590000153,228.250002384 L 152.900001526,199.680002213 L 84.7400016785,219.990002394 z" fill="#50a9aa" /><path d="M 282.129996827,92.3799962997 C 279.816996813,92.3299965858 277.900996685,94.164996624 277.849997044,96.4779965281 C 277.848996639,96.5389965177 277.848996639,96.59899652 277.849997044,96.6599965245 C 277.734996796,99.0259964466 279.561996937,101.037996292 281.927996829,101.151996613 C 284.294996738,101.265996456 286.305996895,99.4409964085 286.419996738,97.0739965141 C 286.426996708,96.9359965175 286.426996708,96.797996521 286.419996738,96.6599965245 C 286.470996857,94.3469965458 284.635996819,92.4299964905 282.321996823,92.3799962997 C 282.257996827,92.3789963722 282.193996824,92.3789963722 282.129996827,92.3799962997 z" fill="#2b2b2b" /><path d="M 251.340006225,83.999997139 C 248.954006195,83.9889969826 247.010006428,85.9139969349 246.999006271,88.2999970093 L 246.999006271,88.3099970092 C 246.998006344,90.6959969997 248.932006121,92.6309971809 251.318006225,92.6319971085 C 253.703006268,92.632997036 255.63800621,90.6999969482 255.639006138,88.3139970093 L 255.639006138,88.3099970092 C 255.64500618,85.9349970818 253.724006176,84.0049967766 251.349006226,83.999997139 L 251.340006225,83.999997139 z" fill="#2b2b2b" /></svg>