<?xml version='1.0' encoding='utf-8'?>
<svg xmlns="http://www.w3.org/2000/svg" width="400.0" height="400.0" viewBox="0 0 400.0 400.0"><path d="M 89.5979995728,392.994995117 L 207.683999062,379.489995003 L 304.404998779,390.745995164 L 205.360999107,399.999995232 L 89.5979995728,392.994995117 z" opacity="0.1" /><path d="M 186.227996826,328.212018967 L 213.067996979,317.400018692 L 229.713996887,281.776018143 L 176.325996399,295.256018639 L 186.227996826,328.212018967 z" fill="#856300" /><path d="M 222.342987061,160.745012283 L 267.400985718,208.098012924 L 263.084985733,217.068012238 L 237.262986183,207.149013519 L 223.013986588,194.979012966 L 224.606987,174.217013359 L 222.342987061,160.745012283 z" fill="#dfbca4" /><path d="M 237.262994766,207.150006294 L 287.625995636,194.980006218 L 291.697994232,198.70600605 L 292.616994858,209.461006224 L 261.000994921,224.663005829 L 237.262994766,207.150006294 z" fill="#c3977a" /><path d="M 292.589993477,196.93001318 L 305.158993244,185.492012978 L 310.401993752,194.352013111 L 306.296993256,208.200013161 L 292.614993572,209.459012985 L 290.399992943,203.030013084 L 292.589993477,196.93001318 z" fill="#8a6651" /><path d="M 319.77798748,220.194007874 L 312.237987518,223.182006836 L 304.060987473,202.5610075 L 302.522987366,197.616007566 L 297.603987694,186.272007942 L 293.267987251,175.338006973 L 300.805987358,172.347007751 L 305.056987405,183.069007874 L 310.116987467,197.37500757 L 312.900987148,202.850007534 L 319.77798748,220.194007874 z" fill="#9e7700" /><path d="M 315.214996338,208.685007095 L 306.297996759,208.201005936 L 293.268997192,175.336006165 L 300.806996822,172.347005844 L 315.214996338,208.685007095 z" fill="#755700" /><path d="M 304.528985977,181.733001709 L 313.356986046,180.161002159 L 321.132986069,199.190001965 L 309.812986135,206.249001503 L 304.702985764,196.000001907 L 304.528985977,181.733001709 z" fill="#c3977a" /><path d="M 287.625988007,194.980003834 L 290.399988174,203.030003548 L 297.938988209,198.791003704 L 299.821988225,192.461003788 L 305.751988411,198.103003979 L 310.277988434,196.625003815 L 304.527988434,181.734004021 L 297.122988224,185.056003571 L 287.625988007,194.980003834 z" fill="#dfbca4" /><path d="M 308.688994408,172.449007511 L 297.37399435,174.786007404 L 287.597994328,180.8110075 L 276.472993851,171.739007473 L 292.054994464,163.409007549 L 310.574995041,158.217007637 L 308.688994408,172.449007511 z" fill="#ccac13" /><path d="M 310.574987411,158.217010736 L 276.471986771,171.739010811 L 274.138986588,165.856010675 L 290.651986957,157.15801096 L 308.242986679,152.333010674 L 310.574987411,158.217010736 z" fill="#9e7700" /><path d="M 308.24398613,152.333008051 L 274.139986038,165.855008125 L 271.805986404,159.971008062 L 287.85198617,151.457007885 L 305.909986496,146.449007988 L 308.24398613,152.333008051 z" fill="#e4c728" /><path d="M 305.909986496,146.448013544 L 271.805986404,159.970013618 L 269.471986771,154.086013556 L 285.983986616,145.388013363 L 303.577986717,140.564013481 L 305.909986496,146.448013544 z" fill="#9e7700" /><path d="M 292.449986458,131.493001938 L 282.375986099,137.639001369 L 271.359986305,139.85500145 L 269.471986771,154.086001396 L 303.577985764,140.56400156 L 292.449986458,131.493001938 z" fill="#ccac13" /><path d="M 287.598989487,180.811004162 L 293.523989677,164.978004456 L 308.688989639,172.449004263 L 287.598989487,180.811004162 z" fill="#9e7700" /><path d="M 271.360991478,139.855011851 L 286.523991108,147.32501173 L 292.448990822,131.493011951 L 271.360991478,139.855011851 z" fill="#9e7700" /><path d="M 187.658002853,392.996017456 L 153.415002823,392.276017189 L 151.946001053,382.052017212 L 168.211001992,382.052017212 L 187.658002853,392.996017456 z" fill="#755700" /><path d="M 168.476998091,354.742010117 L 166.8419981,368.635010481 L 188.962997437,388.716011047 L 183.884998322,390.44201088 L 163.445998192,385.552010536 L 155.210997581,379.690010548 L 153.432998657,370.75001049 L 168.476998091,354.742010117 z" fill="#dfbca4" /><path d="M 153.433998108,370.750016212 L 163.445998192,385.552016258 L 193.505998611,387.731016159 L 187.658997536,392.996016502 L 151.945997238,382.052016363 L 153.433998108,370.750016212 z" fill="#c3977a" /><path d="M 178.326001704,379.059000015 L 172.72600174,388.419000149 L 177.323001709,389.829000473 L 181.990001678,382.385000229 L 178.326001704,379.059000015 z" fill="#9e7700" /><path d="M 177.322998047,346.781005621 L 166.842998385,368.635005951 L 153.432998657,370.751005173 L 157.506998539,339.781005859 L 162.710998297,330.674005508 L 177.322998047,346.781005621 z" fill="#c3977a" /><path d="M 157.728004456,339.691020012 L 177.323004246,346.78001976 L 186.228004456,328.21201992 L 169.140004396,323.147019386 L 157.728004456,339.691020012 z" fill="#8a6651" /><path d="M 165.388996124,170.327005386 L 136.981995583,209.995004654 L 146.962995529,216.515005112 L 166.32699585,209.995004654 L 168.477995872,181.095005035 L 165.388996124,170.327005386 z" fill="#dfbca4" /><path d="M 166.326993942,209.99400305 L 113.405994415,194.272003174 L 109.138994217,197.771002769 L 107.636995316,208.460003018 L 142.374994755,225.577003479 L 166.326993942,209.99400305 z" fill="#c3977a" /><path d="M 235.791005135,368.163993835 L 205.189005852,350.730993748 L 209.577005386,341.247993469 L 224.791005611,354.469993651 L 235.791005135,368.163993835 z" fill="#755700" /><path d="M 229.367994308,332.967007637 L 238.674994469,364.742008209 L 234.458993912,363.734006882 L 229.611994267,361.233007431 L 216.306994438,348.157007217 L 213.956994057,340.24700737 L 217.211994171,333.739006996 L 223.013994217,323.148006439 L 229.367994308,332.967007637 z" fill="#dfbca4" /><path d="M 217.212004662,333.739995956 L 216.308004379,348.158995867 L 243.239004135,365.624996185 L 235.791005135,368.163995743 L 209.578004837,341.248995781 L 217.212004662,333.739995956 z" fill="#c3977a" /><path d="M 234.323007584,349.888004303 L 224.487007618,356.556004405 L 227.447007656,359.596004486 L 235.735007763,354.706004396 L 234.323007584,349.888004303 z" fill="#9e7700" /><path d="M 235.864003181,282.826007843 L 229.368003368,332.967008591 L 217.212003231,333.73900795 L 213.068003654,317.399008751 L 224.011003405,280.704008102 L 235.864003181,282.826007843 z" fill="#c3977a" /><path d="M 210.162000656,305.945001602 L 213.068000793,317.401002884 L 235.86400032,282.828001976 L 217.848000526,275.953001022 L 210.162000656,305.945001602 z" fill="#8a6651" /><path d="M 165.218990326,169.788007736 L 222.342990875,160.746007919 L 204.494990349,189.61400795 L 165.218990326,169.788007736 z" fill="#dfbca4" /><path d="M 165.218990326,169.787006378 L 166.325990677,209.995006561 L 193.742990494,196.703006268 L 204.260990143,185.405006409 L 165.218990326,169.787006378 z" fill="#9e7700" /><path d="M 204.261001587,185.405013323 L 222.343001008,160.746013641 L 237.263000488,207.15001297 L 213.266001225,200.015012741 L 204.261001587,185.405013323 z" fill="#9e7700" /><path d="M 166.326992035,209.995002747 L 167.148990631,235.847002506 L 204.367990494,271.725002289 L 237.262989044,207.150001526 L 204.26099062,185.405002594 L 166.326992035,209.995002747 z" fill="#755700" /><path d="M 169.802995682,248.988018036 L 235.864994049,282.829017162 L 184.74099493,328.810016632 L 172.741994858,326.795017242 L 143.374996185,264.336017609 L 169.802995682,248.988018036 z" fill="#e4c728" /><path d="M 143.374994278,264.334007263 L 186.22899437,328.212007523 L 157.506994247,339.780006409 L 143.374994278,264.334007263 z" fill="#ccac13" /><path d="M 235.864994049,282.828004837 L 143.374996185,264.33500576 L 167.148994446,235.847005844 L 235.864994049,282.828004837 z" fill="#f4d65d" /><path d="M 108.344993591,195.951006964 L 96.414993763,183.847006798 L 90.6989936829,192.408006907 L 94.0429935455,206.459007263 L 107.636993885,208.461007118 L 110.198993683,202.161006927 L 108.344993591,195.951006964 z" fill="#8a6651" /><path d="M 79.9319934845,217.701007843 L 87.2979941368,221.096008301 L 96.5829939842,200.949007988 L 98.3889937401,196.09500806 L 103.91599369,185.036007881 L 108.839994431,174.35200882 L 101.47599411,170.957008362 L 96.648993969,181.431008339 L 90.8189940453,195.441008031 L 87.7419939041,200.758008003 L 79.9319934845,217.701007843 z" fill="#9e7700" /><path d="M 85.1139936447,206.459007263 L 94.0429935455,206.459007263 L 108.839993477,174.35300827 L 101.475993633,170.957008362 L 85.1139936447,206.459007263 z" fill="#755700" /><path d="M 97.249994278,180.127013206 L 88.5189939365,178.07801342 L 79.7199935913,196.655013084 L 90.6409938335,204.318013191 L 96.2999939919,194.36201334 L 97.249994278,180.127013206 z" fill="#c3977a" /><path d="M 113.405994415,194.2730124 L 110.198994637,202.16101265 L 102.900994301,197.516012669 L 101.364994347,191.096012451 L 95.1369943619,196.407012463 L 90.6979942322,194.683012486 L 97.249994278,180.127012253 L 104.463994265,183.84701252 L 113.405994415,194.2730124 z" fill="#dfbca4" /><path d="M 93.5999946594,170.631007195 L 104.770994663,173.579007149 L 114.203994274,180.128006935 L 125.807994843,171.67300725 L 110.699994445,162.509006977 L 92.4899940491,156.318007469 L 93.5999946594,170.631007195 z" fill="#ccac13" /><path d="M 92.4899940491,156.317002296 L 125.806993484,171.672001839 L 128.455993652,165.925002098 L 112.440993905,156.342002392 L 95.1369934082,150.570002556 L 92.4899940491,156.317002296 z" fill="#9e7700" /><path d="M 95.1379947662,150.569001198 L 128.455993652,165.925001144 L 131.105993271,160.176001072 L 115.545994043,150.801001072 L 97.7879943848,144.820000648 L 95.1379947662,150.569001198 z" fill="#e4c728" /><path d="M 97.7889957428,144.819001198 L 131.105995178,160.175001144 L 133.756994247,154.426001072 L 117.741994977,144.844001293 L 100.436994553,139.071001053 L 97.7889957428,144.819001198 z" fill="#9e7700" /><path d="M 112.041992664,130.618002892 L 121.765992641,137.303003311 L 132.644992828,140.114003181 L 133.75699234,154.427002907 L 100.436992645,139.071003199 L 112.041992664,130.618002892 z" fill="#ccac13" /><path d="M 114.204994202,180.127004623 L 109.147994041,163.995004654 L 93.6009941101,170.631004691 L 114.204994202,180.127004623 z" fill="#9e7700" /><path d="M 132.643994331,140.114005685 L 117.095994473,146.749005318 L 112.041995049,130.619006157 L 132.643994331,140.114005685 z" fill="#9e7700" /><path d="M 142.96399498,141.466010094 L 179.439996719,143.292010307 L 179.439996719,112.170010567 L 142.96399498,141.466010094 z" fill="#2b2b2b" /><path d="M 132.383994102,58.6970062256 L 108.35499382,95.1690063477 L 143.944993973,86.3500061035 L 132.383994102,58.6970062256 z" fill="#6e7073" /><path d="M 295.106995583,90.1010088921 L 294.158995628,107.496008873 L 269.824995995,106.396008492 L 275.20599556,78.4160089493 L 295.106995583,90.1010088921 z" fill="#2b2b2b" /><path d="M 287.297998667,52.7640094757 L 305.58399868,83.3480091095 L 285.368998528,89.1180095673 L 277.257998466,83.5810098648 L 274.003998756,59.9370098114 L 287.297998667,52.7640094757 z" fill="#4f5252" /><path d="M 305.584001541,83.3480091095 L 277.258001328,83.5810089111 L 262.884000778,92.1130092144 L 269.825000763,106.396009445 L 305.584001541,83.3480091095 z" fill="#464646" /><path d="M 108.354991913,95.1690051872 L 153.960991859,116.523004532 L 176.552993774,118.930006027 L 177.326992035,92.1300051212 L 165.218992233,71.4400043488 L 108.354991913,95.1690051872 z" fill="#464646" /><path d="M 269.938986897,90.0000076294 L 277.630987167,117.600007057 L 258.888986588,123.918006897 L 262.078986645,114.132007122 L 267.036986828,112.401007175 L 265.057986975,104.984007239 L 263.682986736,99.271007061 L 269.938986897,90.0000076294 z" fill="#856300" /><path d="M 173.803985596,95.7180051804 L 179.480987549,128.399003983 L 189.97498703,158.498004913 L 208.994987488,159.745006561 L 220.1609869,146.443004608 L 253.394987106,156.828006744 L 287.297988892,52.7650032043 L 206.917987823,72.1840057373 L 173.803985596,95.7180051804 z" fill="#dfbca4" /><path d="M 208.476994514,95.2920093536 L 197.824994087,141.195009232 L 220.161994934,146.44301033 L 207.044994354,161.951011658 L 205.79799366,173.214008331 L 181.939993858,167.142009735 L 176.553993225,118.930009842 L 178.491994858,110.832010269 L 173.803993225,95.7190093994 L 200.166994095,74.0000114441 L 208.476994514,95.2920093536 z" fill="#c3977a" /><path d="M 260.665989816,77.1160039902 L 257.288989782,79.7140045166 L 250.346989632,101.118004799 L 265.810989857,87.6720043421 L 271.828989983,82.5690045357 L 260.665989816,77.1160039902 z" fill="#c3977a" /><path d="M 250.21398735,77.3760080338 L 245.086987019,71.6640071869 L 228.499986649,71.2280082703 L 238.595987022,90.1000077724 L 239.892987013,105.938007355 L 250.21398735,77.3760080338 z" fill="#c3977a" /><path d="M 192.895997524,110.351014137 L 176.552997589,118.929014206 L 173.802997589,95.7180144787 L 189.270997524,79.9630146027 L 203.594997406,92.6010146141 L 192.895997524,110.351014137 z" fill="#8a6651" /><path d="M 250.213995814,77.3770084381 L 257.288995743,79.714009285 L 247.942995787,108.535009384 L 239.892995834,105.939008713 L 250.213995814,77.3770084381 z" fill="#e8c9b6" /><path d="M 239.892991543,105.938008547 L 242.490991592,112.170008421 L 247.942991734,108.536008477 L 239.892991543,105.938008547 z" fill="#8a6651" /><path d="M 285.112998962,59.4740047455 L 207.697998047,99.1880054474 L 193.89799881,98.3230056763 L 199.017997742,85.9920053482 L 245.087999344,71.6640057564 L 287.298000336,52.764005661 L 285.112998962,59.4740047455 z" fill="#8a6651" /><path d="M 159.336994171,54.8710050583 L 154.877993584,44.1830043793 L 112.405994415,33.496006012 L 145.380993843,108.068004608 L 166.709993362,89.1170043945 L 169.477993011,73.7870054245 L 159.336994171,54.8710050583 z" fill="#4f5252" /><path d="M 145.381991863,60.4990081787 L 112.405992508,33.4950084686 L 173.803991318,27.2210083008 L 166.371992111,48.786008358 L 145.381991863,60.4990081787 z" fill="#6e7073" /><path d="M 145.380996704,60.5000076294 L 208.206996918,42.8620071411 L 248.630996704,18.8600072861 L 197.049996704,0.00200653076172 L 145.380996704,60.5000076294 z" fill="#4f5252" /><path d="M 264.299993515,69.5860104561 L 271.829993248,82.5700106621 L 260.66599369,77.1170105934 L 264.299993515,69.5860104561 z" fill="#2b2b2b" /><path d="M 213.265987396,109.694005966 L 241.762988091,114.193006516 L 257.749988556,125.664006829 L 231.959987879,142.670007706 L 213.265987396,109.694005966 z" fill="#856300" /><path d="M 225.597987175,122.936006546 L 235.742987633,119.594006538 L 244.585988045,129.75500679 L 237.861987591,134.298007011 L 230.660987377,131.763006687 L 225.597987175,122.936006546 z" fill="#755700" /><path d="M 225.597996712,122.936006784 L 244.585996628,129.75500679 L 251.310996056,125.212006807 L 220.535996437,114.109006882 L 225.597996712,122.936006784 z" fill="#ffffff" /><path d="M 199.677999496,90.4410114288 L 192.895999908,110.351011276 L 165.460000992,101.666011333 L 167.003000259,97.0320112705 L 173.80300045,95.7170114517 L 187.963000298,99.9640113413 L 190.483000278,92.3160114288 L 199.677999496,90.4410114288 z" fill="#856300" /><path d="M 220.161992073,146.443009377 L 190.55999279,136.836009979 L 205.798992425,173.214008331 L 220.161992073,146.443009377 z" fill="#8a6651" /><path d="M 169.478991032,73.7870082855 L 145.381990433,108.069009781 L 199.677991867,90.4420090318 L 169.478991032,73.7870082855 z" fill="#2b2b2b" /><path d="M 108.353996277,95.1680088043 L 176.553993225,118.930008948 L 142.963994741,141.46600914 L 108.353996277,95.1680088043 z" fill="#464646" /><path d="M 267.300994873,92.1130065918 C 267.300994873,94.5520064831 265.322994947,96.5300064087 262.883995056,96.5300064087 C 260.444995165,96.5300064087 258.466995239,94.5520064831 258.466995239,92.1130065918 C 258.466995239,89.6740067005 260.444995165,87.6960067749 262.883995056,87.6960067749 C 265.322994947,87.6960067749 267.300994873,89.6740067005 267.300994873,92.1130065918 z" fill="#2b2b2b" /><path d="M 241.072991371,83.3480072021 C 241.072991371,85.7870070934 239.092991114,87.765007019 236.65399115,87.765007019 C 234.214991093,87.765007019 232.237991333,85.7870070934 232.237991333,83.3480072021 C 232.237991333,80.9090073109 234.214991093,78.9310073853 236.65399115,78.9310073853 C 239.092991114,78.9310073853 241.072991371,80.9090073109 241.072991371,83.3480072021 z" fill="#2b2b2b" /><path d="M 300.390991211,45.6990089417 L 208.47599411,95.2930107117 L 145.380996704,60.5000095367 L 218.722993851,50.7110099792 L 300.390991211,45.6990089417 z" fill="#464646" /><path d="M 300.390991211,45.7000083923 L 271.568992615,9.61000823975 L 145.380996704,60.5000076294 L 300.390991211,45.7000083923 z" fill="#8f8f8f" /></svg>