<?xml version='1.0' encoding='utf-8'?>
<svg xmlns="http://www.w3.org/2000/svg" width="400.0" height="400.0" viewBox="0 0 400.0 400.0"><path d="M 220.609989166,165.489994049 L 249.039989471,206.799994946 L 242.778989315,218.896995544 L 233.279989362,237.249996185 L 233.279989362,224.289995193 L 237.169989347,207.018995285 L 230.399989128,195.069994926 L 220.609989166,165.489994049 z" fill="#8f8f8f" /><path d="M 270.929997444,216.230007172 L 281.150997162,232.719007254 L 269.339997292,237.610007286 L 243.639997482,244.160007477 L 232.919998169,237.250007153 L 231.690998077,228.179007292 L 231.959997177,219.691007614 L 270.929997444,216.230007172 z" fill="#464646" /><path d="M 241.919998169,27.0690002441 L 199.009996951,37.71900177 L 160.42999649,51.8290023804 L 163.599998474,69.529001236 L 173.749996185,90.2690010071 L 169.289997101,90.0490007401 L 166.119995117,95.2990008593 L 161.149997711,86.0190010071 L 157.119995117,81.9890012741 L 150.719997406,85.079000473 L 143.809997559,92.8590009212 L 145.81999588,97.6090009212 L 151.509998322,104.229001045 L 156.619995117,111.71900177 L 177.059997559,157.129001617 L 213.04999733,164.039001465 L 212.759997368,143.169002533 L 216.069997787,129.278999329 L 231.549995422,123.589000702 L 254.589996338,116.899000168 L 252.139995575,73.9190006256 L 241.919998169,27.0690002441 z" fill="#dfbca4" /><path d="M 195.849992752,81.7000007629 L 202.179993153,66.8000006676 L 219.099992752,66.3700008392 L 229.099992752,91.4899997711 L 221.61999321,57.2300014496 L 204.129992962,58.2300014496 L 193.689992905,66.3700008392 L 189.36999321,73.9200006127 L 195.849992752,81.7000007629 z" fill="#c3977a" /><path d="M 247.82099247,54.0599966049 L 236.519992374,62.2699966431 L 235.798992395,77.3799962997 L 225.429992676,53.9099969864 L 247.82099247,54.0599966049 z" fill="#c3977a" /><path d="M 191.819993973,88.6090035439 L 227.589994431,87.5290036201 L 227.159994125,82.4890036583 L 191.819993973,88.6090035439 z" fill="#c3977a" /><path d="M 252.210000992,75.5089993477 L 237.67000103,85.2989993095 L 236.370000839,79.9689993262 L 252.210000992,75.5089993477 z" fill="#c3977a" /><path d="M 171.879991531,48.3700027466 L 187.279991388,61.7600021362 L 191.819991589,88.6100025177 L 194.909991264,128.990001678 L 213.049991608,164.040000916 L 196.419991493,162.530002594 L 177.05999136,157.130001068 L 170.917991638,143.48400116 L 156.619991302,111.720001698 L 167.849990845,105.090001822 L 166.119991302,95.3000020981 L 173.749991417,90.2700014114 L 160.429990768,51.8300018311 L 171.879991531,48.3700027466 z" fill="#c3977a" /><path d="M 156.61999321,111.719996929 L 167.849992752,105.089997292 L 164.469992876,129.059996605 L 156.61999321,111.719996929 z" fill="#8a6651" /><path d="M 254.589992523,116.898994446 L 184.469989777,130.648994446 L 202.690990448,162.028995514 L 207.009990692,164.758995056 L 213.049991131,164.038993835 L 216.069991112,129.27899456 L 254.589992523,116.898994446 z" fill="#8a6651" /><path d="M 193.689993858,52.1900000572 L 205.209993839,58.740000248 L 221.109993935,54.5600001812 L 193.689993858,52.1900000572 z" fill="#2b2b2b" /><path d="M 227.160993099,48.008998394 L 235.509992957,38.6489987373 L 242.558992863,40.1689984798 L 227.160993099,48.008998394 z" fill="#2b2b2b" /><path d="M 221.109989166,54.5599975586 L 229.098988712,91.4899978638 L 238.819988251,90.0499973297 L 229.819988713,53.2699966431 L 221.109989166,54.5599975586 z" fill="#e8c9b6" /><path d="M 229.099998951,91.4900006056 L 234.288999081,96.6700005531 L 238.820999146,90.0500006676 L 229.099998951,91.4900006056 z" fill="#8a6651" /><path d="M 201.529994965,103.15000248 L 223.199995041,103.010002375 L 233.849994659,107.470002413 L 220.178994894,108.120002508 L 211.89999485,107.320002437 L 209.669994354,106.970002413 L 207.008995056,105.310002446 L 201.529994965,103.15000248 z" fill="#27788b" /><path d="M 206.719996452,105.240002394 L 212.119996071,111.140002489 L 233.849995613,107.470002413 L 211.900996208,107.320002437 L 206.719996452,105.240002394 z" fill="#399fb9" /><path d="M 150.929993153,95.588999033 L 155.899993286,90.5489990711 L 161.14999342,98.3989989758 L 150.929993153,95.588999033 z" fill="#8a6651" /><path d="M 201.820995331,0 L 203.120994568,20.3709996939 L 208.730994225,37.1399993896 L 241.920993805,27.0689992905 L 201.820995331,0 z" fill="#464646" /><path d="M 201.820989609,0 L 136.609989166,22.3100008965 L 131.858989716,33.6900010109 L 132.148990631,43.2590007782 L 145.969989777,48.9500007629 L 160.429990768,51.8300018311 L 171.879990578,48.3700008392 L 208.730991364,37.1390008926 L 201.820989609,0 z" fill="#6e7073" /><path d="M 132.149993896,43.2590007782 L 129.409994125,50.1689996719 L 130.129993439,55.4989995956 L 125.019994736,86.0189990997 L 147.619993925,82.4190006256 L 168.279993057,74.5690002441 L 160.429993629,51.8289995193 L 132.149993896,43.2590007782 z" fill="#464646" /><path d="M 125.019994736,86.0200014114 L 168.279994965,74.5700016022 L 173.749994278,90.2700015306 L 166.119995117,95.3000016212 L 157.11999464,81.9900016785 L 143.809994698,92.860001564 L 151.509994507,104.23000145 L 125.019994736,86.0200014114 z" fill="#2b2b2b" /><path d="M 130.05999279,55.6399993896 L 108.609992981,53.6999988556 L 119.399992943,39.5199984908 L 136.609992981,22.3099975586 L 132.149992943,43.2599983215 L 130.05999279,55.6399993896 z" fill="#2b2b2b" /><path d="M 136.609988671,22.3100080797 L 109.830118897,8.34976014823 L 90.8295216541,72.6995820692 L 108.609697463,53.6997482395 L 136.609988671,22.3100080797 z" fill="#6e7073" /><path d="M 177.059995651,157.129005432 L 220.609994888,165.489005089 L 216.149995804,176.139005184 L 206.56999588,188.519004822 L 182.95999527,176.789005041 L 168.349996567,162.389004707 L 177.059995651,157.129005432 z" fill="#464646" /><path d="M 168.349998474,162.388994217 L 153.809997559,169.798994064 L 159.63999939,190.098994762 L 169.219997406,210.688995361 L 177.489997864,213.998994827 L 206.929997444,217.017993927 L 237.169998169,207.017993927 L 220.609998703,165.488994598 L 206.569997787,188.518994808 L 168.349998474,162.388994217 z" fill="#71cacc" /><path d="M 169.219993591,210.690006256 L 237.16999054,207.019006729 L 230.399991989,255.679006577 L 208.299992085,256.901006699 L 181.669992447,252.799007416 L 169.219993591,210.690006256 z" fill="#1c7678" /><path d="M 132.429992676,388.269003659 L 217.439994812,376.32000351 L 297.199996948,389.349003673 L 216.939994812,400.000003815 L 132.429992676,388.269003659 z" fill="#2b2b2b" opacity="0.1" /><path d="M 173.819997787,366.308996201 L 167.40999794,380.208996594 L 172.089997888,392.508996964 L 173.819997787,366.308996201 z" fill="#464646" /><path d="M 192.389995575,372.428995132 L 189.659996033,364.008995056 L 173.81999588,366.308995247 L 172.309995651,383.230995178 L 172.089996338,387.480995178 L 189.949995995,383.230995178 L 193.979995728,376.968995094 L 192.389995575,372.428995132 z" fill="#c3977a" /><path d="M 172.089997292,387.480007648 L 193.979997158,376.969007492 L 200.809996605,387.480007648 L 190.089997053,389.559007645 L 172.089997292,387.480007648 z" fill="#6e7073" /><path d="M 172.089997292,392.508995056 L 200.809996605,392.508995056 L 200.809996605,387.479995012 L 172.089997292,387.479995012 L 172.089997292,392.508995056 z" fill="#464646" /><path d="M 178.569993973,305.559009552 L 173.179994583,367.539009094 L 190.949994087,367.969009399 L 193.97999382,301.749008179 L 178.569993973,305.559009552 z" fill="#1c7678" /><path d="M 235.969997883,386.689998627 L 231.869997978,386.539999008 L 229.209997654,370.268998861 L 233.089997768,359.119998932 L 241.519998074,365.668998718 L 239.360997915,372.138998806 L 235.969997883,386.689998627 z" fill="#464646" /><path d="M 255.919999123,366.679009676 L 251.85999918,358.950009346 L 233.089999199,359.119009972 L 242.519999027,377.61000967 L 244.829999089,380.570010185 L 255.259999275,377.469009876 L 258.32999897,370.579009771 L 255.919999123,366.679009676 z" fill="#c3977a" /><path d="M 244.829993248,381.569994926 L 258.32999298,370.579995155 L 270.889992714,381.569994926 L 257.058992982,383.659995079 L 244.829993248,381.569994926 z" fill="#6e7073" /><path d="M 239.500001907,371.709989071 L 237.200000763,374.15998888 L 236.910001755,379.629989028 L 248.28000164,386.829988956 L 270.890001297,386.829988956 L 270.890001297,381.569988966 L 252.100001574,381.569988966 L 239.500001907,371.709989071 z" fill="#464646" /><path d="M 181.669996262,252.79999733 L 204.269996047,279.789997101 L 218.019995689,288.569997787 L 229.749996185,277.628997326 L 230.399995804,255.679997444 L 181.669996262,252.79999733 z" fill="#71cacc" /><path d="M 181.670993805,252.799003601 L 218.020994186,288.57000351 L 221.981992722,329.599002838 L 190.949993372,367.96900177 L 164.819993973,282.169002533 L 181.670993805,252.799003601 z" fill="#369395" /><path d="M 230.400993586,255.678987503 L 242.420993805,312.61898613 L 232.339993477,306.498987198 L 218.018993378,288.56998682 L 230.400993586,255.678987503 z" fill="#50a9aa" /><path d="M 218.019998312,288.569011688 L 242.419998169,312.619012833 L 251.860998154,358.949012756 L 190.950998306,367.968013763 L 218.019998312,288.569011688 z" fill="#1c7678" /><path d="M 166.20999527,286.700014114 L 169.219995499,296.590013504 L 232.269996643,242.360013962 L 232.919994354,237.250013351 L 175.189994812,264.309013367 L 166.20999527,286.700014114 z" fill="#2b2b2b" opacity="0.2" /><path d="M 291.869990587,218.098993301 L 298.63999033,209.749993324 L 294.249990523,206.730993271 L 288.699990749,210.689993262 L 288.779990673,214.939993382 L 291.869990587,218.098993301 z" fill="#c3977a" /><path d="M 153.80999279,169.798999786 L 119.759992599,224.868999481 L 138.259993076,221.698999405 L 151.359992981,215.729999542 L 169.139993668,210.548999786 L 153.80999279,169.798999786 z" fill="#8f8f8f" /><path d="M 151.439993858,215.730003357 L 160.649993896,247.980003357 L 153.959994316,253.519002914 L 146.469994068,254.090003967 L 119.759994507,224.871004105 L 151.439993858,215.730003357 z" fill="#464646" /><path d="M 132.429992676,269.861003876 L 141.499992371,286.701004028 L 306.629989624,197.371006012 L 297.489990234,180.530006409 L 132.429992676,269.861003876 z M 145.429992676,279.941005707 L 145.429992676,279.941005707 C 144.253990173,280.574005127 142.786994934,280.156005859 142.119987488,279.000003815 C 141.54499054,277.861003876 141.956993103,276.471004486 143.059989929,275.831005096 C 144.234992981,275.186004639 145.708992004,275.605007172 146.369987488,276.770004272 C 146.99899292,277.880004883 146.60899353,279.291004181 145.49899292,279.920005798 C 145.485992432,279.926006317 145.472991943,279.933006287 145.459991455,279.941005707 L 145.429992676,279.941005707 z" fill="#5ec0d9" /><path d="M 300.799995422,186.579998016 L 135.599998474,275.899997711 L 132.430000305,269.859996796 L 297.489997864,180.529994965 L 300.799995422,186.579998016 z" fill="#73cfe4" /><path d="M 141.209995031,272.809004784 L 139.339995146,273.82000494 L 136.029995203,267.839004993 L 138.049995124,266.690004826 L 141.209995031,272.809004784 z" fill="#308fa6" /><path d="M 144.739995718,268.269002676 L 143.879995704,268.709002733 L 141.719995737,264.749002695 L 142.579995751,264.309002638 L 144.739995718,268.269002676 z" fill="#308fa6" /><path d="M 149.349995255,265.749998808 L 148.489995241,266.259998798 L 146.319995284,262.229998827 L 147.189995289,261.79999876 L 149.349995255,265.749998808 z" fill="#308fa6" /><path d="M 153.959995866,263.2390064 L 153.089995861,263.808006287 L 150.929995894,259.780006289 L 151.789995909,259.280006409 L 153.959995866,263.2390064 z" fill="#308fa6" /><path d="M 160.649997473,262.298995256 L 158.779997587,263.378995419 L 155.469997644,257.328995466 L 157.479997575,256.248995304 L 160.649997473,262.298995256 z" fill="#308fa6" /><path d="M 164.249996901,257.769999981 L 163.309996963,258.269999981 L 161.149996996,254.309999943 L 162.019996941,253.730999947 L 164.249996901,257.769999981 z" fill="#308fa6" /><path d="M 173.389997244,252.79900372 L 172.52999723,253.231003761 L 170.369997263,249.26900363 L 171.229997277,248.840003729 L 173.389997244,252.79900372 z" fill="#308fa6" /><path d="M 180.089995146,251.790004253 L 178.209995091,252.800004244 L 174.899995089,246.750004292 L 176.919995129,245.740004301 L 180.089995146,251.790004253 z" fill="#308fa6" /><path d="M 183.679990888,247.258995175 L 182.749990821,247.690995216 L 180.519990802,243.730995059 L 181.519990861,243.299995184 L 183.679990888,247.258995175 z" fill="#308fa6" /><path d="M 188.219994187,244.7390064 L 187.349994183,245.308006287 L 185.189994216,241.20900631 L 186.059994221,240.780006409 L 188.219994187,244.7390064 z" fill="#308fa6" /><path d="M 192.829994798,242.289993882 L 191.959994793,242.789994001 L 189.799994826,238.839993954 L 190.669994831,238.259993792 L 192.829994798,242.289993882 z" fill="#308fa6" /><path d="M 199.589992285,241.280003071 L 197.649992347,242.360002995 L 194.409992456,236.309003115 L 196.279992342,235.240003109 L 199.589992285,241.280003071 z" fill="#308fa6" /><path d="M 203.119992018,236.750000596 L 202.17999208,237.250000715 L 200.019992113,233.290000558 L 200.959992051,232.720000505 L 203.119992018,236.750000596 z" fill="#308fa6" /><path d="M 207.719991446,234.299000025 L 206.860991478,234.730999947 L 204.699991465,230.769999981 L 205.559991479,230.269999981 L 207.719991446,234.299000025 z" fill="#308fa6" /><path d="M 212.259992361,231.779999375 L 211.400992393,232.209999323 L 209.23999238,228.249999404 L 210.099992394,227.819999456 L 212.259992361,231.779999375 z" fill="#308fa6" /><path d="M 219.029997587,230.769004822 L 217.159997582,231.780004978 L 213.83999753,225.730004787 L 215.718997538,224.730004787 L 219.029997587,230.769004822 z" fill="#308fa6" /><path d="M 222.479993582,226.240006089 L 221.619993567,226.670006037 L 219.458993554,222.710006118 L 220.319993615,222.28000617 L 222.479993582,226.240006089 z" fill="#308fa6" /><path d="M 227.16099298,223.789993882 L 226.220992982,224.289994001 L 224.058992982,220.189993858 L 225.000992954,219.759993792 L 227.16099298,223.789993882 z" fill="#308fa6" /><path d="M 231.690000296,221.269004941 L 230.830000281,221.769004822 L 228.669000268,217.81000483 L 229.540000319,217.241004944 L 231.690000296,221.269004941 z" fill="#308fa6" /><path d="M 238.459987402,220.339006901 L 236.589987516,221.339006901 L 233.279987574,215.299006939 L 235.219987512,214.219007015 L 238.459987402,220.339006901 z" fill="#308fa6" /><path d="M 241.919991136,215.730000019 L 241.049991131,216.230000019 L 238.889991164,212.269999981 L 239.759991169,211.769999981 L 241.919991136,215.730000019 z" fill="#308fa6" /><path d="M 246.589990497,213.27999568 L 245.659990549,213.709995747 L 243.499990582,209.749995708 L 244.440990567,209.249995708 L 246.589990497,213.27999568 z" fill="#308fa6" /><path d="M 251.199997902,210.758995175 L 250.189997852,211.190995216 L 248.029997826,207.230995059 L 249.039997876,206.799995184 L 251.199997902,210.758995175 z" fill="#308fa6" /><path d="M 258.179988623,209.609993219 L 256.309988737,210.689993382 L 252.999988794,204.639993191 L 254.86998868,203.639993191 L 258.179988623,209.609993219 z" fill="#308fa6" /><path d="M 261.639997244,205.070006132 L 260.769997239,205.580006123 L 258.619997263,201.549006104 L 259.480997264,201.120006084 L 261.639997244,205.070006132 z" fill="#308fa6" /><path d="M 266.320996642,202.559005499 L 265.380996644,203.129005432 L 263.218996644,199.100005507 L 264.160996616,198.600005388 L 266.320996642,202.559005499 z" fill="#308fa6" /><path d="M 270.929997206,200.180001259 L 269.990997255,200.610001326 L 267.829997301,196.580001235 L 268.690997243,196.080001116 L 270.929997206,200.180001259 z" fill="#308fa6" /><path d="M 277.619991064,199.099995136 L 275.749991179,200.17999506 L 272.439991236,194.129995108 L 274.379991174,193.059995174 L 277.619991064,199.099995136 z" fill="#308fa6" /><path d="M 281.070989966,194.640003085 L 280.209989905,195.070003033 L 278.048989892,191.110002995 L 278.919989944,190.530003071 L 281.070989966,194.640003085 z" fill="#308fa6" /><path d="M 285.749994159,192.119995713 L 284.819994211,192.549995661 L 282.659994245,188.589995742 L 283.589994192,188.159995794 L 285.749994159,192.119995713 z" fill="#308fa6" /><path d="M 290.360998511,189.599995136 L 289.49999845,190.099995136 L 287.338998437,186.069995165 L 288.200998485,185.639995098 L 290.360998511,189.599995136 z" fill="#308fa6" /><path d="M 297.059988737,188.588993549 L 295.179988682,189.59899354 L 291.86998868,183.618993521 L 293.809988737,182.618993521 L 297.059988737,188.588993549 z" fill="#308fa6" /><path d="M 146.469997406,254.09001255 L 156.82999754,278.420012474 L 165.759997606,275.901012421 L 181.149997711,265.249012232 L 160.649997473,247.981012344 L 146.469997406,254.09001255 z" fill="#dfbca4" /><path d="M 181.149997711,265.250005722 L 156.829998016,278.420006037 L 166.209997892,286.700006485 L 181.149997711,265.250005722 z" fill="#8a6651" /><path d="M 291.869989395,218.098996162 L 282.149989367,234.299995899 L 269.339989662,237.609995842 L 265.529989243,230.480995655 L 274.598989487,218.609995842 L 291.869989395,218.098996162 z" fill="#8a6651" /><path d="M 284.599996567,201.190006256 L 269.6299963,211.549006939 L 265.530996323,230.480007172 L 291.870996475,218.099006653 L 284.599996567,201.190006256 z" fill="#dfbca4" /><path d="M 247.000000954,63.0000004265 C 247.017000914,65.0490005016 245.369000912,66.7230005264 243.320000915,66.7400004864 C 241.271000862,66.7560005188 239.597000837,65.1080005169 239.580000877,63.0600004271 C 239.563000917,61.0150003433 241.205000877,59.3420004845 243.250000916,59.3200004101 C 245.299000978,59.2980003357 246.978000879,60.9410004616 247.000000954,62.9900004268 L 247.000000954,63.0000004265 z" fill="#2b2b2b" /><path d="M 213.069993973,71.5490036011 C 213.069993973,73.5760035515 211.425993919,75.2190036774 209.399993896,75.2190036774 C 207.372993946,75.2190036774 205.72999382,73.5760035515 205.72999382,71.5490036011 C 205.72999382,69.5220036507 207.372993946,67.8790035248 209.399993896,67.8790035248 C 211.421993971,67.8900036812 213.057993889,69.5270035267 213.069993973,71.5490036011 z" fill="#2b2b2b" /><path d="M 261.20998764,44.6300029755 L 187.278987885,61.7600026131 L 191.819988251,88.6100025177 L 227.159989327,82.4900026321 L 222.259989262,59.8800029755 L 230.9699893,57.8800029755 L 236.370988846,79.8800029755 L 266.370990753,71.4600028992 L 261.20998764,44.6300029755 z M 193.690990448,66.3700027466 L 217.379989624,61.000002861 L 220.918989182,77.4000024796 L 195.849988937,81.7000026703 L 193.690990448,66.3700027466 z M 239.690989494,73.3700027466 L 235.308989525,57.2900028229 L 256.768989563,51.810002327 L 259.548988342,67.0000027418 L 239.690989494,73.3700027466 z" fill="#308fa6" /></svg>