<?xml version='1.0' encoding='utf-8'?>
<svg xmlns="http://www.w3.org/2000/svg" width="400.0" height="400.0" viewBox="0 0 400.0 400.0"><path d="M 325.500999451,387.022002935 L 201.269001126,376.155002594 L 79.4960021973,391.24700284 L 200.630001068,400.002002716 L 325.500999451,387.022002935 z" opacity="0.1" /><path d="M 76.2449941635,269.143012047 L 85.9569942951,250.41601181 L 90.732994318,241.67701149 L 102.830994606,245.163011551 L 97.8729944229,253.146012306 L 85.8199943304,274.346012115 L 76.2449941635,269.143012047 z" fill="#4f5252" /><path d="M 118.717998505,188.29901886 L 151.256998062,244.301019669 L 126.180998653,252.823020935 L 101.857997894,221.250019908 L 118.717998505,188.29901886 z" fill="#856300" /><path d="M 238.246995926,161.827007294 L 267.672996521,205.849009037 L 263.340995789,226.898008347 L 251.26599586,239.584007263 L 235.900996208,226.465009689 L 232.230995178,189.259009361 L 238.246995926,161.827007294 z" fill="#856300" /><path d="M 267.673991203,205.848017693 L 293.563991547,203.603017807 L 297.570991516,216.801017761 L 293.831991196,232.641017914 L 251.266990662,239.583017349 L 267.673991203,205.848017693 z" fill="#be8f00" /><path d="M 234.702001572,284.067022324 L 239.999000549,325.139022827 L 226.845001221,346.405023575 L 202.999001026,342.425022125 L 179.74600029,304.305023193 L 234.702001572,284.067022324 z" fill="#856300" /><path d="M 202.998989105,342.426029205 L 239.998989105,325.139028549 L 243.983989716,356.051029205 L 231.782989502,367.671030045 L 217.508989334,366.212028503 L 202.998989105,342.426029205 z" fill="#755700" /><path d="M 244.68400234,359.057004929 L 254.27200222,365.007005453 L 270.677001953,379.290005684 L 240.828002214,381.508005142 L 218.644002914,379.290005684 L 217.509002686,366.213005424 L 238.247002125,354.0280056 L 244.68400234,359.057004929 z" fill="#b58a00" /><path d="M 237.243988991,358.63699913 L 247.279988527,367.67099905 L 254.26998806,365.006999016 L 243.983988523,356.050999165 L 239.998988628,354.026998997 L 237.243988991,358.63699913 z" fill="#e4c728" /><path d="M 199.821998596,312.404024839 L 193.161998749,335.487024307 L 172.209998131,346.405025482 L 151.257997513,340.772024155 L 139.29599762,285.671024323 L 183.485998154,298.623023987 L 199.821998596,312.404024839 z" fill="#be8f00" /><path d="M 151.256999969,340.772015572 L 193.160999298,335.488014221 L 184.486000061,365.555015564 L 170.572999597,372.568016052 L 157.18999958,370.59601593 L 151.256999969,340.772015572 z" fill="#856300" /><path d="M 184.486997604,365.556022644 L 193.161998749,385.811021805 L 171.856997728,388.803022385 L 154.595996857,385.811021805 L 157.189998627,370.597022057 L 166.383997917,364.691021919 L 170.944997787,363.505022049 L 175.41699779,363.505022049 L 184.486997604,365.556022644 z" fill="#b58a00" /><path d="M 193.161998749,391.79300189 L 154.595996857,391.79300189 L 154.595996857,385.81000185 L 193.161998749,385.81000185 L 193.161998749,391.79300189 z" fill="#e4c728" /><path d="M 166.384996414,368.780009031 L 167.737996101,378.393009186 L 178.82299614,378.393009186 L 175.175996304,367.215009212 L 170.944996238,366.213008881 L 166.384996414,368.780009031 z" fill="#e4c728" /><path d="M 270.723991394,385.172999859 L 218.644990921,385.172999859 L 218.644990921,379.189999819 L 270.723991394,379.189999819 L 270.723991394,385.172999859 z" fill="#e4c728" /><path d="M 234.701992035,284.067026138 L 199.82099247,312.404026031 L 139.294994354,285.670026302 L 181.266993046,279.852025986 L 201.266992569,267.500026703 L 213.533992767,276.718026161 L 234.701992035,284.067026138 z" fill="#9e7700" /><path d="M 153.589992523,352.502008438 L 188.297992706,352.345007896 L 184.485992432,365.556008339 L 157.189992905,370.597008705 L 153.589992523,352.502008438 z" fill="#9e7700" /><path d="M 166.403996944,368.895004749 L 166.403996944,359.057004929 L 175.745996952,358.116004944 L 175.185997009,367.274004936 L 166.403996944,368.895004749 z" fill="#ccac13" /><path d="M 210.624000549,354.924004674 L 241.936000824,340.160004616 L 243.98400116,356.051004648 L 217.509000778,366.212004662 L 210.624000549,354.924004674 z" fill="#9e7700" /><path d="M 237.244988203,358.638003349 L 235.391988277,348.641003132 L 242.739988327,346.406002998 L 243.983988285,356.051003218 L 237.244988203,358.638003349 z" fill="#ccac13" /><path d="M 228.415000916,168.172008514 L 213.534002304,161.559005737 L 203.315000534,175.57201004 L 195.10900116,195.221008301 L 168.017001152,186.003009796 L 141.20400238,180.112007141 L 128.678001404,194.012008667 L 136.98400116,244.298007965 L 141.20400238,257.23500824 L 139.295001984,285.670009613 L 190.125001431,294.353012085 L 201.268001556,268.933010101 L 214.909999847,291.463008881 L 234.701999664,284.068008423 L 235.900001526,226.465008855 L 228.415000916,168.172008514 z" fill="#e4c728" /><path d="M 133.136997223,157.793019414 L 143.257997155,147.219018936 L 144.806997061,156.896019399 L 150.92899704,167.127019882 L 133.136997223,157.793019414 z" fill="#755700" /><path d="M 202.776991844,135.419008255 L 222.835991859,145.964006424 L 213.534991741,161.559007406 L 195.109992027,195.221006393 L 196.101991653,160.987007141 L 202.776991844,135.419008255 z" fill="#755700" /><path d="M 136.985998631,244.301017761 L 141.20499897,180.113014221 L 118.7169981,188.299015045 L 136.985998631,244.301017761 z" fill="#be8f00" /><path d="M 238.245999336,161.827007294 L 235.899999619,226.465007782 L 213.533999443,161.558010101 L 238.245999336,161.827007294 z" fill="#be8f00" /><path d="M 186.566999435,215.53100729 L 148.062999725,221.660007089 L 148.909000397,226.97100687 L 187.410999298,220.843007088 L 186.566999435,215.53100729 z" fill="#be8f00" /><path d="M 133.968994141,51.7680130005 L 192.171993256,45.6410140991 L 210.080993652,36.9220123291 L 229.63899231,127.171012878 L 202.776992798,135.419013977 L 199.102993011,147.077011108 L 195.339992523,154.723011017 L 170.729992867,168.172012329 L 150.463993073,155.38501358 L 119.685993195,120.259012222 L 107.341991425,101.016012311 L 103.886993408,81.2560119629 L 133.968994141,51.7680130005 z" fill="#dfbca4" /><path d="M 140.626996994,51.0670089722 L 168.173995972,145.511013031 L 202.775997162,135.420012474 L 199.597995758,147.519012451 L 199.888996124,159.455013275 L 195.108997345,195.22101593 L 164.06199646,177.334011078 L 145.279996872,160.161010742 L 127.41799736,132.314012527 L 126.781997681,124.416012406 L 119.687997818,120.261012554 L 134.914997101,108.834012032 L 121.951997757,90.4120140076 L 107.342998505,101.016012192 L 98.1519966125,86.8780136108 L 126.119997025,59.464012146 L 133.969997406,51.7680130005 L 140.626996994,51.0670089722 z" fill="#c3977a" /><path d="M 196.04999733,96.8810157776 L 179.178997278,72.8450164795 L 157.770998001,65.9060163498 L 182.275997162,58.3650169373 L 188.568997383,65.9920167923 L 197.488996506,82.0630164146 L 196.04999733,96.8810157776 z" fill="#c3977a" /><path d="M 197.734989166,63.7970161438 L 198.720989227,56.009016037 L 213.248989105,51.5370159149 L 201.855989218,87.3490161896 L 197.734989166,63.7970161438 z" fill="#c3977a" /><path d="M 134.914994717,108.832014084 L 119.686995029,120.262014419 L 127.415994875,132.310014725 L 134.914994717,108.832014084 z" fill="#8a6651" /><path d="M 191.77299881,79.2240171432 L 163.895998955,102.548016548 L 152.415998459,91.4830168486 L 147.50799942,91.3060168326 L 145.258998871,87.9590167999 L 157.7689991,81.9740171432 L 191.77299881,79.2240171432 z" fill="#8a6651" /><path d="M 201.046002388,77.4720169306 L 220.222002983,83.7180171013 L 219.406002998,79.9580169916 L 215.669002533,73.2480168343 L 201.046002388,77.4720169306 z" fill="#8a6651" /><path d="M 127.764994562,61.9110183716 L 156.089994431,104.083017349 L 141.304994583,117.913017273 L 121.951994419,90.4130178094 L 107.341995239,101.016017914 L 98.1519947052,86.8790178299 L 112.909994125,68.9950180054 L 127.764994562,61.9110183716 z" fill="#856300" /><path d="M 197.734992325,63.7970123291 L 188.56699276,65.9910125732 L 196.048992336,96.8810119629 L 205.210991859,94.6620121002 L 197.734992325,63.7970123291 z" fill="#e8c9b6" /><path d="M 127.029997826,107.345013618 L 121.089997649,97.0770139694 L 112.311997414,103.142013788 L 127.029997826,107.345013618 z" fill="#8a6651" /><path d="M 157.769994736,65.9060144424 L 174.734994888,54.3600149155 L 182.275995255,58.366014719 L 157.769994736,65.9060144424 z" fill="#856300" /><path d="M 198.721000671,56.0080144405 L 205.98500061,48.412014246 L 213.248000622,51.5370143652 L 198.721000671,56.0080144405 z" fill="#856300" /><path d="M 219.740995407,99.6010141373 L 168.136995316,112.089013934 L 187.694995403,121.987013817 L 210.08099556,116.803013802 L 219.740995407,99.6010141373 z" fill="#c3977a" /><path d="M 213.805992126,104.396012783 L 177.553993225,113.128012896 L 188.395992756,119.168013096 L 207.779993057,114.629012823 L 213.805992126,104.396012783 z" fill="#ffffff" /><path d="M 205.210989475,94.6620106697 L 201.270989597,101.188010693 L 196.048989773,96.8810106516 L 205.210989475,94.6620106697 z" fill="#8a6651" /><path d="M 147.509995461,91.3050117493 L 123.574995041,92.7190117836 L 121.951994896,90.4110117555 L 134.731995178,86.877011776 L 145.315995216,88.0410118103 L 147.509995461,91.3050117493 z" fill="#755700" /><path d="M 202.77699852,135.418020248 L 157.532999039,148.614019871 L 199.888998032,159.454019547 L 202.77699852,135.418020248 z" fill="#8a6651" /><path d="M 192.17199707,9.82301330566 L 107.342998505,31.0310125351 L 91.8619995117,56.9510116577 L 145.279998302,36.9220125675 L 192.17199707,9.82301330566 z" fill="#be8f00" /><path d="M 140.627994537,51.0670137405 L 98.1529960632,86.8780136108 L 91.861995697,56.9510135651 L 129.881995201,38.3360137939 L 140.627994537,51.0670137405 z" fill="#9e7700" /><path d="M 140.626996994,51.0670146942 L 129.881996155,46.9360141754 L 129.881996155,38.3360147476 L 192.172998428,9.82301521301 L 194.153999329,28.1380150318 L 192.172998428,45.6400146484 L 140.626996994,51.0670146942 z" fill="#856300" /><path d="M 192.171993256,9.82301425934 L 192.171993256,45.6400146484 L 210.080992699,36.9220142365 L 232.937992096,0.00201416015625 L 192.171993256,9.82301425934 z" fill="#be8f00" /><path d="M 154.470993042,74.1520147324 L 108.520992279,85.228014946 L 107.341991425,101.016015053 L 121.950992584,90.4130148888 L 157.769992828,86.6420149207 L 157.351991653,79.6830148697 L 154.470993042,74.1520147324 z" fill="#464646" /><path d="M 197.733998299,63.7970180511 L 188.566998482,65.9910178185 L 188.08799839,69.8950178623 L 190.505998373,73.9990177155 L 199.647998333,71.6990180016 L 200.638998508,68.3600178957 L 197.733998299,63.7970180511 z" fill="#464646" /><path d="M 226.338996887,56.9520149231 L 232.230998993,81.6930155754 L 201.045998096,77.4730156064 L 197.734997749,63.7970151901 L 226.338996887,56.9520149231 z M 191.772997975,79.223015666 L 161.068996429,99.1300163269 L 154.470996857,74.152015686 L 188.567997932,65.9920158386 L 191.772997975,79.223015666 z" fill="#4f5252" /><path d="M 171.856993675,168.86301899 L 133.136993408,157.794019699 L 141.203992844,180.112019062 L 195.10899353,195.220018387 L 171.856993675,168.86301899 z" fill="#be8f00" /><path d="M 141.203987122,257.235020638 L 195.339988708,233.342020035 L 201.266988754,233.342020035 L 235.391990662,250.878020495 L 201.266988754,267.500020981 L 141.203987122,257.235020638 z" fill="#ccac13" /><path d="M 195.109995365,195.221012115 L 195.339995384,233.342011094 L 201.267995358,268.933010101 L 201.267995358,233.342011094 L 195.109995365,195.221012115 z" fill="#be8f00" /><path d="M 101.856998444,221.251016617 L 150.463996887,253.147017479 L 148.062997818,267.500017166 L 139.89499855,276.741018295 L 85.9580001831,250.41701746 L 101.856998444,221.251016617 z" fill="#be8f00" /><path d="M 150.464995801,253.145999908 L 162.536995888,260.879000187 L 139.894995689,276.741000175 L 150.464995801,253.145999908 z" fill="#dfbca4" /><path d="M 293.562991142,203.602014542 L 308.824991226,202.482014656 L 315.793991089,215.315014839 L 311.247991562,232.686015129 L 293.831991196,232.641015053 L 293.562991142,203.602014542 z" fill="#c3977a" /><path d="M 308.824983597,202.482013702 L 339.7909832,200.705013752 L 339.7909832,207.000013795 L 313.41198349,213.217013836 L 308.824983597,202.482013702 z" fill="#c3977a" /><path d="M 293.562000275,203.603021622 L 305.419000387,183.755022049 L 312.020000458,185.759021759 L 306.964000225,212.207021713 L 293.687000275,217.084022522 L 293.562000275,203.603021622 z" fill="#dfbca4" /><path d="M 324.559994698,210.590015411 L 325.499994278,228.062015533 L 311.247994423,232.686016083 L 306.96399498,212.207015991 L 324.559994698,210.590015411 z" fill="#dfbca4" /><path d="M 71.4279975891,276.71900177 L 142.817996979,304.457002163 L 156.089996338,316.038002014 L 151.256996155,340.773002625 L 65.4649963379,323.240002632 L 53.4519958496,289.952001572 L 71.4279975891,276.71900177 z" fill="#858585" /><path d="M 142.816993713,304.457025528 L 53.4529953003,289.952025414 L 76.2459945679,269.145025253 L 169.302993774,280.676025391 L 162.016994476,297.358025551 L 142.816993713,304.457025528 z" fill="#9da0a1" /><path d="M 167.006998539,284.232013702 L 159.83399868,289.178014755 L 142.817998886,304.457014084 L 151.256999016,340.772014618 L 179.01999855,316.038014174 L 172.220998764,291.291013718 L 167.006998539,284.232013702 z" fill="#6e7073" /><path d="M 141.204995155,180.112010956 L 172.20999527,291.292011261 L 159.834995747,289.178012848 L 132.555995941,183.260009766 L 141.204995155,180.112010956 z" fill="#4f5252" /><path d="M 88.4519948959,304.548025608 L 80.2809951305,305.106025219 L 79.7229952812,309.190025449 L 83.9939951171,312.160025358 L 78.9809951782,314.018025398 L 79.1669950485,316.804025173 L 86.0359950066,315.874025345 L 87.8939950466,311.234025419 L 82.5089951754,307.890025377 L 89.0089950562,307.333025455 L 88.4519948959,304.548025608 z" fill="#dddddc" /><path d="M 98.4769954681,307.705019951 L 91.6059951782,306.405020237 L 89.1929950714,317.546020031 L 92.9069952965,318.661019802 L 92.5339952707,313.460020006 L 97.9209952354,314.20502007 L 98.4769954681,307.705019951 z M 94.7639952898,311.976020038 L 92.5339952707,311.047020078 L 92.9069952965,308.633019924 L 95.1339952946,309.934020042 L 94.7639952898,311.976020038 z" fill="#dddddc" /><path d="M 108.317995548,309.934025288 L 100.889995575,309.004024982 L 99.9619956017,319.40302515 L 107.759995461,319.960025311 L 108.317995548,309.934025288 z M 104.974995553,317.175025225 L 102.1889956,316.431025147 L 102.745995522,312.347025156 L 106.089995623,313.276025176 L 104.974995553,317.175025225 z" fill="#dddddc" /><path d="M 119.503994465,322.466006756 L 117.599994659,317.91700685 L 119.270994663,311.419006824 L 112.401994467,310.119006634 L 109.987994671,321.260006905 L 113.701994538,322.373006821 L 113.329994559,317.175006807 L 116.996994495,322.745007038 L 119.503994465,322.466006756 z M 113.701994538,312.347006798 L 115.929994583,313.64700675 L 115.557994545,315.690006852 L 113.329994559,314.761006832 L 113.701994538,312.347006798 z" fill="#dddddc" /><path d="M 121.592995644,312.440009594 L 131.618995667,312.997009754 L 131.200995445,315.642009735 L 126.744995594,315.364009857 L 126.048995599,323.580009937 L 122.427995682,322.883009911 L 124.516995549,315.503009796 L 120.896995544,314.946009874 L 121.592995644,312.440009594 z" fill="#dddddc" /></svg>