<?xml version='1.0' encoding='utf-8'?>
<svg xmlns="http://www.w3.org/2000/svg" width="400.0" height="400.0" viewBox="0 0 400.0 400.0"><path d="M 253.650995255,92.6219997406 L 225.83899498,97.9919996262 L 227.689994812,111.891999483 L 230.529994965,128.76199913 L 244.58899498,118.971999168 L 253.650995255,92.6219997406 z" fill="#8f8f8f" /><path d="M 222.540000916,79.7919998169 L 230.240001202,100.701999664 L 253.650001526,92.6219997406 L 222.540000916,79.7919998169 z" fill="#dddddc" /><path d="M 233.509988785,146.421999454 L 238.909988403,150.82199955 L 250.32998848,153.151999474 L 260.309988022,131.891999245 L 244.409988403,137.201999187 L 233.509988785,146.421999454 z" fill="#8f8f8f" /><path d="M 244.589996934,118.971998215 L 225.839996338,118.971998215 L 233.509997368,146.421998978 L 260.309997559,131.891998589 L 244.589996934,118.971998215 z" fill="#c4c4c4" /><path d="M 129.119995117,137.20199585 L 106.159995079,143.491996288 L 99.4599952698,161.021996498 L 113.279994845,163.56199646 L 130.919994354,148.601996183 L 129.119995117,137.20199585 z" fill="#c4c4c4" /><path d="M 126.139995575,121.182001114 L 94.2299957275,129.562001228 L 106.159995079,143.49200058 L 127.869995117,147.592000961 L 134.189994812,137.202001095 L 126.139995575,121.182001114 z" fill="#8f8f8f" /><path d="M 126.229996681,98.2120008469 L 119.919996262,99.5720005035 L 115.109996319,93.422000885 L 94.2299957275,129.562000275 L 126.859996796,125.052000999 L 126.229996681,98.2120008469 z" fill="#dddddc" /><path d="M 144.279996872,152.342001438 L 99.4599971771,161.022001624 L 109.089996338,168.152001858 L 147.559995651,161.862001657 L 144.279996872,152.342001438 z" fill="#8f8f8f" /><path d="M 299.419002533,154.111000061 L 307.949002266,146.580999374 L 315.319002151,134.040999413 L 314.77900219,105.39099884 L 297.639002323,122.810999393 L 292.589002609,142.840999603 L 299.419002533,154.111000061 z" fill="#8a6651" /><path d="M 344.519001007,52.9410018921 L 341.879001617,54.891002655 L 330.099001884,75.7410011292 L 325.209001541,82.6610012054 L 326.450001717,96.7010016441 L 315.320001602,104.221001625 L 316.990001678,109.731001854 L 310.099001884,125.751001358 L 303.690002441,129.931001663 L 296.169002533,146.421001434 L 307.950001717,146.581001282 L 320.879001796,109.911001205 L 332.790001869,99.9010015875 L 332.330001831,82.3510017395 L 344.519001007,52.9410018921 z" fill="#35785d" /><path d="M 311.550002098,129.111003876 L 316.989002228,109.731004238 L 315.321002007,104.221004486 L 303.691001892,129.931003571 L 311.550002098,129.111003876 z" fill="#53af8a" /><path d="M 341.879002094,54.8910017014 L 344.519001961,52.9410018921 L 340.089002132,53.281001091 L 325.209002495,82.6610012054 L 331.339002132,79.0710020065 L 341.879002094,54.8910017014 z" fill="#53af8a" /><path d="M 289.190002441,129.930999756 L 293.669001579,114.540999413 L 312.570001602,102.270999908 L 315.320001602,104.221000671 L 311.549001694,112.380999565 L 303.730002046,119.230999708 L 303.690001965,129.930999756 L 300.370002031,137.201000214 L 292.589001656,142.840999603 L 289.190002441,129.930999756 z" fill="#dfbca4" /><path d="M 326.630002975,105.081001282 L 325.210002899,137.251001358 L 307.95000267,146.581001282 L 315.320002794,104.221000671 L 326.630002975,105.081001282 z" fill="#c3977a" /><path d="M 303.04999733,174.111008644 L 284.190996647,135.951007843 L 268.009996414,156.201007843 L 249.989995956,193.741008759 L 303.04999733,174.111008644 z" fill="#738d56" /><path d="M 233.510007858,146.421012878 L 231.210008621,168.51101315 L 255.531008244,188.531013489 L 268.010007858,156.201013565 L 233.510007858,146.421012878 z" fill="#99c26c" /><path d="M 237.200008392,198.071004868 L 271.620008469,203.341003418 L 292.590007782,188.531003952 L 298.33000946,171.181004636 L 255.530008793,188.531003952 L 237.200008392,169.101004601 L 207.86000824,138.781005859 L 237.200008392,198.071004868 z" fill="#5a753c" /><path d="M 289.189995408,129.931007385 L 284.189995289,135.951007843 L 298.329995155,171.181007862 L 271.619995117,203.341007233 L 279.418995857,204.041007996 L 307.479995728,173.151007652 L 289.189995408,129.931007385 z" fill="#35785d" /><path d="M 224.320002079,202.471011162 L 237.200002193,198.071011543 L 230.780002136,185.001011848 L 224.320002079,202.471011162 z" fill="#738d56" /><path d="M 145.250002384,172.401006699 L 135.310002327,170.901006699 L 109.090003967,168.151008606 L 144.100002527,196.401007175 L 146.570002441,204.701007366 L 162.550002098,237.211006165 L 184.040000916,216.25100708 L 145.250002384,172.401006699 z" fill="#738d56" /><path d="M 131.840003967,209.711011887 L 143.410003185,230.011011124 L 155.530003071,235.451011658 L 164.260002136,223.021011353 L 146.570003033,192.201011658 L 131.840003967,209.711011887 z" fill="#446024" /><path d="M 177.539001465,170.888010979 C 192.393001556,186.407011032 207.245001316,201.926010132 222.099000931,217.444011688 C 222.542001724,194.609010696 222.98500061,171.775011063 223.429000854,148.940010071 C 222.679000854,148.437011719 192.17000103,146.280010223 192.17000103,146.280010223 C 189.751001358,148.390010834 186.786001205,151.419010162 184.060001373,155.537010193 C 180.155000687,161.440010071 178.392002106,167.089011192 177.539001465,170.888010979 z" fill="#53af8a" /><path d="M 176.300003529,155.530010223 L 173.09000349,169.100009918 L 143.010002136,182.451010227 L 188.690003872,214.181009293 L 188.970003605,214.57201004 L 219.060005188,204.271009445 L 176.300003529,155.530010223 z" fill="#53af8a" /><path d="M 134.890006065,180.061011314 L 143.010005713,182.451011658 L 178.560005188,169.101011276 L 127.870006561,147.591011047 L 113.280006409,163.561011314 L 134.890006065,180.061011314 z" fill="#71c8a6" /><path d="M 206.170003667,134.861010361 L 206.110003665,134.74101036 L 205.900003657,134.881010361 L 206.170003667,134.861010361 z" fill="#35785d" /><path d="M 185.730003357,209.581007361 L 113.280002594,163.561008453 L 109.090003967,168.151008606 L 184.04000473,216.25100708 L 211.650005341,252.051006317 L 226.700004578,204.28100729 L 185.730003357,209.581007361 z" fill="#35785d" /><path d="M 176.300003052,155.531010628 L 159.68000412,144.171010971 L 129.120004654,137.201010704 L 127.870004654,147.591010571 L 178.560003281,169.101010323 L 176.300003052,155.531010628 z" fill="#35785d" /><path d="M 178.644006729,168.20401001 C 183.818006992,161.118010521 188.990006924,154.031010151 194.164007187,146.945010185 C 192.169006824,141.846010208 190.174006939,136.747010231 188.178007007,131.648010254 C 185.075006962,136.525010109 181.972006798,141.403010368 178.868007183,146.280010223 C 178.793006897,153.588010073 178.719007015,160.896010399 178.644006729,168.20401001 z" fill="#35785d" /><path d="M 64.8299942017,389.239996493 L 163.809995651,399.999996185 L 317.379997253,387.779996514 L 171.699995041,377.109996796 L 64.8299942017,389.239996493 z" fill="#2b2b2b" opacity="0.1" /><path d="M 192.129989624,361.169994712 L 192.129989624,374.839994431 L 209.009989977,369.629994869 L 218.599989891,362.339994699 L 221.739990234,350.029994965 L 192.129989624,361.169994712 z" fill="#35785d" /><path d="M 119.609993935,348.869995117 L 114.53999424,374.909996033 L 129.149994254,374.839995384 L 143.009994507,366.069995403 L 146.119994164,359.518995523 L 119.609993935,348.869995117 z" fill="#35785d" /><path d="M 218.598996639,362.339995384 L 192.128995895,374.839995265 L 192.128995895,381.940995216 L 214.588996649,383.829995155 L 242.159996033,381.940995216 L 218.598996639,362.339995384 z" fill="#53af8a" /><path d="M 192.129997253,381.939995766 L 242.159996033,381.939995766 L 242.159996033,388.699995995 L 192.129997253,388.699995995 L 192.129997253,381.939995766 z" fill="#35785d" /><path d="M 143.009992599,366.06999588 L 149.169992447,385.689995766 L 131.839992404,389.06999588 L 112.079992294,385.689995766 L 114.539993286,374.909995794 L 143.009992599,366.06999588 z" fill="#53af8a" /><path d="M 112.079992294,385.689995766 L 149.169992447,385.689995766 L 149.169992447,392.449995995 L 112.079992294,392.449995995 L 112.079992294,385.689995766 z" fill="#35785d" /><path d="M 242.290000916,198.561012268 L 240.597999573,201.04901123 L 190.650000572,274.481015205 L 164.260000229,223.020015717 L 143.409999847,230.011016846 L 103.879997253,340.081016541 L 157.300001144,372.411018372 L 157.489999771,372.551017761 L 246.090003967,337.671016693 L 242.290000916,198.561012268 z" fill="#738d56" /><path d="M 223.650005341,204.281013489 L 206.170004845,234.811012268 L 197.259004563,226.82201004 L 184.04000473,216.251014709 L 164.259002686,223.021011353 L 158.200004578,364.97000885 L 237.200004578,198.072013855 L 224.320005417,202.471008301 L 223.650005341,204.281013489 z" fill="#99c26c" /><path d="M 158.200007439,364.970015526 L 103.880004883,340.080016136 L 101.480003357,347.651015759 L 157.300006866,372.410015106 L 157.490007401,372.550016403 L 246.300010681,345.880016327 L 246.090003967,337.670015335 L 158.200007439,364.970015526 z" fill="#35785d" /><path d="M 241.478996277,197.277014375 L 219.458000183,197.691014409 C 219.458000183,197.691014409 217.875,226.626014709 217.5,227.001014709 C 217.125,227.376014709 242.125007629,224.501014709 242.125007629,224.501014709 L 241.478996277,197.277014375 z" fill="#728c56" /><path d="M 89.1400055885,259.261013031 L 78.8400058746,271.131012559 L 74.5200061798,276.112012386 L 80.0400056839,281.221012115 L 93.5700054169,262.532012463 L 89.1400055885,259.261013031 z" fill="#c3977a" /><path d="M 78.8400058746,240.100009918 L 65.6600055695,245.081010818 L 60.3000059128,256.702010393 L 67.0900058746,272.631010056 L 74.520005703,276.112010956 L 74.5300056934,276.101011276 L 84.9500055313,265.402010441 L 78.8400058746,240.100009918 z" fill="#dfbca4" /><path d="M 89.6500062943,258.6810112 L 70.1000065804,235.452011108 L 65.6600065231,245.081011295 L 84.950006485,265.402011871 L 89.1400060654,259.261011124 L 89.6500062943,258.6810112 z" fill="#8a6651" /><path d="M 74.5200061798,276.111011982 L 60.3000063896,256.701011658 L 54.8500061035,275.582011938 L 63.8200062513,288.561012268 L 74.5300064087,276.100012064 L 74.5200061798,276.111011982 z" fill="#c3977a" /><path d="M 109.090003014,168.151000977 L 68.6900024414,221.861001968 L 117.410003662,229.281002045 L 136.590003967,182.451002121 L 109.090003014,168.151000977 z" fill="#99c26c" /><path d="M 68.6900024414,221.861002326 L 68.6900024414,221.861002326 L 88.0800037384,260.760002136 L 99.0300037861,256.971000671 L 135.310005188,184.412002563 L 68.6900024414,221.861002326 z" fill="#738d56" /><path d="M 136.590003967,182.451000214 L 88.0800037384,256.701000214 L 105.670004845,255.381000519 L 115.77000463,249.270000458 L 146.570005417,192.201000214 L 136.590003967,182.451000214 z" fill="#5a753c" /><path d="M 84.9500041008,265.402004242 L 111.050004959,256.702003479 L 115.770004272,249.271003723 L 88.0800042152,256.702003479 L 68.6900043488,221.862003326 L 63.7700042725,228.322003365 L 84.9500041008,265.402004242 z" fill="#35785d" /><path d="M 235.490001678,131.252002716 L 218.86000061,34.1520004272 L 191.220002174,12.8619995117 L 173.680002213,27.6920013428 L 137.260002136,25.3020019531 L 130.920001984,31.0720024109 L 144.100002289,56.8020019531 L 166.740001678,150.102005005 L 200.050001144,140.912002563 L 235.490001678,131.252002716 z" fill="#dfbca4" /><path d="M 191.220001221,18.4020009041 L 218.86000061,34.1520004272 L 202.380000915,12.1620006561 L 188.820000648,8.19200134277 L 185.970001221,12.8620004654 L 191.220001221,18.4020009041 z" fill="#ebebeb" /><path d="M 161.610998154,20.7920007706 L 176.650998533,34.1520004272 L 191.220998764,18.4020007849 L 188.820998192,8.19300079346 L 160.950998306,0.0120010375977 L 161.610998154,20.7920007706 z" fill="#dddddc" /><path d="M 134.410997391,20.7920022011 L 134.700998306,24.05200243 L 136.950998306,25.9010019302 L 176.599998474,34.2020015717 L 176.650999069,34.1530017853 L 160.950998306,0.0120029449463 L 134.410997391,20.7920022011 z" fill="#c4c4c4" /><path d="M 147.180000305,42.2220001221 L 137.260000587,25.3019981384 L 120.920000076,53.1319999695 L 129.120000839,62.6119976044 L 130.920000553,87.5619982928 L 123.510000229,79.2419986725 L 118.120000839,87.4119983017 L 109.090000153,90.7519981861 L 116.510000229,112.40199852 L 124.150000572,110.491998672 L 129.120000839,111.491998672 L 126.86000061,125.051998138 L 129.120000839,137.201999664 L 161.61000061,149.821998596 L 167.630001068,150.231998444 L 147.180000305,42.2220001221 z" fill="#c3977a" /><path d="M 124.149999619,110.492003918 L 126.859999657,125.05200386 L 134.079999924,107.822004318 L 124.149999619,110.492003918 z" fill="#8a6651" /><path d="M 115.109999657,93.4220046997 L 127.869999886,101.962004662 L 124.509999752,90.3820047379 L 115.109999657,93.4220046997 z" fill="#8a6651" /><path d="M 183.199998856,145.562003613 L 161.609998703,149.822003841 L 178.01999855,156.202003956 L 183.199998856,145.562003613 z" fill="#8a6651" /><path d="M 104.569999695,44.4520015717 L 118.119998932,87.4120025635 L 122.449998975,85.8620014191 L 131.679999352,91.202003479 L 134.339999199,57.3620016575 L 123.709999084,51.1320018768 L 137.259998322,25.3020019531 L 134.409998894,20.7919998169 L 104.569999695,44.4520015717 z" fill="#8f8f8f" /><path d="M 185.730010986,209.580999732 L 113.280010223,163.561000824 L 109.090011597,168.151000977 L 184.04001236,216.250999451 L 211.65001297,252.050998688 L 226.700012207,204.28099966 L 185.730010986,209.580999732 z" fill="#35785d" opacity="0.99" /><path d="M 195.169996262,100.702003479 L 170.799995422,122.631999969 L 185.729996681,209.582000732 L 213.089996338,234.770999908 L 215.17999649,238.482002258 L 214.230996132,242.172000885 L 211.649996758,252.052001953 L 226.629997253,262.461997986 L 216.639995575,156.202001572 L 202.409996271,102.272003174 L 195.169996262,100.702003479 z" fill="#c4c4c4" /><path d="M 229.499998569,232.260997772 L 242.289999008,198.560998917 L 227.689998627,111.89099884 L 206.539998055,98.2109985352 L 202.40999794,102.270996094 L 226.629998684,262.460998535 L 234.849998474,246.500999451 L 230.639998436,239.660999298 L 228.319998264,236.281997681 L 229.499998569,232.260997772 z" fill="#ebebeb" /><path d="M 230.639997482,239.661995173 L 214.230998039,242.171995163 L 213.089998245,234.77099514 L 229.499998093,232.261995316 L 230.639997482,239.661995173 z" fill="#446024" /><path d="M 213.469999313,114.872002959 L 190.759999275,118.752002716 L 189.75,114.14200294 L 212.449999809,110.272003174 L 213.469999313,114.872002959 z" fill="#8a6651" /><path d="M 226.540992066,79.52200149 L 226.598992065,79.7920015007 L 226.570992065,79.52200149 L 226.540992066,79.52200149 z" fill="#8f8f8f" /><path d="M 159.320993423,64.0420017242 L 195.170993805,100.702001572 L 193.340993881,69.4720015526 L 180.150993347,56.7220020294 L 191.330993652,54.7620010376 L 197.090993881,70.8320016861 L 202.441993713,79.7020015717 L 209.910993576,53.1320018768 L 194.940993309,50.7920017242 L 191.330993652,54.7620010376 L 180.150993347,56.7220020294 L 173.68099308,53.5720024109 L 159.320993423,64.0420017242 z" fill="#c3977a" /><path d="M 172.35099268,49.5720009804 L 173.680992126,53.5720012188 L 159.32099247,64.0420012474 L 157.470993042,59.3620011806 L 172.35099268,49.5720009804 z" fill="#8f8f8f" /><path d="M 193.35099411,46.0120010376 L 194.940993786,50.792001009 L 209.910994053,53.1320009232 L 210.920993805,49.8920009732 L 193.35099411,46.0120010376 z" fill="#8f8f8f" /><path d="M 191.330992937,54.7620010376 L 199.470993042,66.3420000076 L 206.540992737,98.2119998932 L 195.17099309,100.701999664 L 189.010993004,69.232000351 L 180.150993347,56.7220001221 L 191.330992937,54.7620010376 z" fill="#e8c9b6" /><path d="M 206.540991306,98.212002039 L 195.170991421,100.702001929 L 202.880991459,105.392001867 L 206.540991306,98.212002039 z" fill="#8f8f8f" /><path d="M 173.51999855,71.8419971466 C 175.861998558,71.8419971466 177.759998322,73.7399969101 177.759998322,76.0819969177 C 177.759998322,78.4239969254 175.861998558,80.3219966888 173.51999855,80.3219966888 C 171.177998543,80.3219966888 169.279998779,78.4239969254 169.279998779,76.0819969177 C 169.279998779,73.7399969101 171.177998543,71.8419971466 173.51999855,71.8419971466 z" fill="#2b2b2b" /><path d="M 206.539997101,64.3519973755 C 208.881997108,64.3519973755 210.779996872,66.249997139 210.779996872,68.5919971466 C 210.779996872,70.9339971542 208.881997108,72.8319969177 206.539997101,72.8319969177 C 204.197997093,72.8319969177 202.29999733,70.9339971542 202.29999733,68.5919971466 C 202.29999733,66.249997139 204.197997093,64.3519973755 206.539997101,64.3519973755 z" fill="#2b2b2b" /></svg>