<?xml version='1.0' encoding='utf-8'?>
<svg xmlns="http://www.w3.org/2000/svg" width="400.0" height="400.0" viewBox="0 0 400.0 400.0"><path d="M 270.990005493,390.020013452 L 190.10000515,376.590013504 L 91.7700042725,386.890013456 L 167.910004616,400.000013351 L 270.990005493,390.020013452 z" fill="#2b2b2b" opacity="0.1" /><path d="M 246.350003481,122.390003204 L 281.941001892,108.200000763 L 257.880002975,31.7000007629 L 248.510003567,26.9500007629 L 238.930003643,22.3400001526 L 224.380002975,16.7200012207 L 213.43000412,33.1400032043 L 211.201004028,31.9900016785 L 206.741004944,41.2100009918 L 227.840003967,128.940002441 L 246.350003481,122.390003204 z" fill="#dfbca4" /><path d="M 206.810006142,41.3499984741 L 227.840005875,128.939998627 L 224.820006371,132.189998627 L 216.820006102,133.269996643 L 211.200006008,126.279998779 L 207.241005898,116.269996643 L 204.860006332,89.8999974728 L 206.810006142,41.3499984741 z" fill="#c3977a" /><path d="M 206.810004234,41.3510017395 L 227.840003967,128.940002441 L 224.82000351,132.190002441 C 217.827004433,133.137001038 210.833004475,134.084003448 203.840004265,135.031002045 C 195.627004147,109.739002228 187.413003922,84.4470019341 179.200004578,59.154001236 C 188.403004646,53.2200012207 197.607004166,47.2860031128 206.810004234,41.3510017395 z" fill="#c3977a" /><path d="M 246.350003481,122.390003204 L 281.941001892,108.200000763 L 257.880002975,31.7000007629 L 248.510003567,26.9500007629 L 238.930003643,22.3400001526 L 224.380002975,16.7200012207 L 213.43000412,33.1400032043 L 211.201004028,31.9900016785 L 206.741004944,41.2100009918 L 227.840003967,128.940002441 L 246.350003481,122.390003204 z" fill="#dfbca4" /><path d="M 250.53099823,81.1099977493 L 249.308998227,86.3699979782 L 245.558998108,82.6299978495 L 250.53099823,81.1099977493 z" fill="#8a6651" /><path d="M 257.950004578,31.7000007629 L 252.980005264,17.5100003481 L 218.260005951,0 L 216.030006409,16.9300004244 L 224.380005836,16.7200003862 L 238.929005504,22.3400001526 L 248.510005951,26.9500007629 L 257.950004578,31.7000007629 z" fill="#e8ef78" /><path d="M 218.260004044,0 L 168.770004272,16.4300003052 L 155.740005493,51.0799999237 L 151.130004883,60.5900001526 L 165.030004501,55.7600002289 L 178.860004425,51.1499996185 L 192.690004826,46.25 L 206.810005188,41.3500003815 L 213.43000412,33.1400001049 L 224.380004883,16.720000267 L 218.260004044,0 z" fill="#d9e253" /><path d="M 206.809997559,41.3500022888 L 193.04999733,46.1800003052 L 178.859996915,51.1500015259 L 165.029996872,55.7600002289 L 151.129997253,60.5900001526 L 147.089996338,128.369998932 L 189.862997055,138.73500061 L 206.204996109,87.7480006218 L 206.644996643,47.3600006104 L 206.809997559,41.3500022888 z" fill="#b8c645" /><path d="M 216.821006775,133.269997597 L 228.340006828,154.229997635 L 246.349006653,122.389997482 L 227.840006828,128.939997673 L 216.821006775,133.269997597 z" fill="#8a6651" /><path d="M 239.579997063,51.4400005341 L 246.789996862,71.0300006866 L 259.819996834,47.6900005341 L 239.579997063,51.4400005341 z" fill="#c3977a" /><path d="M 234.76000309,52.299996376 L 217.540002823,65.049996376 L 232.160003066,66.9199963212 L 245.560003281,82.6299962997 L 234.76000309,52.299996376 z" fill="#c3977a" /><path d="M 234.759993553,52.2999992371 L 218.619993687,59.4299992323 L 217.53999424,65.0499992371 L 234.759993553,52.2999992371 z" fill="#b8c645" /><path d="M 239.579997063,51.439999342 L 258.23999691,44.6599991322 L 259.819996834,47.6899992228 L 239.579997063,51.439999342 z" fill="#b8c645" /><path d="M 234.760004044,52.3000040054 L 245.559004307,82.6300039291 L 250.530004501,81.1100034714 L 246.845004082,71.1250038147 L 239.579004288,51.4400033951 L 234.760004044,52.3000040054 z" fill="#e8c9b6" /><path d="M 267.030006409,89.5400004387 L 252.400006771,99.7000002861 L 233.389007568,100.200000286 L 253.920006752,105.320000172 L 267.030006409,89.5400004387 z" fill="#99c26c" /><path d="M 267.030006409,89.5400028229 L 261.050006866,91.7000026703 L 252.759006739,93.0700027943 L 247.429006815,94.8700027466 L 241.170006752,98.4700026512 L 233.389007568,100.20000267 L 252.400006771,99.7000026703 L 267.030006409,89.5400028229 z" fill="#5a753c" /><path d="M 155.880003929,208.321001053 L 145.440003991,252.701002121 L 137.710003853,240.661001205 L 138.520003796,230.520001587 L 133.48700428,214.279001236 L 155.880003929,208.321001053 z" fill="#99c26c" /><path d="M 156.489997387,166.630001068 L 133.487997055,214.277999878 L 171.256998062,204.135000229 L 156.489997387,166.630001068 z" fill="#738d56" /><path d="M 145.440003395,252.701014519 L 136.400003076,253.631014824 L 125.660002708,250.551013947 L 138.530003071,230.511013985 L 145.440003395,252.701014519 z" fill="#dfbca4" /><path d="M 136.40000248,253.630999565 L 117.510002613,237.991000175 L 114.340003014,250.370999813 L 122.69000268,255.120999336 L 136.40000248,253.630999565 z" fill="#c3977a" /><path d="M 190.309997559,351.379999161 L 187.440997559,353.513000488 L 175.189997673,362.619999886 L 190.09999752,391.870000839 L 199.679997444,359.949999809 L 190.309997559,351.379999161 z" fill="#dfbca4" /><path d="M 190.100001335,391.869988918 L 207.090001106,391.499989033 L 193.050001144,381.919989109 L 190.100001335,391.869988918 z" fill="#c3977a" /><path d="M 199.680003643,359.950008392 L 186.640003681,354.190008521 L 189.660003662,350.880008698 L 195.801003695,356.439008594 L 199.680003643,359.950008392 z" fill="#8a6651" /><path d="M 129.370001316,295.920008659 L 116.190001011,291.160009384 L 109.060001373,330.420007706 L 138.880001068,304.560008526 L 129.370001316,295.920008659 z" fill="#dfbca4" /><path d="M 117.559999943,323.070014954 L 120.440000057,339.710014343 L 109.059999943,330.42001462 L 117.559999943,323.070014954 z" fill="#c3977a" /><path d="M 129.369999886,295.919987679 L 132.470000029,310.179987907 L 138.880000114,304.559987783 L 132.871000051,299.100987911 L 129.369999886,295.919987679 z" fill="#8a6651" /><path d="M 255.000003051,56.6200013161 C 252.791002989,56.6200013161 251.000002861,58.4110012054 251.000002861,60.6200010986 C 251.000002861,62.8290011883 252.791002989,64.6200010777 255.000003051,64.6200010777 C 257.229002953,64.6260008812 259.050003052,62.8480010033 259.099002838,60.6200010986 C 259.100003242,58.4110012054 257.310003042,56.6210012436 255.101003051,56.6200013161 C 255.066003053,56.6200013161 255.034003051,56.6190009117 255.000003051,56.6200013161 z" fill="#2b2b2b" /><path d="M 228.489994261,66.2000017166 C 226.230994225,66.227001667 224.406994343,68.0520014763 224.379994392,70.3110015877 C 224.427994251,72.5420014858 226.257994175,74.3220014572 228.489994261,74.3110017776 C 230.69899416,74.3110017776 232.489994049,72.5200016499 232.489994049,70.3110015877 C 232.501994133,68.0790016651 230.720994234,66.249001503 228.489994261,66.2000017166 z" fill="#2b2b2b" /><path d="M 155.615005493,167.878995895 L 177.75500679,225.538995743 L 191.08500576,229.639995575 C 205.122005463,228.991996765 229.822006226,230.195995331 229.822006226,230.195995331 L 226.643005371,162.56999588 L 217.236005783,144.689994812 L 177.192005157,142.014995575 L 155.615005493,167.878995895 z" fill="#5a753c" /><path d="M 229.620000839,228.519006729 L 177.630001068,225.041007042 L 180.880001068,233.679006815 L 200.040000439,247.440006256 L 232.090000153,248.879006386 L 231.840000153,246.664007187 L 229.620000839,228.519006729 z" fill="#99c26c" /><path d="M 180.879999161,233.679992676 L 154.939998627,266.959993362 L 188.93999958,272.650993347 L 232.090000153,248.879993439 L 180.879999161,233.679992676 z" fill="#53af8a" /><path d="M 154.939998627,266.960014343 L 170.569999695,290.150014877 L 162.359998703,314.360013962 L 205.009999275,341.15001297 L 232.090000153,248.880016327 L 154.939998627,266.960014343 z" fill="#3e8f6e" /><path d="M 170.570002556,290.149986267 L 129.370002747,295.919988632 C 152.807002068,317.262987614 176.243002892,338.605987549 199.68000412,359.949989319 L 205.010002136,341.149988174 L 170.570002556,290.149986267 z" fill="#35785d" /><path d="M 262.490004063,22.1199996471 L 252.980004311,17.509999752 L 248.300004482,27.0199995041 L 257.950004339,31.6999993324 L 262.490004063,22.1199996471 z" fill="#35785d" /><path d="M 248.509993076,26.9499995708 L 238.929993391,22.3399996758 L 234.320993423,31.8399994373 L 243.980993271,36.5299992561 L 248.509993076,26.9499995708 z" fill="#53af8a" /><path d="M 234.679006577,31.7000017166 L 225.030006647,27.0200018883 L 220.490006924,36.6000015736 L 229.999006748,41.2100014687 L 234.679006577,31.7000017166 z" fill="#35785d" /><path d="M 220.710005283,36.5999991894 L 211.200005531,31.9899992943 L 206.520005703,41.5699989796 L 216.100005388,46.1799988747 L 220.710005283,36.5999991894 z" fill="#53af8a" /><path d="M 206.809999943,41.3499994278 L 197.230000019,36.6699995995 L 192.690000057,46.2499992847 L 202.269999981,50.8599991798 L 206.809999943,41.3499994278 z" fill="#35785d" /><path d="M 193.050001621,46.1800012589 L 183.540001869,41.5000014305 L 178.860002041,51.1500012875 L 188.510001898,55.6900010109 L 193.050001621,46.1800012589 z" fill="#53af8a" /><path d="M 179.21999979,50.8600013256 L 169.569999933,46.2500014305 L 165.03000021,55.7600011826 L 174.609999895,60.4400010109 L 179.21999979,50.8600013256 z" fill="#35785d" /><path d="M 165.320005894,55.689999342 L 155.740006208,51.0799994469 L 151.130006313,60.5899991989 L 160.630006075,65.2699990273 L 165.320005894,55.689999342 z" fill="#53af8a" /><path d="M 230.429006577,212.500006676 L 273.869007111,200.040006638 L 277.980007172,203.790006638 L 279.490007401,208.610006332 L 232.089006424,248.88000679 L 230.429006577,212.500006676 z" fill="#99c26c" /><path d="M 229.015007019,183.965003967 L 232.090007782,248.880004883 L 188.800006866,183.190002441 L 206.661007404,183.950004578 L 229.015007019,183.965003967 z" fill="#738d56" /><path d="M 273.870012283,200.040001869 L 280.710012436,192.980001926 L 289.430012226,199.470001936 L 298.940011978,184.050002098 L 301.530012131,184.050002098 L 297.059012413,204.650001526 L 279.490012169,208.610001564 L 273.870012283,200.040001869 z" fill="#dfbca4" /><path d="M 277.250014305,196.440006018 L 297.060014725,204.650006294 L 300.88001442,195.360006094 L 301.530014992,184.050005913 L 298.940014839,184.050005913 L 292.67001462,191.900006056 L 289.430014648,199.470005989 L 285.320014477,194.570006102 L 280.710014343,192.980006099 L 277.250014305,196.440006018 z" fill="#8a6651" /><path d="M 305.060006142,204.939995766 L 305.350006104,223.519995689 L 301.600006104,223.519995689 L 301.890006065,204.939995766 L 305.060006142,204.939995766 z" fill="#738d56" /><path d="M 303.040000916,168.849993706 L 304.560001373,150.699994087 L 283.380001068,156.389993906 L 295.340001225,168.849993706 L 303.040000916,168.849993706 z" fill="#b8c645" /><path d="M 295.340013504,172.159999385 L 275.380013466,163.009999275 L 268.250013351,181.019999504 L 295.340013504,177.849999428 L 295.340013504,172.159999385 z" fill="#b8c645" /><path d="M 295.340004921,181.019994736 L 272.069005013,186.349995136 L 289.429004908,199.469995499 L 298.940005302,184.049994946 L 295.340004921,184.049994946 L 295.340004921,181.019994736 z" fill="#b8c645" /><path d="M 301.530991554,184.049995422 L 297.059991837,204.650995255 L 315.360991478,204.940995216 L 306.929991484,184.049995422 L 301.530991554,184.049995422 z" fill="#b8c645" /><path d="M 310.611000061,184.049992561 L 324.649999976,202.629992485 L 336.388999939,191.249992676 L 310.611000061,179.729992867 L 310.611000061,184.049992561 z" fill="#b8c645" /><path d="M 310.609996796,177.279996395 L 337.829996109,183.759996414 L 340.56999588,168.419996262 L 310.609996796,173.749996424 L 310.609996796,177.279996395 z" fill="#b8c645" /><path d="M 310.609985352,171.230006218 L 333.798985481,159.050006151 L 318.029985309,149.470005989 L 305.419985771,168.850006104 L 310.609985352,168.850006104 L 310.609985352,171.230006218 z" fill="#b8c645" /><path d="M 310.608999252,184.049996853 L 295.338998795,184.049996853 L 295.338998795,168.849997044 L 310.608999252,168.849997044 L 310.608999252,184.049996853 z" fill="#5a753c" /><path d="M 303.040006101,168.849997044 L 295.340005875,176.489996947 L 303.040006101,184.049996853 L 310.610006332,176.489996947 L 303.040006101,168.849997044 z" fill="#d9e253" /><path d="M 205.5,113.5 L 202,175.5 L 206.5,184.75 L 214.007995605,176 L 210.826004028,124.959999084 L 205.5,113.5 z" fill="#d9e354" /><path d="M 207.240007401,116.270000458 L 228.340007305,154.230000496 L 244.480007172,184.049999237 L 206.660007477,184.700000763 L 207.240007401,116.270000458 z" fill="#d9e253" /><path d="M 199.819000244,74.2700042725 L 155.73900032,168.630001068 L 128.868999481,154.590003967 L 147.089000702,128.370002747 L 202.269001007,50.860004425 L 199.819000244,74.2700042725 z" fill="#d9e253" /><path d="M 199.818992615,74.2699966431 L 185.252991676,105.450996399 L 155.738990784,168.629997253 L 183.372991562,180.799995422 L 188.798992157,183.189994812 L 192.538991928,145.939994812 L 198.958992004,117.559995651 L 199.818992615,74.2699966431 z" fill="#b8c645" /><path d="M 202.270004272,50.8600006104 L 188.800004005,183.190002441 L 206.661004066,184.700004578 L 207.24100399,116.270001888 L 206.74100399,41.2099990845 L 202.270004272,50.8600006104 z" fill="#e8ef78" /><path d="M 206.8799963,69.4400033951 L 199.819996357,74.2700037956 L 198.15999651,91.1300039291 L 207.019996166,85.1500034332 L 206.8799963,69.4400033951 z" fill="#5a753c" /><path d="M 207.019007683,85.1500024796 L 198.160007477,91.1300020218 L 196.939007759,103.370001793 L 207.089007378,97.7500021458 L 207.019007683,85.1500024796 z" fill="#99c26c" /><path d="M 207.090006828,97.750002861 L 196.940006733,103.370002747 L 195.500006676,116.990002632 L 207.170006752,110.500002861 L 207.090006828,97.750002861 z" fill="#5a753c" /><path d="M 207.170001984,110.499996185 L 195.500001907,116.989996433 L 193.990001678,132.039997101 L 207.170001984,124.479996681 L 207.170001984,110.499996185 z" fill="#99c26c" /><path d="M 207.169995785,124.480007172 L 193.989995956,132.040006638 L 192.53999567,145.940006256 L 207.089995861,137.88000679 L 207.169995785,124.480007172 z" fill="#5a753c" /><path d="M 91.3402696302,183.873752902 L 83.8820240772,150.732209524 L 74.1962512169,172.073325501 L 91.3402696302,183.873752902 z" fill="#3e8f6e" /><path d="M 74.1962502435,172.073326677 L 56.2239711386,155.990880752 L 62.7005221992,188.777850976 L 74.1962502435,172.073326677 z" fill="#53af8a" /><path d="M 88.5883463254,189.720713852 L 74.1962510978,172.073332653 L 74.6997805981,180.872938084 L 76.9702065059,187.471662302 L 88.5883463254,189.720713852 z" fill="#738d56" /><path d="M 74.1962514474,172.073325982 L 67.4010700764,193.619504668 L 76.9702066131,187.471655865 L 74.1962514474,172.073325982 z" fill="#99c26c" /><path d="M 333.640173141,31.8655775306 L 318.006689041,4.57642735125 L 314.492502414,28.3513038506 L 333.640173141,31.8655775306 z" fill="#3e8f6e" /><path d="M 314.493487528,28.3513118851 L 293.518009857,18.7504090766 L 307.828086045,47.1326983474 L 314.493487528,28.3513118851 z" fill="#53af8a" /><path d="M 333.236787234,38.7423540843 L 314.492479536,28.351302677 L 317.36448196,36.3792664033 L 322.432364427,41.8282084411 L 333.236787234,38.7423540843 z" fill="#738d56" /><path d="M 314.49350136,28.3513115411 L 313.888401875,50.3843828772 L 322.432386606,41.8282078197 L 314.49350136,28.3513115411 z" fill="#99c26c" /><path d="M 98.8754825592,33.8152122498 L 115.264605045,5.63022422791 L 120.120001793,29.7500009537 L 98.8754825592,33.8152122498 z" fill="#3e8f6e" /><path d="M 120.119997978,29.7500019073 L 143.833414078,22.8344068527 L 127.49487114,50.2278604507 L 120.119997978,29.7500019073 z" fill="#53af8a" /><path d="M 99.2792415619,42.1474556923 L 120.120001793,29.7500009537 L 116.010001659,39.0500006676 L 111.980001688,43.1500005722 L 99.2792415619,42.1474556923 z" fill="#738d56" /><path d="M 120.119998932,29.75 L 119.833101273,54.0468082428 L 111.979999065,43.1499997377 L 120.119998932,29.75 z" fill="#99c26c" /></svg>