<?xml version='1.0' encoding='utf-8'?>
<svg xmlns="http://www.w3.org/2000/svg" width="400.0" height="400.0" viewBox="0 0 400.0 400.0"><path d="M 363.180007935,380.280026853 L 322.63999939,363.91002655 L 147.741001129,359.679027557 L 36.2010040283,383.94002676 L 136.07000351,400.000026703 L 363.180007935,380.280026853 z" opacity="0.1" /><path d="M 281.231003761,348.790032387 L 283.41100359,371.2600317 L 298.840003014,371.200032234 L 299.451003075,350.550031662 L 281.231003761,348.790032387 z" fill="#4f5252" /><path d="M 175.489997864,348.790032387 L 177.679997444,371.2600317 L 193.09999752,371.200032234 L 197.129997253,350.550031662 L 175.489997864,348.790032387 z" fill="#4f5252" /><path d="M 179.409999847,378.269026756 L 182.349999428,346.760026932 L 152.929999352,350.169027328 L 154.679999352,379.78002739 L 179.409999847,378.269026756 z" fill="#858585" /><path d="M 321.79000473,379.78002739 L 322.640004158,350.740027428 L 295.400004387,346.759027481 L 295.920003891,379.78002739 L 321.79000473,379.78002739 z" fill="#858585" /><path d="M 322.63999939,354.151029587 L 322.930000305,339.651028633 L 243.959998608,307.299028397 L 153.879997253,333.050029039 L 154.569999695,354.151029587 L 322.63999939,354.151029587 z" fill="#858585" /><path d="M 314.970001221,339.650028229 L 159.75,334.809027672 L 245.840000153,315.610027313 L 314.970001221,339.650028229 z" fill="#c4c4c4" /><path d="M 247.720001221,331.920032501 L 155.470001221,359.990032196 L 160.979999542,349.231032372 L 204.781001329,333.760032654 L 247.720001221,331.920032501 z" opacity="0.1" /><path d="M 247.719997406,323.930027962 L 247.719997406,331.92002821 L 322.579998016,352.691027641 L 322.92999649,339.651028037 L 247.719997406,323.930027962 z" fill="#2b2b2b" opacity="0.1" /><path d="M 160.980003357,349.231027603 L 247.720005035,331.920027614 L 252.090003967,321.78002739 L 246.330001831,311.349027634 L 163.720005035,320.651027679 L 160.980003357,349.231027603 z" fill="#cececd" /><path d="M 245.839992523,315.610029221 L 163.719993591,320.651029587 L 168.839992523,281.049028397 L 192.809993744,287.06002903 L 242.279994965,299.519029021 L 246.329994202,308.270029068 L 245.839992523,315.610029221 z" fill="#9da0a1" /><path d="M 242.279994965,299.520028353 L 245.839996338,315.611028671 L 278.279994488,319.180028915 L 315.659994125,310.060028076 L 326.739994049,281.050027847 L 242.279994965,299.520028353 z" fill="#c4c4c4" /><path d="M 245.840007782,315.610028267 L 247.72000885,331.920028687 L 345.270008087,342.559028625 L 315.660007477,310.059028625 L 245.840007782,315.610028267 z" fill="#ebebeb" /><path d="M 315.660007477,310.063786507 L 302.500007868,319.834786415 L 282.939800262,312.746446371 L 315.660007477,310.063786507 z" opacity="0.1" /><path d="M 273.689994812,319.18256259 L 258.729994535,326.792562485 L 246.329994202,319.730487823 L 273.689994812,319.18256259 z" opacity="0.1" /><path d="M 235.350002289,309.593868494 L 220.289002419,314.763868332 L 203.249380112,301.988848209 L 235.350002289,309.593868494 z" opacity="0.1" /><path d="M 298.21000576,280.848994255 L 278.305483818,291.723651089 L 299.920005798,302.450993538 L 298.21000576,280.848994255 z" fill="#90759f" /><path d="M 1264.17099476,1482.24895763 L 1247.72099495,1493.95895725 L 1265.8809948,1503.85095692 L 1264.17099476,1482.24895763 z" fill="#90759f" /><path d="M 1012.81099415,1183.63897228 L 996.360994339,1195.3489719 L 1014.52099419,1205.24097157 L 1012.81099415,1183.63897228 z" fill="#90759f" /><path d="M 761.450993538,885.028986931 L 745.000993729,896.738986552 L 763.160993576,906.630986214 L 761.450993538,885.028986931 z" fill="#90759f" /><path d="M 510.090992928,586.419001579 L 493.640993118,598.1290012 L 511.800992966,608.021000862 L 510.090992928,586.419001579 z" fill="#90759f" /><path d="M 258.730992317,287.809016228 L 242.280992508,299.37611115 L 260.440992355,309.411015511 L 258.730992317,287.809016228 z" fill="#90759f" /><path d="M 220.550005913,275.779986382 L 202.241043091,289.593098879 L 222.260005951,297.379986763 L 220.550005913,275.779986382 z" fill="#90759f" /><path d="M 298.209995747,280.850028992 L 302.499995708,280.850028992 L 302.499995708,315.710029602 L 298.209995747,315.710029602 L 298.209995747,280.850028992 z" fill="#785d87" /><path d="M 258.730000019,287.810028076 L 263.019999981,287.810028076 L 263.019999981,322.670028687 L 258.730000019,322.670028687 L 258.730000019,287.810028076 z" fill="#785d87" /><path d="M 220.549992085,275.780029297 L 224.839992046,275.780029297 L 224.839992046,310.640029907 L 220.549992085,310.640029907 L 220.549992085,275.780029297 z" fill="#785d87" /><path d="M 200.371001244,185.499992371 L 218.60900116,239.391990662 L 191.690001488,266.02999115 L 150.391000748,187.024991989 L 180.880001068,171.959991455 L 200.371001244,185.499992371 z" fill="#734d5f" /><path d="M 201.020002365,209.48998642 L 191.770002365,266.279987335 L 230.311002731,250.949987411 L 218.860002995,211.319986343 L 211.37900281,206.079986572 L 201.020002365,209.48998642 z" fill="#95627b" /><path d="M 148.875,335.125 L 136.636993408,341.414001465 L 119.125,336.375 L 121.75,361.75 L 132.121994019,365.209991455 L 142.75,361.375 L 148.875,335.125 z" fill="#543042" /><path d="M 192.810003281,287.059989929 L 136.070001602,309.370988846 L 136.070001602,341.589988708 L 150.080002785,348.480989456 L 169.840002537,331.919988632 L 192.810003281,287.059989929 z" fill="#734d5f" /><path d="M 169.840007782,331.919984818 L 136.070007324,341.589985371 L 132.050006866,365.049985886 L 144.510007381,365.049985886 L 155.47000742,359.989985466 L 169.840007782,331.919984818 z" fill="#532f42" /><path d="M 136.06999588,341.589984894 L 140.649995804,314.869985342 L 121.749996185,297.940984726 L 83.6399974823,281.049983978 L 94.5499973297,336.249984741 L 116.349996567,350.169986725 L 136.06999588,341.589984894 z" fill="#95627b" /><path d="M 192.810005188,287.060007095 L 140.650006056,314.871007919 L 83.640007019,281.050006866 L 144.510005951,281.019006729 L 192.810005188,287.060007095 z" fill="#532f42" /><path d="M 94.5499973297,336.250001907 L 136.069997787,341.59000206 L 132.04999733,365.050002098 L 116.34999752,369.130002975 L 100.809997559,367.930002213 L 94.5499973297,336.250001907 z" fill="#734d5f" /><path d="M 131.130004883,378.268994331 L 150.950004101,380.058994293 L 179.410003662,378.268994331 L 155.470004275,359.989994049 L 132.050004959,365.048994064 L 131.130004883,378.268994331 z" fill="#785d87" /><path d="M 131.130004883,378.269989967 L 179.410003662,378.269989967 L 179.410003662,385.071990013 L 131.130004883,385.071990013 L 131.130004883,378.269989967 z" fill="#584164" /><path d="M 132.050004005,365.050010681 L 141.240003586,385.080011368 L 119.530003662,387.160011292 L 97.8300037384,385.080011368 L 100.810003281,367.930010796 L 132.050004005,365.050010681 z" fill="#90759f" /><path d="M 97.8300037384,385.080010891 L 141.240003586,385.080010891 L 141.240003586,391.880011082 L 97.8300037384,391.880011082 L 97.8300037384,385.080010891 z" fill="#584164" /><path d="M 130.5,154 L 89,175.5 L 109.5,235 L 152,179 L 130.5,154 z" fill="#b3889d" /><path d="M 84.6500024796,258.349998474 L 85.9900016785,249.082996368 L 94.9700012207,186.959997177 L 71.9600021839,173.549995422 L 52.8000030518,225.019996643 L 84.6500024796,258.349998474 z" fill="#734d5f" /><path d="M 52.8000011444,225.02000618 L 87.5800008774,223.960006714 L 91.0300006866,244.661006689 L 84.2800006866,266.710006714 L 52.8000011444,225.02000618 z" fill="#532f42" /><path d="M 143.680000782,195.700006485 L 163.120000839,167.660007477 L 185.690002441,174.850006104 L 191.690002441,266.030006409 L 136.060000658,272.370006561 L 84.2799987793,266.710006714 L 90.6100006104,188.430007935 L 102.529998779,178.980007172 L 108.290000916,163.020008087 L 143.680000782,195.700006485 z" fill="#95627b" /><path d="M 166.100006104,236.649995327 L 172.220005035,266.149993896 L 110.260005951,266.539993286 L 115.690006256,244.659995079 L 127.900005341,210.369995117 L 143.68000555,195.699996948 L 157.360006332,210.369995117 L 166.100006104,236.649995327 z" fill="#734d5f" /><path d="M 143.679999352,195.699995995 L 166.099999428,236.649993896 L 164.899999619,171.559997559 L 143.679999352,195.699995995 z" fill="#b3879d" /><path d="M 146.070000648,219.949999809 L 150.080000401,227.289999962 L 142.730000615,232.300000191 L 137.39000082,224.620000005 L 146.070000648,219.949999809 z" fill="#b3879d" /><path d="M 145.739998817,242.650003433 L 138.399998665,247.320003629 L 144.069998771,254.670003891 L 150.409998894,249.990003705 L 145.739998817,242.650003433 z" fill="#b3879d" /><path d="M 84.2800064087,266.71001339 L 129.260005951,266.420013428 L 144.400006294,270.220013618 L 159.750005722,266.231013298 L 191.690006256,266.030013084 L 192.810005188,287.060013771 L 158.710006714,285.180013657 L 147.310006142,282.930013657 L 129.370006561,283.570013523 L 83.640007019,281.050013542 L 84.2800064087,266.71001339 z" fill="#584164" /><path d="M 159.750004768,266.229986191 L 129.260004997,266.41898632 L 129.370004654,283.569986343 L 158.710004807,285.178986549 L 159.710004807,266.229986191 L 159.750004768,266.229986191 z M 152.080004692,279.048986673 L 135.720005035,279.048986673 L 136.060005188,272.368986607 L 152.420004845,271.69898653 L 152.080004692,279.048986673 z" fill="#b3879d" /><path d="M 143.68000412,195.700004578 L 186.860004425,175.210004807 L 164.900004268,171.560005188 L 143.68000412,195.700004578 z" opacity="0.1" /><path d="M 165.26999855,185.45098877 L 200.939998627,187.340988636 L 197.559998512,175.880988836 L 164.899997711,171.560988903 L 165.26999855,185.45098877 z" fill="#584164" /><path d="M 123.689996719,177.240000606 L 81.3099975586,191.580000877 L 71.9599971771,173.550000668 L 88.3379964828,168.744000435 L 111.699996948,161.890000343 L 123.689996719,177.240000606 z" fill="#584164" /><path d="M 111.70000267,161.889995575 L 115.690002441,244.659992218 L 143.680002213,195.699994087 L 140.232002258,192.054993629 L 112.791002274,163.043994904 L 111.70000267,161.889995575 z" fill="#b3879d" /><path d="M 97.1999988556,113.429998398 L 108.189999104,110.479998589 L 125.989999771,123.969998474 L 114.679999352,134.619998932 L 85.6799983978,137.46999836 L 97.1999988556,113.429998398 z" fill="#584164" /><path d="M 235.349994659,72.5699958801 L 229.860996246,98.6999969482 L 204.910995483,178.67999649 L 164.899996758,171.559997559 L 143.680995941,195.699996948 L 119.329998016,155.749996185 L 129.859996796,112.42999649 L 136.930995941,109.459996223 L 140.990997314,88.969997406 L 139.499996185,58.0999984741 L 174.149996281,40.5899963379 L 206.94099617,59.5499954224 L 213.769996643,41.8699951172 L 235.349994659,72.5699958801 z" fill="#dfbca4" /><path d="M 140.759998798,58.5999984741 L 160.719999313,96.6800022125 L 156.089998245,173.230003357 L 143.679998398,195.700004578 L 111.699998856,161.890003204 L 114.679998398,134.620001316 L 117.349998474,128.75000155 L 117.319998741,122.890001297 L 105.839998245,121.350001335 L 106.01999855,94.4800033569 L 123.399998665,94.4099998474 L 129.859998703,109.920001984 L 135.429998875,110.460000992 L 139.989998817,89.2200012207 L 140.759998798,58.5999984741 z" fill="#c3977a" /><path d="M 110.71999836,100.159999847 L 119.489998102,100.409999847 L 121.619997978,117.729999542 L 110.71999836,100.159999847 z" fill="#8a6651" /><path d="M 164.899997711,171.56000042 L 136.719997406,166.520000458 L 143.679997444,195.700000763 L 164.899997711,171.56000042 z" fill="#8a6651" /><path d="M 117.319998741,122.890005112 L 124.879998684,123.970005035 L 114.679998875,134.620004654 L 117.319998741,122.890005112 z" fill="#8a6651" /><path d="M 233.338998795,72.3199994564 L 240.19899869,61.1699991226 L 254.698998451,51.5799999237 L 229.859998703,98.6999988556 L 233.338998795,72.3199994564 z" fill="#a687b9" /><path d="M 140.759996414,58.6000003815 L 120.479996204,46.7100009918 L 87.4299964905,36.5599994659 L 93.6499958038,85.4600009918 L 121.809996128,89.5500011444 L 144.999996185,89.2200012207 L 140.759996414,58.6000003815 z" fill="#90759f" /><path d="M 233.340005875,72.3200016022 L 213.880005836,48.390001297 L 202.220005035,37.42000103 L 190.280006409,19.3700008392 L 254.700004578,51.5800013542 L 233.340005875,72.3200016022 z" fill="#785d87" /><path d="M 140.759993553,58.6000003815 L 176.149993896,45.8499999046 L 155.779993057,28.5699996948 L 129.219993353,18.2199993134 L 87.4299926758,36.5599998236 L 140.759993553,58.6000003815 z" fill="#785d87" /><path d="M 151.541002274,0 L 129.221004486,18.2209997177 L 176.151002884,45.8509998322 L 209.442001343,65.0699996948 L 213.879001617,48.3899993896 L 190.280002594,19.3710002899 L 151.541002274,0 z" fill="#90759f" /><path d="M 144.999996185,89.2199983597 L 93.6499977112,85.4599990845 L 97.1999969482,113.429998398 L 105.839997292,121.349998474 L 107.149996758,95.609998703 L 123.399996758,96.6799988747 L 127.589997292,113.939998627 L 137.42999649,112.46999836 L 144.999996185,89.2199983597 z" fill="#785d87" /><path d="M 219.280000687,107.220001221 L 160.719999313,96.6800003052 L 176.149999619,112.750001431 L 184.190000057,139.760002136 L 219.280000687,107.220001221 z" fill="#c3977a" /><path d="M 157.359992981,152.25 L 186.088994026,161.900000095 L 206.689994812,159.690000057 L 187.348993778,149.599999905 L 157.359992981,152.25 z" fill="#8a6651" /><path d="M 157.359992981,152.250006199 L 184.188993931,139.760005951 L 196.088994026,142.010005951 L 206.689994812,159.690006256 L 157.359992981,152.250006199 z" fill="#785d87" /><path d="M 192.810002446,102.460000992 L 184.190002441,139.760000229 L 196.090002537,142.010000229 L 202.190002441,104.150001526 L 192.810002446,102.460000992 z" fill="#e8c9b6" /><path d="M 160.721008301,96.6800043583 L 219.281007767,107.220004082 L 221.140007019,99.6400042772 L 164.631008148,92.8200044632 L 160.721008301,96.6800043583 z" fill="#785d87" /><path d="M 196.089999199,141.949998796 L 189.049999356,145.54999876 L 184.18999958,139.759998798 L 196.089999199,141.949998796 z" fill="#584164" /><path d="M 208.669998169,115.51000309 C 211.204998255,115.51000309 213.259998322,117.565003157 213.259998322,120.100003242 C 213.259998322,122.635003328 211.204998255,124.690003395 208.669998169,124.690003395 C 206.134998083,124.690003395 204.079998016,122.635003328 204.079998016,120.100003242 C 204.079998016,117.565003157 206.134998083,115.51000309 208.669998169,115.51000309 z" fill="#2b2b2b" /><path d="M 176.340000153,109.300003052 C 178.875000238,109.300003052 180.930000305,111.355003119 180.930000305,113.890003204 C 180.930000305,116.42500329 178.875000238,118.480003357 176.340000153,118.480003357 C 173.805000067,118.480003357 171.75,116.42500329 171.75,113.890003204 C 171.75,111.355003119 173.805000067,109.300003052 176.340000153,109.300003052 z" fill="#2b2b2b" /><path d="M 205.733665575,197.77675282 L 216.592531339,193.941928973 L 207.979802563,175.109892764 L 200.570061349,174.681142483 L 196.058461222,181.268648009 L 205.733665575,197.77675282 z" fill="#c3987b" /><path d="M 194.090006828,201.699988365 L 200.940006495,209.239988327 L 207.500006437,210.119988441 L 214.310006142,188.539988518 L 194.210006714,191.57998848 L 194.090006828,201.699988365 z" fill="#8a6651" /><path d="M 230.911005974,187.028986931 L 218.781006336,211.070986748 L 200.94100666,209.239987373 L 214.310006261,188.53898716 L 218.781006336,183.628987312 L 230.911005974,187.028986931 z" fill="#c3977a" /><path d="M 191.690006256,176.329987764 L 208.070006847,168.549987793 L 230.910007477,187.029987335 L 214.310006857,188.539987564 L 200.370006561,185.499987602 L 191.690006256,176.329987764 z" fill="#e8c9b6" /><path d="M 214.310007095,188.539987803 L 200.940006912,195.929987907 L 186.460006714,186.569987714 L 191.69000721,176.329987526 L 214.310007095,188.539987803 z" fill="#dfbca4" /></svg>