<?xml version='1.0' encoding='utf-8'?>
<svg xmlns="http://www.w3.org/2000/svg" width="400.0" height="400.0" viewBox="0 0 400.0 400.0"><path d="M 149.080931069,350.390908428 L 263.110939794,351.400786345 L 265.309658674,322.690764674 L 169.140624563,319.481710692 L 149.080931069,350.390908428 z" fill="#8f8f8f" /><path d="M 226.498889272,143.410137735 L 262.228649978,118.949786205 L 294.868706386,124.539465264 L 254.999211501,176.019857024 L 226.498889272,143.410137735 z" fill="#c4c4c4" /><path d="M 294.868721645,124.539465264 L 298.298277888,79.3994302241 L 285.688187825,70.2095537401 L 262.228667264,118.949786205 L 294.868721645,124.539465264 z" fill="#9da0a1" /><path d="M 282.988864898,39.8795822752 L 272.568595338,12.4496844761 L 262.328622355,15.2697849063 L 267.548895581,42.9197346039 L 256.808277325,81.8398408209 L 265.669349494,89.1697535751 L 286.618293091,83.399547033 L 307.558235909,77.6293405793 L 311.419129332,66.7893024444 L 282.988864898,39.8795822752 z" fill="#ebebeb" /><path d="M 307.689134829,67.6893403063 L 292.306991725,53.139490839 L 265.948068122,60.8297506779 L 260.467262594,80.6898052073 L 266.427312182,85.6297471102 L 305.087207163,74.9693659939 L 307.689134829,67.6893403063 z" fill="#785d87" /><path d="M 267.310262002,79.6667384837 L 269.028225707,75.9657214886 L 272.728242706,77.682685217 L 271.011278987,81.3837022022 L 267.310262002,79.6667384837 z" fill="#a687b9" /><path d="M 267.29019703,72.8057334338 L 268.032181372,71.2097261187 L 269.628188688,71.9517104616 L 268.886204345,73.5477177767 L 267.29019703,72.8057334338 z" fill="#a687b9" /><path d="M 273.99623737,77.5516696613 L 274.738221713,75.9556623462 L 276.334229028,76.6976466891 L 275.592244686,78.2936540042 L 273.99623737,77.5516696613 z" fill="#a687b9" /><path d="M 273.988190915,72.3826710217 L 274.729175241,70.7866637165 L 276.326182573,71.5286480495 L 275.58419823,73.1246553646 L 273.988190915,72.3826710217 z" fill="#a687b9" /><path d="M 280.766905713,42.2596041291 L 287.357755295,27.0095394098 L 302.117975587,49.3793940948 L 300.547045531,56.499409435 L 292.288013398,53.2394904535 L 280.766905713,42.2596041291 z" fill="#dfbca4" /><path d="M 270.68786289,39.6997009538 L 281.498026381,56.2995951118 L 292.28799647,53.2394885463 L 287.357738129,27.0095365489 L 270.68786289,39.6997009538 z" fill="#c3977a" /><path d="M 113.879997253,392.31001091 L 226.499993801,400.000011444 L 328.91999054,388.350010991 L 228.659994125,378.710010529 L 113.879997253,392.31001091 z" fill="#2b2b2b" opacity="0.1" /><path d="M 188.590003051,393.369999886 L 194.160003185,384.309000015 L 188.180003047,369.130000114 L 182.940002918,376.889999866 L 184.750003099,393.369999886 L 188.590003051,393.369999886 z" fill="#584164" /><path d="M 202.209992409,368.029990196 L 203.639992714,330.359991074 L 175.219992638,330.359991074 L 188.179992676,369.129990578 L 197.909992218,377.869989395 L 202.209992409,368.029990196 z" fill="#c3977a" /><path d="M 202.410000801,362.72999388 L 184.78000164,358.968993902 L 186.910001278,365.329993963 L 202.410000801,362.72999388 z" fill="#8a6651" /><path d="M 188.180006981,369.130012512 L 202.21000731,368.030012131 L 215.710007668,393.370012283 L 188.590007782,393.370012283 L 188.180006981,369.130012512 z" fill="#785d87" /><path d="M 237.640050779,261.93002765 L 295.780630086,320.879456464 L 251.169791099,235.559895617 L 241.16086053,242.599994996 L 237.640050779,261.93002765 z" fill="#ebebeb" /><path d="M 241.160024178,258.209984172 L 295.780639622,320.879448835 L 263.110940261,351.399770682 L 246.220482069,304.809935615 L 241.160024178,258.209984172 z" fill="#c4c4c4" /><path d="M 220.73937499,192.420201303 L 241.160021794,258.209999431 L 251.169798728,235.559901339 L 254.539283329,183.179869026 L 220.73937499,192.420201303 z" fill="#8f8f8f" /><path d="M 205.43296324,150.152336967 L 226.499423597,196.950130067 L 254.539287144,183.179853768 L 254.9992177,176.019849395 L 226.498896901,143.410129151 L 205.43296324,150.152336967 z" fill="#dddddc" /><path d="M 210.752988857,153.708288202 C 210.752988857,153.708288202 191.466201638,175.356477939 186.459248593,180.029527292 C 191.909333289,188.658473388 197.360417437,197.287420428 202.811502537,205.916366514 C 210.791476379,203.255288713 218.773450086,200.595210344 226.75342346,197.935130086 C 224.020320139,187.412158162 210.752988857,153.708288202 210.752988857,153.708288202 z" fill="#584164" /><path d="M 205.533954854,150.286338659 L 221.234293651,184.745185752 L 200.258104596,165.510391253 L 205.533954854,150.286338659 z" fill="#90759f" /><path d="M 231.379624395,217.350090262 L 226.509423644,196.980138285 L 202.409503128,205.050375062 L 206.299984138,253.911336855 L 206.569986583,254.210333985 L 241.160026086,258.209993709 L 231.379624395,217.350090262 z" fill="#584164" /><path d="M 205.448964755,150.230349276 L 226.569425396,196.970143188 L 232.549394334,193.762084177 L 243.279088374,162.609978194 L 205.448964755,150.230349276 z" fill="#ebebeb" /><path d="M 257.890004873,385.389996529 L 261.010004997,373.410996333 L 256.80000484,365.559996128 L 251.770004988,361.039996147 L 249.000004768,370.360996246 L 253.390004873,385.389996529 L 257.890004873,385.389996529 z" fill="#584164" /><path d="M 264.619997025,358.030014515 L 258.098997116,330.360013962 L 231.249998093,330.360013962 L 251.768997669,361.040014267 L 261.569997787,372.920015335 L 264.619997025,358.030014515 z" fill="#c3977a" /><path d="M 258.100003242,330.359993935 L 237.640003204,324.919993877 L 231.250002861,330.359993935 L 236.621003151,338.379993916 L 258.100003242,330.359993935 z" fill="#8a6651" /><path d="M 251.769994736,361.039991379 L 264.620995045,358.02999115 L 292.719995499,385.38999176 L 266.280994892,385.38999176 L 251.769994736,361.039991379 z" fill="#785d87" /><path d="M 175.220993042,250.589000702 L 218.530992508,247.519001007 L 238.970993042,265.750001907 L 258.098991394,330.361003876 L 165.566993713,330.06300354 L 175.220993042,250.589000702 z" fill="#785d87" /><path d="M 206.290006638,254.18000412 L 258.100008011,330.100002289 L 241.160007477,258.210002899 L 224.360007286,252.720005035 L 206.290006638,254.18000412 z" fill="#90759f" /><path d="M 101.529384781,193.711370171 L 69.6991666631,171.531682991 L 99.4190782266,162.611390546 L 110.589118341,166.68128131 L 101.529384781,193.711370171 z" fill="#95627b" /><path d="M 151.478853831,139.660870971 L 101.529386688,193.711361587 L 96.9686664337,120.441409803 L 151.478853831,139.660870971 z" fill="#532f42" /><path d="M 111.197904854,43.0712670698 L 96.9682612298,79.2514087922 L 66.8286558294,119.301706914 L 76.8479928806,51.9616062826 L 111.197904854,43.0712670698 z" fill="#b3879d" /><path d="M 111.197904854,43.0712670698 L 66.8286558294,119.301706914 L 109.158527866,106.301288588 L 111.197904854,43.0712670698 z" fill="#95627b" /><path d="M 66.8286539221,119.30171049 L 96.9685020803,103.831413007 L 119.708581996,111.881190449 L 140.728705127,124.350983456 L 151.478855738,139.6608786 L 66.8286539221,119.30171049 z" fill="#734d5f" /><path d="M 96.9685030339,103.831413007 L 137.668715695,125.371012586 L 120.328449989,98.4011838534 L 96.9685030339,103.831413007 z" fill="#532f42" /><path d="M 209.207705164,22.3603076331 L 216.437755074,27.4802354403 L 246.218569278,110.369943779 L 213.498712547,124.670266804 L 200.478116495,165.723392486 L 169.138943904,148.250701209 L 129.148469537,100.201095371 L 117.627816737,33.5012079349 L 184.41751711,3.24054875648 L 209.207705164,22.3603076331 z" fill="#dfbca4" /><path d="M 201.3071168,165.512381981 L 204.654010579,154.702351497 L 188.408865345,139.830509658 L 155.188043274,56.3408385935 L 143.027940935,45.9709554701 L 117.628516473,104.631206976 L 137.668721417,125.371009725 L 143.188751682,128.400956109 L 151.478863367,139.660874785 L 169.139042566,157.940699835 L 183.199116388,165.450563657 L 201.3071168,165.512381981 z" fill="#c3977a" /><path d="M 175.218875321,141.480640224 L 204.029004247,154.640356417 L 204.657006081,154.80035104 L 213.498708733,124.670263943 L 175.218875321,141.480640224 z" fill="#8a6651" /><path d="M 143.027929491,45.9709573775 L 179.357801922,33.0106004222 L 190.887676886,20.2304872637 L 184.967475891,0.000545482212612 L 113.877787192,31.6612446728 L 126.487973828,50.5711204702 L 143.027929491,45.9709573775 z" fill="#b3879d" /><path d="M 137.668712357,125.371004718 L 143.588631591,117.140946223 L 151.478853354,139.660869063 L 137.668712357,125.371004718 z" fill="#8a6651" /><path d="M 137.668708066,125.371013539 L 147.228577549,112.060920028 L 125.168332866,87.2311371177 L 117.628504076,104.63121103 L 137.668708066,125.371013539 z" fill="#dfbca4" /><path d="M 127.568437154,96.4411135459 L 136.218541091,107.021028376 L 121.978514661,104.311168423 L 127.568437154,96.4411135459 z" fill="#8a6651" /><path d="M 152.668632848,117.530864395 L 148.328675825,121.890907223 L 139.098585048,112.640998022 L 143.668539827,108.050952913 L 152.668632848,117.530864395 z" fill="#ffffff" /><path d="M 184.967486382,0.000545482109413 L 179.357810505,33.0105989917 L 209.207706118,22.3603062026 L 184.967486382,0.000545482109413 z" fill="#95627b" /><path d="M 125.168342224,87.2311371176 L 143.668547218,108.05095482 L 151.438434841,96.5808790697 L 131.808191265,71.8810718924 L 143.027937121,45.9709611922 L 113.877795775,31.6612484874 L 96.9685049413,103.831413007 L 111.188510619,104.381276171 L 117.628513612,104.631212818 L 125.168342224,87.2311371176 z" fill="#734d5f" /><path d="M 169.139033506,157.940699835 L 193.359336698,188.830460962 C 197.248391205,194.377422636 201.138447071,199.924383823 205.027501588,205.472345722 C 205.447661384,221.708341353 205.868820622,237.943336868 206.28997988,254.180332239 C 195.966968504,253.019434492 185.643957129,251.858536746 175.320946074,250.697639 C 165.073722181,227.944739545 154.826498619,205.1928396 144.579275058,182.440939535 L 169.139033506,157.940699835 z" fill="#dddddc" /><path d="M 169.139031599,157.940696021 L 163.599328334,188.100750368 L 193.359335744,188.830457148 L 184.879193378,174.360540898 L 169.139031599,157.940696021 z" fill="#ebebeb" /><path d="M 231.379624395,217.350090262 L 226.509423644,196.980138285 L 202.409503128,205.050375062 L 206.299984138,253.911336855 L 206.569986583,254.210333985 L 241.160026086,258.209993709 L 231.379624395,217.350090262 z" fill="#584164" /><path d="M 176.889284746,183.770621612 L 173.759428849,198.430652131 L 199.019549389,210.660403299 L 208.00950499,206.170315089 L 192.36132035,187.401468972 L 176.889284746,183.770621612 z" fill="#ebebeb" /><path d="M 169.139033506,157.940696021 L 193.359336698,188.830457148 L 199.019551297,210.660399484 L 206.28997988,254.180326993 L 202.411048582,362.731369096 L 144.580927255,350.390934576 L 181.919914953,247.520567361 L 144.579275058,182.440937628 L 169.139033506,157.940696021 z" fill="#dddddc" /><path d="M 206.289979879,254.180320794 L 144.580927255,350.390930762 L 175.219945017,250.590626291 L 191.829915278,247.520463196 L 206.289979879,254.180320794 z" fill="#c4c4c4" /><path d="M 208.009507193,206.200321498 L 183.199550896,210.661566007 L 164.919718161,227.66174512 L 175.219943915,250.590643457 L 206.28997988,254.180337961 L 208.009507193,206.200321498 z" fill="#8f8f8f" /><path d="M 169.139031599,157.940696021 L 163.599328334,188.100750368 L 193.359335744,188.830457148 L 184.879193378,174.360540898 L 169.139031599,157.940696021 z" fill="#ebebeb" /><path d="M 200.619114557,165.450392051 L 194.35921831,176.020453566 L 186.459258259,180.030531511 L 169.139041136,157.940701743 L 200.619114557,165.450392051 z" fill="#90759f" /><path d="M 200.659113664,165.460390217 L 200.619113604,165.450391336 L 186.459257186,180.030530319 L 193.359343612,188.830461916 L 203.109262018,180.560366497 L 200.659113664,165.460390217 z" fill="#584164" /><path d="M 164.620284181,183.718742261 L 161.490429237,198.378772781 L 186.750548824,210.608523949 L 206.771498877,205.540327154 L 191.785314364,186.790474577 L 164.620284181,183.718742261 z" fill="#ebebeb" /><path d="M 216.97933115,85.760227467 L 213.58839634,92.3902609402 L 205.35937268,89.9703418162 L 216.97933115,85.760227467 z" fill="#8a6651" /><path d="M 164.418075565,60.5907487477 L 170.488064957,59.4706889105 L 174.478016015,54.5006496305 L 183.198016342,54.5005638481 L 171.527988876,51.7406784221 L 164.418075565,60.5907487477 z" fill="#734d5f" /><path d="M 203.057959743,48.8303674467 L 207.728944162,47.2703210764 L 210.847871836,39.9102904984 L 217.587871727,39.9102241941 L 208.557846297,37.3103128831 L 203.057959743,48.8303674467 z" fill="#734d5f" /><path d="M 187.708555088,108.66051766 L 199.72852381,105.440399385 L 210.328555927,108.660295137 L 204.028488449,101.82035696 L 199.998500044,103.020396653 L 197.848480294,101.010417813 L 187.708555088,108.66051766 z" fill="#584164" /><path d="M 188.34855662,108.490514983 L 194.898579059,110.80045061 L 206.568546391,107.520335716 L 199.728526254,105.440402961 L 188.34855662,108.490514983 z" fill="#90759f" /><path d="M 226.138176893,70.960143851 L 214.368258464,79.2502595995 L 211.038203269,73.6802924249 L 226.138176893,70.960143851 z" fill="#c3977a" /><path d="M 173.808367793,89.9706526739 L 203.438319636,85.1603613672 L 203.28823876,76.9003629715 L 173.808367793,89.9706526739 z" fill="#c3977a" /><path d="M 166.89818541,70.9307223576 L 191.828183747,70.7304770627 L 188.758107911,62.9905072541 L 166.89818541,70.9307223576 z" fill="#c3977a" /><path d="M 220.357990408,51.540197774 L 213.498098332,62.500265297 L 210.328025598,55.090296515 L 220.357990408,51.540197774 z" fill="#c3977a" /><path d="M 216.978324547,85.7602270001 L 205.358366136,89.9703403955 L 191.82803374,56.1604740301 L 203.437992258,51.9603609619 L 216.978324547,85.7602270001 z" fill="#e8c9b6" /><path d="M 125.168334773,87.2311313956 L 121.178425605,96.4411706851 L 117.6283071,84.5112057797 L 159.83814361,67.7907907514 L 164.418254795,79.1007454003 L 125.168334773,87.2311313956 z" fill="#584164" /><path d="M 213.069226336,75.7202664464 L 242.23912013,65.1099795934 L 232.818887928,41.3200725386 L 159.818148874,67.7907904713 L 169.448381772,91.5506954888 L 201.248268073,80.0003824677 L 193.808083537,61.2204559252 L 205.439040997,56.9403417731 L 213.069226336,75.7202664464 z M 172.489314949,84.7206656495 L 166.89817778,70.9307206888 L 188.75810038,63.0005058141 L 194.228236502,76.8104519461 L 172.489314949,84.7206656495 z M 235.218089627,62.0000487669 L 216.098158573,68.9002367156 L 210.498023389,55.1002918529 L 229.747953573,48.100103436 L 235.218089627,62.0000487669 z" fill="#584164" /><path d="M 185.968170764,69.8605329172 C 187.774170758,69.8605151508 189.238185147,71.3245007354 189.238202913,73.1305007297 C 189.238220679,74.936500724 187.774235095,76.4005151126 185.9682351,76.400532879 C 184.162235106,76.4005506455 182.698220718,74.9365650608 182.698202951,73.1305650665 C 182.698185185,71.3245650723 184.162170769,69.8605506836 185.968170764,69.8605329172 z" fill="#2b2b2b" /><path d="M 221.958037043,56.5401829878 C 223.764036991,56.5401652214 225.229051426,58.0041507962 225.229069193,59.8101507905 C 225.229086959,61.6161507848 223.764101328,63.0801651833 221.95810138,63.0801829497 C 220.152101339,63.0802007161 218.68808707,61.6162151315 218.688069303,59.8102151372 C 218.688051537,58.0042151429 220.152037002,56.5402007543 221.958037043,56.5401829878 z" fill="#2b2b2b" /><path d="M 144.579275058,182.440945258 L 164.909717923,227.660746483 L 232.569386347,193.970080348 L 213.499329693,188.180267033 L 193.359336698,188.830466685 L 144.579275058,182.440945258 z" fill="#9da0a1" /><path d="M 232.559397562,193.970078539 L 226.498899762,143.410138688 L 219.189814259,134.720210056 L 210.329814364,134.720297216 L 193.359346235,188.830464777 L 232.559397562,193.970078539 z" fill="#c4c4c4" /><path d="M 210.328801801,134.720300087 L 218.178547801,108.910222443 L 232.188607168,114.97008504 L 238.968719441,126.410017923 L 226.498887007,143.410140596 L 210.328801801,134.720300087 z" fill="#c3977a" /><path d="M 218.178550185,108.910218476 L 236.828495471,103.290034798 L 246.218565463,110.369942586 L 234.74860657,114.600055679 L 218.178550185,108.910218476 z" fill="#c3977a" /><path d="M 218.178554954,108.910222443 L 246.218569278,110.36994664 L 248.008695159,123.169929221 L 238.968727071,126.410017923 L 218.178554954,108.910222443 z" fill="#dfbca4" /></svg>