<?xml version='1.0' encoding='utf-8'?>
<svg xmlns="http://www.w3.org/2000/svg" width="400.0" height="400.0" viewBox="0 0 400.0 400.0"><path d="M 211.780006409,165.679994583 L 222.030006409,170.279994965 L 256.280006409,220.839994431 L 231.210006475,208.979994774 L 211.780006409,196.519994497 L 211.780006409,165.679994583 z" fill="#50a9aa" /><path d="M 158.210004807,173.909996033 L 127.880004883,238.239997864 L 153.220005035,224.018997192 L 169.880004883,215.839997292 L 158.210004807,173.909996033 z" fill="#50a9aa" /><path d="M 211.781007767,165.680000305 L 200.311008453,194.970001221 L 184.180008173,201.870000839 L 200.661007881,189.490001678 L 179.200008392,163.260002136 L 158.210008621,173.909999847 L 165.330007553,213.670001268 L 156.290008545,240.740001678 L 143.5090065,268.430000305 L 175.650008202,268.430000305 L 211.781007767,261.970001221 L 221.461009979,248.769001007 L 231.211009979,208.98000145 L 211.781007767,165.680000305 z" fill="#71cacc" /><path d="M 165.330007553,213.668999672 L 156.290008545,240.739999771 L 187.360007763,240.590000153 L 221.180007935,246.020000458 L 230.510005951,218.638999939 L 231.210006714,208.979999542 L 165.330007553,213.668999672 z" fill="#369395" /><path d="M 211.781003952,165.67999649 L 175.650003433,164.81999588 L 175.650003433,206.609996796 L 200.310004234,194.969996452 L 227.640005112,201.018996239 L 211.781003952,165.67999649 z" fill="#ffffff" /><path d="M 153.320007324,247.169998646 L 156.290006638,240.739998817 L 196.470006943,240.589999199 L 214.712007523,246.560998917 L 221.460006714,248.769998789 L 211.780006409,261.96999836 L 153.320007324,247.169998646 z" fill="#2b2b2b" opacity="0.1" /><path d="M 110.560005188,392.329998732 L 205.650004864,377.058999062 L 285.200004578,391.379998684 L 212.019004822,399.999999046 L 110.560005188,392.329998732 z" opacity="0.1" /><path d="M 205.610003471,341.250004768 L 220.860003352,366.390005112 L 229.210002899,368.010004997 L 233.100003242,364.330004692 L 231.210002899,343.930005074 L 205.610003471,341.250004768 z" fill="#c3977a" /><path d="M 190.670003891,339.7590065 L 188.040003777,368.030006409 L 177.480003655,371.5090065 L 175.1200037,366.7590065 L 165.650003433,337.190006256 L 190.670003891,339.7590065 z" fill="#c3977a" /><path d="M 233.1000067,364.329996109 L 244.661006927,374.999996364 L 233.53900671,387.349996567 L 220.0090065,385.469996452 L 220.860006332,366.389996529 L 233.1000067,364.329996109 z" fill="#27788b" /><path d="M 188.0400033,368.029998779 L 195.950003624,388.968998909 L 182.040003359,391.050998688 L 168.26000309,388.968998909 L 175.120003223,366.758998871 L 188.0400033,368.029998779 z" fill="#27788b" /><path d="M 231.210003853,343.929986596 L 210.540003777,349.378986359 L 205.610003471,341.249986649 L 218.410003662,340.030986786 L 231.210003853,343.929986596 z" fill="#8a6651" /><path d="M 165.650003433,337.189985275 L 190.000003815,347.029985428 L 190.670003891,339.758985281 L 178.700003684,337.189985275 L 165.650003433,337.189985275 z" fill="#8a6651" /><path d="M 211.781005859,261.970012665 L 193.071003914,295.731012106 L 161.720004082,325.180011749 L 143.509002686,268.430011749 L 170.063004494,265.917011261 L 211.781005859,261.970012665 z" fill="#369395" /><path d="M 211.780002594,261.970001221 L 219.849000931,275.520000458 L 228.690002441,318.388999939 L 228.690002441,340.029998779 L 165.650001526,337.189998627 L 161.720001221,325.180000305 L 211.780002594,261.970001221 z" fill="#50a9aa" /><path d="M 165.650009155,337.189996719 L 196.469007969,327.998996496 L 217.433008194,321.74699688 L 228.691007614,318.388996124 L 231.210006714,343.92899704 L 165.650009155,337.189996719 z" fill="#369395" /><path d="M 211.780008316,261.969985962 L 226.237008095,310.204986572 L 228.690008163,318.389987946 L 221.460008264,248.769985199 L 211.780008316,261.969985962 z" fill="#369395" /><path d="M 244.660000801,375.000012398 L 229.760001183,385.470012188 L 220.010000229,385.470012188 L 220.010000229,388.650012016 L 259.570001602,388.650012016 L 259.570001602,381.470012218 L 244.660000801,375.000012398 z" fill="#399fb9" /><path d="M 187.300003529,380.880007267 L 177.0400033,380.880007267 L 168.26000309,388.97000742 L 168.26000309,392.260007381 L 195.950003624,392.260007381 L 195.950003624,388.97000742 L 187.300003529,380.880007267 z" fill="#399fb9" /><path d="M 165.330006838,213.670003891 L 194.670005798,232.060004234 L 196.470005035,237.720004082 L 194.670005798,244.120004654 L 127.880008698,238.240004539 L 165.330006838,213.670003891 z" fill="#dfbca4" /><path d="M 248.939998627,58.2499980927 L 271.009998322,72.3199982643 L 253.638998508,95.8399982452 L 248.939998627,77.0499981688 L 248.939998627,58.2499980927 z" fill="#4f5252" /><path d="M 203.660007477,0 L 129.680007935,32.9600000381 L 140.210006714,51.5599994659 L 148.930006027,58.25 L 178.360006332,52.5599994659 L 211.130004883,34.9499998093 L 210.130004883,19.6599998474 L 203.660007477,0 z" fill="#71cacc" /><path d="M 211.130008698,34.9499998093 L 227.010007858,48.9799995422 L 248.940008163,58.25 L 254.950008392,21.3800001144 L 203.660007477,0 L 211.130008698,34.9499998093 z" fill="#8bdfdc" /><path d="M 129.680006027,32.9600009918 L 134.190006256,77.0500011444 L 144.400005817,68.2800006866 L 148.930006027,58.2500009537 L 129.680006027,32.9600009918 z" fill="#369395" /><path d="M 205.180003047,7.09000015259 L 202.219003081,8.28999996185 L 203.809003055,16.75 L 196.721003056,19.6000000238 L 197.789002895,25.2100000381 L 205.159003019,22.4100000858 L 206.839003086,30.1599998474 L 209.879003048,29.1300001144 L 210.129003048,19.6599999666 L 205.180003047,7.09000015259 z" fill="#27788b" /><path d="M 205.180007458,7.08999919891 L 208.66900754,8.79999923706 L 210.350007653,16.0199995041 L 217.570007801,19.4899994135 L 217.469007492,24.5299992561 L 211.55900763,21.8899993896 L 213.190007687,30.1899995804 L 209.880007625,29.1299991608 L 205.180007458,7.08999919891 z" fill="#308fa6" /><path d="M 248.940006256,58.25 L 259.910007477,146.060001373 L 216.519007683,153.030000687 L 200.31000793,194.970001221 L 165.549007416,146.140001297 L 141.200008392,122.700000525 L 157.879009247,113.530000687 L 162.169006348,118.36000061 L 178.120008469,78.7700004578 L 192.440008163,70.1599998474 L 210.129008293,62.2900009155 L 248.940006256,58.25 z" fill="#dfbca4" /><path d="M 178.12100184,78.7699966431 L 188.871002197,158.149995804 L 216.519001007,153.029994965 L 207.831001282,161.299995422 L 210.131000519,169.56999588 L 200.310001373,194.969993591 L 157.581001282,142.569994926 L 154.511001587,135.769995093 L 150.041002274,133.329995155 L 136.641002655,116.889995575 L 153.321001053,102.769996643 L 161.001001358,120.099994659 L 166.681001663,103.769996643 L 178.12100184,78.7699966431 z" fill="#c3977a" /><path d="M 241.670001984,81.1799983978 L 225.660002232,103.259997845 L 217.930002123,113.54999733 L 194.850002289,88.6999979019 L 241.670001984,81.1799983978 z" fill="#c3977a" /><path d="M 213.87000227,85.57999897 L 217.930002451,113.549999237 L 227.010002613,112.299999237 L 222.780002356,84.1199989319 L 213.87000227,85.57999897 z" fill="#e8c9b6" /><path d="M 227.010008812,112.30000186 L 223.060008824,118.360001802 L 217.930008888,113.55000186 L 227.010008812,112.30000186 z" fill="#8a6651" /><path d="M 216.520004272,153.030002594 L 210.129005432,169.57000351 L 180.600006104,158.230003119 L 216.520004272,153.030002594 z" fill="#8a6651" /><path d="M 160.760006428,126.610001087 L 157.590006351,142.580001354 L 150.05000639,133.340001225 L 160.760006428,126.610001087 z" fill="#8a6651" /><path d="M 157.260005951,123.920001984 L 151.380005956,113.740001678 L 143.510005951,118.360001832 L 157.260005951,123.920001984 z" fill="#8a6651" /><path d="M 207.830005646,70.1599979401 L 212.970005035,52.5599985123 L 211.130004883,34.9499988556 L 148.93000412,58.2499980927 L 119.390003204,95.6399974823 L 149.250003815,88.6999988556 L 178.1200037,78.7699985504 L 191.020004272,75.0299978256 L 207.830005646,70.1599979401 z" fill="#4f5252" /><path d="M 178.120004654,78.7699966431 L 162.000004768,122.099998474 L 153.32000494,107.719997406 L 136.640005112,116.889997482 L 119.390005112,95.6399974823 L 178.120004654,78.7699966431 z" fill="#2b2b2b" /><path d="M 211.130002975,34.9500007629 L 248.940002441,58.2500004768 L 207.830001831,70.1599998474 L 211.130002975,34.9500007629 z" fill="#6e7073" /><path d="M 231.210004807,208.980000496 L 226.840004921,225.11000061 L 229.380004883,238.240000725 L 254.720005035,232.349000931 L 256.280005455,220.839000702 L 231.210004807,208.980000496 z" fill="#dfbca4" /><path d="M 229.380001068,238.240003347 L 221.460001945,248.769003391 L 194.670001984,244.120003223 L 216.520001411,235.469003201 L 229.380001068,238.240003347 z" fill="#8a6651" /><path d="M 229.380004406,238.240005016 L 221.46000433,248.769004822 L 218.410004139,239.099004745 L 229.380004406,238.240005016 z" fill="#c3977a" /><path d="M 194.670008659,232.058995724 L 212.970008373,220.838995934 L 217.930008888,227.768995762 L 218.41000843,239.098995686 L 194.670008659,244.119996071 L 194.670008659,232.058995724 z" fill="#c3977a" /><path d="M 212.970003128,220.840001106 L 226.840003014,225.111001015 L 229.380002975,238.240001678 L 218.410002947,239.100001335 L 218.238003016,238.522001266 L 212.970003128,220.840001106 z" fill="#e8c9b6" /><path d="M 213.870008469,85.5799981356 L 212.930007935,79.3899979591 L 194.850008011,88.6999983788 L 213.870008469,85.5799981356 z" fill="#4f5252" /><path d="M 222.780004501,84.119997263 L 241.670004845,81.1799972542 L 222.090004921,78.1399972439 L 222.780004501,84.119997263 z" fill="#4f5252" /><path d="M 214.800004959,130.129993916 L 224.071004897,124.359993935 L 234.210004807,127.039993882 L 225.15100491,132.439993858 L 214.800004959,130.129993916 z" fill="#1c7678" /><path d="M 207.000003815,129.150000572 L 226.190004587,137.300000668 L 240.650005341,123.920000553 L 225.150004625,131.440000594 L 207.000003815,129.150000572 z" fill="#50a9aa" /><path d="M 210.741006851,99.4899978638 C 210.741006851,101.853997946 208.824006796,103.769998074 206.460006714,103.769998074 C 204.096006632,103.769998074 202.179006577,101.853997946 202.179006577,99.4899978638 C 202.179006577,97.1259977818 204.096006632,95.209997654 206.460006714,95.209997654 C 208.824006796,95.209997654 210.741006851,97.1259977818 210.741006851,99.4899978638 z" fill="#2b2b2b" /><path d="M 237.380006313,95.2090001218 C 237.386005878,97.5730001926 235.474006176,99.493999958 233.110006103,99.4990000725 C 230.746006012,99.5040001869 228.824006081,97.5940001011 228.819005966,95.2300001225 C 228.814006329,92.8660001755 230.726006031,90.9440002441 233.089006104,90.9390001297 L 233.110006103,90.9390001297 C 235.469006062,90.9390001297 237.380006313,92.8510000706 237.380006313,95.2090001218 z" fill="#2b2b2b" /></svg>