<?xml version='1.0' encoding='utf-8'?>
<svg xmlns="http://www.w3.org/2000/svg" width="400.0" height="400.0" viewBox="0 0 400.0 400.0"><path d="M 314.86101532,391.330012932 L 203.971014738,383.315012932 L 98.4190139771,389.666012883 L 198.77801466,399.751012802 L 314.86101532,391.330012932 z" opacity="0.1" /><path d="M 233.682021141,379.568997562 L 234.744021416,390.202997208 L 250.449021339,390.202997208 L 255.640021324,387.658997536 L 260.074021339,383.362997532 L 246.187021255,369.398997307 L 239.41202116,369.16799736 L 233.682021141,379.568997562 z" fill="#dfbca4" /><path d="M 234.744009018,390.202997684 L 233.914009094,381.892997742 L 243.10300827,390.202997684 L 265.646008492,378.804997921 L 275.778007507,390.202997684 L 234.744009018,390.202997684 z" fill="#c3977a" /><path d="M 176.541012764,369.167021751 L 183.499012947,377.985021591 L 185.857012749,391.976021767 L 173.445012748,391.976021767 L 167.673012733,386.960021496 L 161.541012764,379.568021536 L 166.281012535,371.358021736 L 176.541012764,369.167021751 z" fill="#dfbca4" /><path d="M 162.151016712,378.926019192 L 149.636016846,391.976019382 L 185.858016968,391.976019382 L 184.259016037,382.496019363 L 177.707016945,391.976019382 L 162.151016712,378.926019192 z" fill="#c3977a" /><path d="M 242.697006941,365.889003754 L 237.157006979,366.428003788 L 232.621006966,368.937003851 L 233.682006836,379.570003986 L 246.18700695,369.40000391 L 242.697006941,365.889003754 z" fill="#8a6651" /><path d="M 181.730014801,367.48700881 L 177.273014545,364.733008862 L 170.025014877,364.873008728 L 166.281014442,371.359008789 L 183.499014854,377.985008717 L 181.730014801,367.48700881 z" fill="#8a6651" /><path d="M 246.777021408,283.944000244 L 223.497020721,293.349000931 L 200.676021576,306.23400116 L 214.987020493,344.60900116 L 237.080020905,339.949001312 L 258.555021286,331.690000534 L 246.777021408,283.944000244 z" fill="#be8f00" /><path d="M 214.987010956,344.609018564 L 220.053010941,359.047019005 L 239.782011271,346.98201859 L 258.555011749,331.691018105 L 214.987010956,344.609018564 z" fill="#e4c728" /><path d="M 220.053012848,359.047019005 L 258.554012299,331.691018105 L 266.15401268,358.793018341 L 243.169012085,361.047019005 L 220.053012848,359.047019005 z" fill="#ccac13" /><path d="M 220.053012848,359.047999859 L 225.119012833,371.205999851 L 266.15401268,358.794000149 L 220.053012848,359.047999859 z" fill="#e4c728" /><path d="M 200.676013947,306.234005928 L 197.50901413,343.342006683 L 174.639013559,340.812005997 L 147.608013153,334.730005264 L 151.535013199,285.970005035 L 180.484013557,295.920005798 L 200.676013947,306.234005928 z" fill="#be8f00" /><path d="M 147.609012604,334.731007576 L 173.012013376,349.439007521 L 196.243013382,359.047007561 L 197.50901413,343.343007565 L 147.609012604,334.731007576 z" fill="#e4c728" /><path d="M 147.609012604,334.731005669 L 145.076011658,359.300005913 L 173.003011942,360.58100605 L 196.242012024,359.047005653 L 147.609012604,334.731005669 z" fill="#ccac13" /><path d="M 196.243011475,359.047002316 L 145.075012207,359.300002098 L 194.977012634,370.445002079 L 196.243011475,359.047002316 z" fill="#e4c728" /><path d="M 222.978006363,171.281999588 L 233.36100769,174.756999969 L 239.114006042,180.23900032 L 246.650005341,179.204999924 L 260.834007263,193.64199996 L 256.760005951,206.883999825 L 246.396007538,222.26499939 L 156.221008301,224.545000076 L 145.432006836,215.444999695 L 137.224006653,204.28099966 L 157.488006592,178.951000214 L 165.207008362,177.954000473 L 169.103006363,173.980998993 L 180.719007492,169.01099968 L 198.649006963,181.906999588 L 222.978006363,171.281999588 z" fill="#464646" /><path d="M 246.77602005,283.943000793 L 200.675021172,306.233001709 L 151.536022186,285.96900177 L 156.221019745,224.544002533 L 163.868022919,215.850002289 L 171.546020508,211.499000549 L 231.578022003,208.206001282 L 238.672019958,211.962001801 L 246.396022797,222.263999939 L 246.77602005,283.943000793 z" fill="#856300" /><path d="M 246.650013447,179.205001831 L 246.397013664,222.266000748 L 231.578013897,208.207001686 L 233.356013775,174.756002426 L 246.650013447,179.205001831 z" fill="#be8f00" /><path d="M 169.103010654,173.9810009 L 171.546010971,211.501000404 L 156.220010757,224.544000626 L 157.487010956,178.951000214 L 169.103010654,173.9810009 z" fill="#be8f00" /><path d="M 221.692079152,264.186010361 L 181.172078694,264.186010361 L 181.171860324,222.889009476 L 221.691860782,222.889009476 L 221.692079152,264.186010361 z" fill="#9e7700" /><path d="M 246.533966982,244.684999466 L 241.962949348,241.38999939 L 237.40399364,249.747999549 L 243.482988171,248.736999512 L 246.604026958,256.084999561 L 246.533966982,244.684999466 z" fill="#9e7700" /><path d="M 219.926101929,269.252006531 L 213.341129937,274.570006609 L 214.354158079,279.890006542 L 222.966191561,286.224006653 L 226.259120788,272.798006535 L 219.926101929,269.252006531 z" fill="#ccac13" /><path d="M 181.173047264,259.879001617 L 191.811028774,256.335001945 L 190.797983224,247.723001719 L 195.863972252,245.696001768 L 192.823928089,237.337001801 L 190.037933671,238.350001335 L 190.291955051,242.403001785 L 183.705952171,241.897001743 L 181.172985667,248.230001718 L 180.227013499,253.422001839 L 181.173047264,259.879001617 z" fill="#ccac13" /><path d="M 201.94211567,272.039011717 L 195.356106329,270.266011715 L 196.876143812,277.358011723 L 201.689139762,276.59901166 L 201.94211567,272.039011717 z" fill="#9e7700" /><path d="M 181.171985257,248.229001045 L 172.559991486,249.495000839 L 176.612046619,259.879000664 L 181.17204686,259.879000664 L 181.171985257,248.229001045 z" fill="#b58a00" /><path d="M 280.592018127,210.486004151 L 260.833018541,193.642004013 L 246.396018982,222.264003754 L 260.961018562,227.204004288 L 274.278018951,222.556004524 L 280.592018127,210.486004151 z" fill="#dfbca4" /><path d="M 156.221017838,224.544014528 L 131.904017448,244.555013657 L 125.187017441,218.4710145 L 137.223017693,204.281015396 L 156.221017838,224.544014528 z" fill="#dfbca4" /><path d="M 121.012016296,202.255004883 L 71.8720169067,209.600006104 L 56.1670150757,251.649004757 L 78.4580154419,286.857006073 L 123.292016029,302.562004089 L 167.747016907,292.655006409 L 163.566017151,250.636004806 L 131.904016495,244.556004524 L 121.012016296,202.255004883 z" fill="#e4c728" /><path d="M 109.614013791,223.785012245 L 104.223013878,229.058012962 L 96.4430141449,233.918012619 L 107.335013747,251.141013145 L 119.493013382,241.010012627 L 113.068013668,231.34001255 L 109.614013791,223.785012245 z" fill="#c3977a" /><path d="M 115.657013893,244.20700264 L 111.642013788,232.144002199 L 96.4430141449,233.918002196 L 109.615013719,223.785001755 L 119.493013382,241.010002136 L 115.657013893,244.20700264 z" fill="#8a6651" /><path d="M 111.642014503,232.144001961 L 96.4420146942,233.917002678 L 92.1380147934,250.184002399 L 96.8780145645,252.792002678 L 111.642014503,232.144001961 z" fill="#dfbca4" /><path d="M 87.7470140457,224.828012705 L 78.2350142002,221.33601284 L 74.7430143356,230.847012758 L 84.2550141811,234.34001255 L 87.7470140457,224.828012705 z" fill="#464646" /><path d="M 81.6680135727,241.545999765 L 72.1560137272,238.053999901 L 68.6640138626,247.564999819 L 78.1750137806,251.057999611 L 81.6680135727,241.545999765 z" fill="#802c00" /><path d="M 87.7470140457,260.291018248 L 78.2350142002,256.798018456 L 74.7430143356,266.309018373 L 84.2550141811,269.802018166 L 87.7470140457,260.291018248 z" fill="#a84000" /><path d="M 103.198014259,272.955996275 L 93.6860144138,269.462996483 L 90.1940145493,278.974996328 L 99.7060143948,282.466996193 L 103.198014259,272.955996275 z" fill="#cc4e00" /><path d="M 120.422013283,279.287997007 L 110.910013437,275.794997215 L 107.418013573,285.305997133 L 116.930013418,288.798996925 L 120.422013283,279.287997007 z" fill="#ec8500" /><path d="M 139.927018166,279.79400897 L 130.41501832,276.301009178 L 126.923018456,285.812009096 L 136.433018208,289.305008888 L 139.927018166,279.79400897 z" fill="#ff9b01" /><path d="M 157.151017189,269.916018248 L 147.639017344,266.424018383 L 144.147017479,275.934018373 L 153.659017324,279.426018238 L 157.151017189,269.916018248 z" fill="#f4d65d" /><path d="M 111.641013622,232.144005775 L 107.334013429,251.142004967 L 102.949013233,244.207005262 L 111.641013622,232.144005775 z" fill="#8a6651" /><path d="M 102.949014246,244.206999779 L 96.8780140877,252.793000221 L 107.334014416,251.14199996 L 102.949014246,244.206999779 z" fill="#ccac13" /><path d="M 260.962007523,227.204001427 L 296.218008041,196.771001816 L 307.924009323,196.10500145 L 305.942008972,209.888001442 L 286.147008419,235.335000992 L 260.962007523,227.204001427 z" fill="#c3977a" /><path d="M 296.219008446,196.772003174 L 305.943008542,209.887002945 L 314.861008644,206.768002987 L 307.766008615,188.407003403 L 296.219008446,196.772003174 z" fill="#8a6651" /><path d="M 265.063011169,152.95100975 L 311.334011078,202.957010269 L 316.448011398,198.93901062 L 319.315010071,193.537010193 L 265.063011169,152.95100975 z" fill="#464646" /><path d="M 329.520017147,215.859006882 L 330.920017242,223.369007111 L 343.585017204,225.142006874 L 340.799017429,218.556007028 L 335.15401721,217.177007198 L 331.782017231,214.610007286 L 329.520017147,215.859006882 z" fill="#be8f00" /><path d="M 331.427028418,202.597008705 L 335.154028416,217.177008629 L 321.548028469,213.995008469 L 326.015028477,207.352008581 L 331.427028418,202.597008705 z" fill="#856300" /><path d="M 305.359020233,196.499006271 L 321.548020601,213.995006561 L 331.427021027,202.59700644 L 319.315020621,193.536006927 L 305.359020233,196.499006271 z" fill="#8f8f8f" /><path d="M 301.785021782,204.281009674 L 305.358021736,196.500009298 L 316.562021255,197.825009346 L 319.314022064,193.537009388 L 303.768021822,181.907009125 L 296.218021393,196.772009373 L 301.785021782,204.281009674 z" fill="#dfbca4" /><path d="M 322.804023027,183.192013741 L 333.898022652,199.147014141 L 331.427022934,202.597014427 L 303.768023491,181.907013893 L 311.993022919,182.462014198 L 322.804023027,183.192013741 z" fill="#c3977a" /><path d="M 135.158016205,91.8970088959 L 189.620016336,78.6940088272 L 246.33801651,62.0480089188 L 245.559017181,53.8760089874 L 240.930015564,41.9310092926 L 186.983016253,66.3840091228 L 135.158016205,91.8970088959 z" fill="#ccac13" /><path d="M 240.931015015,41.9300098419 L 183.360015512,56.1970090866 L 125.207015991,74.8100090027 L 127.688014984,82.2810087204 L 135.158016205,91.8980083466 L 240.931015015,41.9300098419 z" fill="#e4c728" /><path d="M 176.99901104,44.1300086975 L 171.743010521,61.5880088806 L 194.773011208,55.0450088978 L 176.99901104,44.1300086975 z" fill="#755700" /><path d="M 240.932022095,41.9300060272 L 250.142022103,45.0080060959 L 260.182022095,52.3140058517 L 248.476022005,70.8120059967 L 245.895021915,65.5420055389 L 246.340022087,62.0470061302 L 240.932022095,41.9300060272 z" fill="#755700" /><path d="M 240.932011604,41.9300074577 L 239.748011589,32.5270073414 L 242.013011456,20.2990074158 L 253.776011705,37.8060073853 L 260.182011604,52.3130073547 L 240.932011604,41.9300074577 z" fill="#ccac13" /><path d="M 242.012012482,20.2990074158 L 272.944011688,39.5510072708 L 260.182012081,52.3130073547 L 242.012012482,20.2990074158 z" fill="#be8f00" /><path d="M 240.932021141,41.9300069809 L 242.013020515,20.2990074158 L 242.662020683,8.40300750732 L 238.456020832,12.8220071793 L 220.263020515,31.9400072098 L 220.809020996,47.6470069885 L 240.932021141,41.9300069809 z" fill="#856300" /><path d="M 205.82101059,11.2230062485 L 204.159010887,20.3000063896 L 213.152010918,28.0970067978 L 221.680010915,32.4130058289 L 235.606010437,16.4780064523 L 210.216011047,-0.248992919922 L 205.82101059,11.2230062485 z" fill="#be8f00" /><path d="M 221.680020332,32.4120082855 L 204.159020424,20.3000087738 L 198.688020706,33.9570086002 L 194.774020195,55.044008255 L 220.809020042,47.6460084915 L 221.680020332,32.4120082855 z" fill="#ccac13" /><path d="M 174.741012573,18.5680074692 L 194.135012031,20.6810073853 L 204.159011841,20.3000068665 L 210.215011597,-0.248992919922 L 174.741012573,18.5680074692 z" fill="#ccac13" /><path d="M 204.160018921,20.2990074158 L 174.742019653,18.5690059662 L 180.974019051,32.6250066757 L 194.774019241,55.0450077057 L 204.160018921,20.2990074158 z" fill="#be8f00" /><path d="M 119.998017311,99.0940034389 L 142.32701683,104.035003185 L 138.834017277,96.1930034161 L 135.158017159,91.8970036507 L 127.747017384,93.6850032806 L 119.998017311,99.0940034389 z" fill="#755700" /><path d="M 194.774015427,55.044008255 L 177.944015503,45.7830076218 L 167.440015793,41.2900075912 L 161.114015579,36.5230076313 L 163.767015457,26.2430076599 L 168.005015373,18.0440073013 L 170.632015705,10.9980068207 L 174.7420156,18.5680074692 L 194.774015427,55.044008255 z" fill="#ccac13" /><path d="M 161.115017891,36.5230064392 L 151.425018072,33.4460062981 L 141.755018234,25.8160064816 L 139.706018448,15.7590065002 L 168.006017685,18.045006752 L 161.115017891,36.5230064392 z" fill="#be8f00" /><path d="M 161.115015984,36.5230073929 L 141.75501585,25.8150081635 L 132.021016121,38.7940073013 L 138.548015594,51.475007534 L 149.502016068,67.9070072174 L 158.498016357,48.3020076752 L 161.115015984,36.5230073929 z" fill="#856300" /><path d="M 116.362011909,77.4410028458 L 111.966012001,102.908002853 L 135.158011436,91.8970034122 L 125.208011746,74.8090028763 L 120.980011702,74.5800037384 L 116.362011909,77.4410028458 z" fill="#856300" /><path d="M 132.021011114,38.7930059433 L 123.24501133,48.8100061417 L 120.12401104,56.3150060177 L 130.581011295,60.9140062332 L 149.502011299,67.9070062637 L 132.021011114,38.7930059433 z" fill="#be8f00" /><path d="M 132.022015572,38.7930088043 L 101.088015556,49.1770085096 L 120.125015497,56.3150081635 L 132.022015572,38.7930088043 z" fill="#ccac13" /><path d="M 120.124012947,56.3140087128 L 103.035013199,81.4060077667 L 125.207013011,74.8090081215 L 149.501012802,67.9070082307 L 120.124012947,56.3140087128 z" fill="#ccac13" /><path d="M 161.115014791,36.5230045319 L 149.502015114,67.9070053101 L 162.662014842,84.5130062103 L 171.74401474,61.5870053768 L 177.944014549,45.7840051651 L 161.115014791,36.5230045319 z" fill="#be8f00" /><path d="M 246.33902359,62.047996521 L 265.374023438,140.13299942 L 230.765022278,152.462999344 L 226.186021805,160.675998688 L 222.978021622,171.281997681 L 208.09302187,181.60900116 L 195.723021507,194.426002502 L 174.171022415,154.649999619 L 159.49502182,133.063999653 L 147.763023376,113.236999512 L 145.28302002,103.475999832 L 135.15802002,91.8979988098 L 246.33902359,62.047996521 z" fill="#dfbca4" /><path d="M 169.326011181,121.449005127 L 163.432011008,111.533004761 L 153.856010914,116.491004944 L 162.166011035,120.408004999 L 169.326011181,121.449005127 z" fill="#8a6651" /><path d="M 179.189014435,80.0750083923 L 209.324014664,159.928007126 L 221.680015564,159.870006561 L 222.97901535,171.28200531 L 195.723014832,194.426006317 L 176.867014885,162.487007141 L 174.742013931,155.700006485 L 171.262014389,152.994007111 L 159.495014191,133.063006878 L 177.688014984,122.256007195 L 171.714014053,110.932006836 L 181.663014412,105.092006683 L 168.908014297,82.8360061646 L 179.189014435,80.0750083923 z" fill="#c3977a" /><path d="M 197.252013206,91.7500053644 L 207.836013198,91.6810053587 L 219.950013161,108.121005058 L 217.631012917,88.7440052032 L 210.916013241,78.9150056839 L 197.252013206,91.7500053644 z" fill="#c3977a" /><path d="M 224.809009552,74.8760042191 L 229.622009754,100.526003838 L 234.658009887,82.5970039368 L 243.405010223,77.249004364 L 224.809009552,74.8760042191 z" fill="#c3977a" /><path d="M 210.916009903,78.9140081406 L 194.354009628,85.1260083616 L 197.252009869,91.7500085831 L 210.916009903,78.9140081406 z" fill="#856300" /><path d="M 224.809009552,74.8750034571 L 241.86300993,70.1830034256 L 243.405010223,77.2490034103 L 224.809009552,74.8750034571 z" fill="#856300" /><path d="M 216.746013641,126.349004745 L 230.15901354,117.258004665 L 244.538013458,118.227004766 L 233.036013603,126.836004734 L 216.746013641,126.349004745 z" fill="#755700" /><path d="M 248.502017975,115.691010475 L 232.564017296,125.893010736 L 211.297018051,126.506010771 L 234.010017395,132.131011009 L 248.502017975,115.691010475 z" fill="#b58a00" /><path d="M 168.909010887,82.8350105286 L 181.664011002,105.092010975 L 171.714011192,110.933011055 L 166.522010803,102.49601078 L 147.763010979,113.237010956 L 135.158010483,91.8980107307 L 168.909010887,82.8350105286 z" fill="#856300" /><path d="M 230.765016556,152.46200943 L 201.564016342,162.630009294 L 222.978016853,171.282009125 L 230.765016556,152.46200943 z" fill="#8a6651" /><path d="M 177.581017494,128.358012199 L 173.127017498,145.848011971 L 163.88301754,135.657012105 L 177.581017494,128.358012199 z" fill="#8a6651" /><path d="M 191.215014458,141.141010284 L 176.865014553,162.487010956 L 171.315014839,152.963010669 L 177.943014622,145.849010468 L 191.215014458,141.141010284 z" fill="#8a6651" /><path d="M 224.80901742,74.8750095367 L 210.915017128,78.9140090942 L 219.950017452,108.121007919 L 233.577017784,104.010008812 L 224.80901742,74.8750095367 z" fill="#e8c9b6" /><path d="M 233.578007698,104.010007858 L 228.819007635,112.878007889 L 219.950007439,108.120007873 L 233.578007698,104.010007858 z" fill="#8a6651" /><path d="M 179.394011021,121.243012428 L 191.215010643,141.142012119 L 171.315011024,152.963011742 L 159.49501133,133.064012051 L 179.394011021,121.243012428 z M 166.610011101,134.876012087 L 173.127011061,145.849012375 L 184.100010872,139.330012083 L 177.582010984,128.358012199 L 166.610011101,134.876012087 z" fill="#755700" /><path d="M 167.001014233,117.53500843 L 162.166014194,120.408008099 L 171.224014282,135.657008171 L 176.060014248,132.784008503 L 167.001014233,117.53500843 z" fill="#b58a00" /><path d="M 212.898015976,99.824005127 C 212.898015976,102.177005053 210.991015673,104.084005356 208.639015747,104.084005356 C 206.286015749,104.084005356 204.378015518,102.177005053 204.378015518,99.824005127 C 204.378015518,97.4710052013 206.286015749,95.5640048981 208.639015747,95.5640048981 C 210.991015673,95.5640048981 212.898015976,97.4710052013 212.898015976,99.824005127 z" fill="#2b2b2b" /><path d="M 241.664007187,90.3010101318 C 241.664007187,92.6530101299 239.756006956,94.5600099564 237.403006958,94.5600099564 C 235.051007032,94.5600099564 233.144006729,92.6530101299 233.144006729,90.3010101318 C 233.144006729,87.9480102062 235.051007032,86.0420103073 237.403006958,86.0420103073 C 239.756006956,86.0420103073 241.664007187,87.9480102062 241.664007187,90.3010101318 z" fill="#2b2b2b" /></svg>