<?xml version='1.0' encoding='utf-8'?>
<svg xmlns="http://www.w3.org/2000/svg" width="400.0" height="400.0" viewBox="0 0 400.0 400.0"><path d="M 93.3979949951,388.049014807 L 197.285998583,380.418014526 L 295.774002075,388.337014914 L 201.677998543,400.000015259 L 93.3979949951,388.049014807 z" fill="#2b2b2b" opacity="0.1" /><path d="M 184.181998014,387.687987566 L 206.283998489,387.975987434 L 206.211997986,383.080987573 L 166.111997604,378.90598774 L 179.430997849,389.055987358 L 184.181998014,387.687987566 z" fill="#27788b" /><path d="M 155.743993759,380.921010494 L 147.824993134,386.752010498 L 147.75299263,391.576010704 L 184.326993942,392.513010502 L 184.182992935,387.688010514 L 155.743993759,380.921010494 z" fill="#27788b" /><path d="M 193.901994944,273.362010956 L 201.60599494,270.410011292 L 227.307994843,272.209011078 L 206.500994682,324.621009827 L 184.325995445,343.412010193 L 168.487995148,340.531009674 L 169.495994568,299.351010799 L 193.901994944,273.362010956 z" fill="#4f5252" /><path d="M 206.500995636,324.62100029 L 190.444995642,363.642000198 L 181.445995808,367.170999527 L 168.486995697,371.129999161 L 180.00599575,330.812999725 L 206.500995636,324.62100029 z" fill="#6e7073" /><path d="M 190.445991278,363.641992569 L 206.212991714,383.079992294 L 170.934991837,383.079992294 L 170.790990829,375.520992517 L 174.678991318,365.65899229 L 190.445991278,363.641992569 z" fill="#308fa6" /><path d="M 184.902997971,301.510997772 L 180.007997513,330.812997818 L 158.695997596,348.739997864 L 142.785997391,329.732997894 L 134.938997269,294.312997818 L 160.137997612,278.904998779 L 184.902997971,301.510997772 z" fill="#6e7073" /><path d="M 218.955997467,261.266996384 L 227.30799675,272.208996296 L 191.093997955,293.662996292 L 174.533998489,272.569996357 L 218.955997467,261.266996384 z" fill="#464646" /><path d="M 180.007995605,330.813011169 L 174.679995537,365.659010887 L 165.319995642,375.089010239 L 151.640995979,369.546010971 L 142.785995483,329.733011246 L 180.007995605,330.813011169 z" fill="#4f5252" /><path d="M 174.679997444,365.659004211 L 184.181997299,387.687004089 L 147.825998306,386.752004623 L 151.640997887,369.547004223 L 174.679997444,365.659004211 z" fill="#399fb9" /><path d="M 184.901996613,301.510993659 L 137.745996475,307.61199379 L 134.807994843,293.799993515 L 144.686995506,295.319993496 L 184.901996613,301.510993659 z" fill="#464646" /><path d="M 216.362998962,7.05599975586 L 185.405997276,13.391998291 L 167.478997231,21.1659965515 L 152.143997192,15.9839935303 L 130.041996002,15.9839935303 L 135.584999084,27.358997345 L 145.087997437,32.1109962463 L 139.472995758,46.0769958496 L 140.984996796,60.1879959106 L 146.239997864,77.4669966698 L 156.030996323,91.2889966965 L 151.711997986,91.7929964066 L 148.256998062,95.2479963303 L 145.664997101,87.4739966393 L 139.040996552,75.3059968948 L 127.449996948,77.8269968033 L 120.033996582,82.5059968233 L 131.408996582,101.872997284 L 139.616996765,111.80799675 L 139.904998779,119.006996155 L 145.375995636,128.149997711 L 148.831996918,132.325996399 L 148.328996658,136.789997101 L 162.510996819,145.572998047 L 184.685997486,154.427993774 L 190.805996895,148.164993286 L 193.685997009,140.604995728 L 193.685997009,126.637996674 L 235.225997925,117.783996582 L 228.242996216,69.4029970169 L 230.113998413,60.0429973602 L 226.659996033,43.5579986572 L 222.770996094,38.8769950867 L 216.362998962,7.05599975586 z" fill="#dfbca4" /><path d="M 148.761998177,18.574005127 L 158.480998516,51.4750022888 L 164.959998369,81.9280018806 L 176.551998138,129.949001312 L 193.685998917,126.638000488 L 192.101999283,133.333000183 L 193.685998917,140.604000092 L 184.685998917,154.427001953 L 148.328998566,136.789001465 L 139.40199852,118.215000153 L 133.642997742,101.872001648 L 148.258998871,95.2470016479 L 144.603998184,87.3650019169 L 143.612998962,80.1430020332 L 149.623998642,82.36100173 L 140.985998154,60.1860027313 L 141.058998108,46.9400024414 L 145.088998795,32.1090011597 L 136.881998062,25.7730026245 L 130.04199791,15.983001709 L 141.993997574,16.6310043335 L 148.761998177,18.574005127 z" fill="#c3977a" /><path d="M 133.642992973,101.872002602 L 148.256993294,95.2470026016 L 139.400993109,118.215003014 L 134.000993252,108.782002926 L 133.642992973,101.872002602 z" fill="#8a6651" /><path d="M 193.685997009,126.636997223 L 169.351997375,131.316997528 L 184.685997248,154.426998138 L 191.381997108,147.948997498 L 193.685997009,140.603997678 L 193.685997009,126.636997223 z" fill="#8a6651" /><path d="M 170.431998253,73.4340019226 L 171.727998734,59.8270025253 L 184.901998281,56.6590023041 L 191.309998512,70.6980023384 L 164.959999084,81.9300022125 L 192.389998436,79.1210021973 L 197.64499855,83.8010025024 L 190.157998085,45.3570022583 L 167.407998085,57.4520025253 L 164.888998032,65.8740023375 L 170.431998253,73.4340019226 z" fill="#c3977a" /><path d="M 213.195996284,64.0739984512 L 213.483996391,52.266998291 L 225.434996605,48.3799982071 L 228.817996025,50.1789989471 L 228.242996216,65.5859985352 L 206.787996292,73.5769987106 L 207.580996513,77.970998764 L 228.242996216,69.4019985199 L 231.914996147,56.2989985943 L 227.522996902,40.9649982452 L 205.708996773,47.15599823 L 207.50899601,64.5789985657 L 213.195996284,64.0739984512 z" fill="#c3977a" /><path d="M 197.64599514,83.8009986877 L 203.908995032,88.4089987278 L 208.371994972,81.9289987087 L 197.64599514,83.8009986877 z" fill="#8a6651" /><path d="M 191.885997772,52.8439979553 L 202.324997902,50.5389976501 L 208.371997833,81.9289979935 L 197.644997835,83.8009986877 L 191.885997772,52.8439979553 z" fill="#e8c9b6" /><path d="M 191.885991573,52.8439998627 L 189.510991573,49.1719999313 L 190.156991482,45.3569998741 L 200.812991619,43.1979999542 L 203.908991337,46.5799999237 L 202.324991226,50.5389997959 L 191.885991573,52.8439998627 z" fill="#27788b" /><path d="M 190.157996178,45.3560009003 L 158.480995178,51.4760017395 L 159.704996109,62.9950015545 L 162.51299572,70.0510015488 L 164.958995819,81.9300022125 L 196.060997009,75.3790016174 L 191.885995865,52.8450012207 L 190.157996178,45.3560009003 z M 167.407996178,57.4510016441 L 167.407996178,57.4510016441 L 184.398995876,54.140001297 L 187.493995667,69.9780015945 L 170.430995941,73.4340019226 L 167.407996178,57.4510016441 z" fill="#308fa6" /><path d="M 200.812992096,43.1959991455 L 231.841992378,37.1489982605 L 237.602993011,67.4589986801 L 206.787992477,73.5769996643 L 202.324993134,50.5389990807 L 200.812992096,43.1959991455 z M 210.31699276,49.2429990768 L 210.31699276,49.2429990768 L 213.19599247,64.0749988556 L 227.956992149,61.4109988213 L 225.003992558,46.2909994125 L 210.31699276,49.2429990768 z" fill="#308fa6" /><path d="M 187.422992706,103.311001062 L 218.379992485,97.1920008659 L 218.882991791,99.6400010586 L 187.925992012,105.832001209 L 187.422992706,103.311001062 z" fill="#8a6651" /><path d="M 140.834995747,92.5630011559 L 134.506995939,80.4890007973 L 128.026996136,83.4410009384 L 140.834995747,92.5630011559 z" fill="#8a6651" /><path d="M 157.615997314,0 L 161.575998306,12.8150002956 L 167.478998184,21.1660003662 L 216.363998413,7.05700016022 L 157.615997314,0 z" fill="#dddddc" /><path d="M 130.042996109,15.9829998016 L 117.299996376,22.1030006409 L 114.202996254,47.3010005951 L 128.745996118,43.1260004044 L 145.088995934,32.11100021 L 130.042996109,15.9829998016 z" fill="#c4c4c4" /><path d="M 114.203994751,47.2999992371 L 108.444993973,90.2799987793 L 127.450994492,77.8249988556 L 142.426994324,63.8589997292 L 145.08899498,32.1100006104 L 114.203994751,47.2999992371 z" fill="#dddddc" /><path d="M 143.433996201,65.7309989929 L 152.340995789,83.8020000458 L 144.603996277,87.3659996986 L 138.681996346,74.5869998932 L 122.410995483,83.2259998322 L 133.282995939,101.296999931 L 139.400996208,118.215000153 L 109.020996094,89.7779996395 L 117.516996384,83.0099992752 L 143.433996201,65.7309989929 z" fill="#9da0a1" /><path d="M 157.6159935,0 L 130.042993546,15.9830002785 L 167.47899437,21.1660003662 L 157.6159935,0 z" fill="#c4c4c4" /><path d="M 158.480995178,51.4760036469 L 117.515995026,83.0090026855 L 122.05099678,94.0960025787 L 122.410995483,83.2250032425 L 161.359996796,64.7230033875 L 158.480995178,51.4760036469 z" fill="#27788b" /><path d="M 146.528995991,71.7050021887 L 161.360996246,64.7230024338 L 161.720995903,66.3080022335 L 162.512996197,70.0500022024 L 148.010995865,75.0190019608 L 146.528995991,71.7050021887 z" fill="#8a6651" /><path d="M 139.041996479,75.3060019612 L 146.529996634,71.706001997 L 148.011996746,75.0180019587 L 140.193996668,77.8980019093 L 139.041996479,75.3060019612 z" fill="#737373" /><path d="M 148.328992844,136.789993286 L 144.944992065,150.82799387 L 175.974992275,167.962993622 L 188.717992783,172.065994263 L 198.148992538,161.482993603 L 203.332992554,148.019993782 L 193.684991837,140.603993416 L 184.685992241,154.427993774 L 148.328992844,136.789993286 z" fill="#dddddc" /><path d="M 184.685998678,154.426994324 L 177.054998398,166.378993988 L 188.717998743,172.066993713 L 196.060998917,160.187994003 L 184.685998678,154.426994324 z" fill="#4f5252" /><path d="M 203.333997726,148.019992828 L 217.299995422,152.338993073 L 206.283996582,174.225993156 L 193.253997803,191.8659935 L 160.495996475,176.961993217 L 132.849998474,159.971993446 L 144.944997787,150.828992844 L 188.718997002,172.066993237 L 203.333997726,148.019992828 z" fill="#c4c4c4" /><path d="M 132.849994659,159.971000671 L 180.438993454,185.097000122 L 186.268993378,186.824999809 L 193.253993988,191.864999771 L 161.286994338,229.084999084 L 132.993993759,181.281999588 L 132.849994659,159.971000671 z" fill="#1c7678" /><path d="M 193.253992081,191.863996506 L 195.844992638,184.736996651 L 201.604991913,178.112997055 L 217.298992157,152.338996887 L 232.345993042,186.607996941 L 222.482992172,212.308996201 L 208.011992455,230.058998108 L 199.372992516,240.17199707 L 189.653991699,216.125997543 L 193.253992081,191.863996506 z" fill="#1c7678" /><path d="M 188.718995571,172.066003799 L 180.437995911,185.098003387 L 193.254995584,191.866003036 L 201.605995178,178.11400342 L 188.718995571,172.066003799 z" fill="#737373" /><path d="M 222.483997345,212.309999466 L 199.372997284,240.171998501 L 198.149997711,248.235998631 L 194.261997223,273.361997604 L 227.52399826,272.208997726 L 222.483997345,212.309999466 z" fill="#369395" /><path d="M 130.762998581,180.92199707 L 193.253997803,191.864994049 L 206.5,194.168994904 L 199.38999939,240.177995801 L 194.261997223,273.361995697 L 189.797998428,302.231994629 L 113.771999359,290.640995026 L 130.762998581,180.92199707 z" fill="#8f8f8f" /><path d="M 194.261993408,273.361997604 L 117.011993408,270.26599741 L 119.099994659,256.370997429 L 168.9909935,261.04999733 L 179.718994141,266.161997318 L 186.630992889,267.888997316 L 194.261993408,273.361997604 z" fill="#6e7073" /><path d="M 132.85099411,159.972007751 L 133.642993927,228.655006409 L 102.252994537,253.419006348 L 108.011994362,174.370006561 L 132.85099411,159.972007751 z" fill="#71cacc" /><path d="M 133.642995358,227.1060009 L 167.587995529,239.20100069 L 170.971996307,240.999000549 L 176.082996368,241.792000771 L 172.987995148,264.61400032 L 167.731994629,262.527000427 L 162.620994568,262.88599968 L 102.252994537,253.418000698 L 133.642995358,227.1060009 z" fill="#369395" /><path d="M 217.298989296,152.338996887 L 246.960989952,197.047996521 L 236.161989689,206.694997787 L 222.482989311,212.310997009 L 217.298989296,152.338996887 z" fill="#369395" /><path d="M 222.482990265,212.309994698 L 246.961989403,197.046995163 L 266.974989891,184.016994476 L 270.718990326,183.872995377 L 273.743989944,179.624994278 L 282.526988983,187.183994293 L 280.582988739,197.622994423 L 280.29499054,204.535994768 L 243.073989868,233.476995468 L 222.482990265,212.309994698 z" fill="#71cacc" /><path d="M 182.885991573,61.4119992981 C 182.885991573,63.2109992504 181.373991609,64.5789992809 179.717991576,64.5789992809 C 177.918991566,64.5789992809 176.477991581,63.2109992504 176.477991581,61.4119992981 C 176.477991581,59.6109993458 177.918991566,58.2429993153 179.717991576,58.2429993153 C 181.373991609,58.2429993153 182.885991573,59.6109993458 182.885991573,61.4119992981 z" fill="#2b2b2b" /><path d="M 222.374993086,54.1389992386 C 222.374993086,55.9389992952 221.006993055,57.3069992065 219.205993103,57.3069992065 C 217.549993157,57.3069992065 216.03899312,55.9389992952 216.03899312,54.1389992386 C 216.03899312,52.4099992514 217.549993157,51.0429992676 219.205993103,51.0429992676 C 221.006993055,51.0429992676 222.374993086,52.4099992514 222.374993086,54.1389992386 z" fill="#2b2b2b" /><path d="M 273.743996382,179.625993729 L 282.308996201,188.552993536 L 287.204996109,199.062993526 L 280.294996262,204.535993576 L 266.974996567,184.017993927 L 273.743996382,179.625993729 z" fill="#dddddc" /><path d="M 293.684999466,141.971995354 L 300.019999266,127.140995026 L 302.900999069,143.052995205 L 297.500999272,144.348995209 L 293.684999466,141.971995354 z" fill="#8f8f8f" /><path d="M 279.718987942,188.120993257 L 287.20598793,199.06299305 L 293.324987888,195.17699337 L 291.380988121,175.016993523 L 279.718987942,188.120993257 z" fill="#8a6651" /><path d="M 293.685001314,141.971992493 L 302.901000977,143.051994324 L 295.269001365,210.0779953 L 285.983001709,208.997993469 L 287.125001431,199.054994583 L 292.89200139,190.677993774 L 290.186001301,172.416993856 L 293.685001314,141.971992493 z" fill="#4f5252" /><path d="M 289.309002399,171.071006775 L 305.981001854,176.026006699 L 296.809002325,200.237007141 L 287.205002785,199.063007355 L 289.184002399,178.270007133 L 289.309002399,171.071006775 z" fill="#c3977a" /><path d="M 273.743999481,179.625004515 L 290.663999081,168.250004768 L 295.591999054,185.32800436 L 288.415999174,186.327004433 L 286.315999269,180.964004517 L 281.46799922,190.679004669 L 273.743999481,179.625004515 z" fill="#dfbca4" /><path d="M 167.587997317,239.199997902 L 176.08399725,241.790997505 L 175.867997169,252.374997675 L 172.987997293,264.613997459 L 162.619997501,262.885997772 L 167.587997317,239.199997902 z" fill="#dddddc" /><path d="M 176.082995415,241.791994393 L 187.871995419,236.570994377 L 199.26699543,240.872994393 L 198.524995804,245.754994392 L 189.654995441,245.754994392 L 176.082995415,241.791994393 z" fill="#c3977a" /><path d="M 176.082994461,241.791996002 L 198.524993896,245.7549963 L 200.190994263,254.919995785 L 202.756994247,260.906995773 L 198.871994019,266.377995491 L 194.261993885,273.361995697 L 172.98699379,264.613996029 L 176.082994461,241.791996002 z" fill="#dfbca4" /><path d="M 198.525993347,245.754014015 L 194.260993481,273.361014366 L 200.921993405,268.437013626 L 208.012993336,251.548013687 L 198.525993347,245.754014015 z" fill="#c3977a" /></svg>