<?xml version='1.0' encoding='utf-8'?>
<svg xmlns="http://www.w3.org/2000/svg" width="400.0" height="400.0" viewBox="0 0 400.0 400.0"><path d="M 104.679999352,120.652994156 L 115.198999405,115.550994873 L 129.07199955,144.156993866 L 118.826999426,149.330993652 L 104.679999352,120.652994156 z" fill="#4f5252" /><path d="M 134.68000412,111.518001556 L 89.4500045776,133.454001427 L 91.328004837,158.310001373 L 144.117004395,133.69600141 L 134.68000412,111.518001556 z" fill="#858585" /><path d="M 91.329000473,158.310003281 L 104.680999756,160.264003754 L 153.142999649,138.813003063 L 147.225999832,132.223003387 L 141.795999527,132.37800312 L 91.329000473,158.310003281 z" fill="#6e7073" /><path d="M 149.845998764,186.988992691 L 129.071998596,144.156993866 L 118.825998306,149.329992294 L 139.325998306,192.090991974 L 149.845998764,186.988992691 z" fill="#4f5252" /><path d="M 134.680003166,111.516999245 L 140.051003218,111.328000069 L 147.730003119,111.328000069 L 153.142003059,138.811999321 L 141.795003176,132.37899971 L 134.680003166,111.516999245 z" fill="#6e7073" /><path d="M 90.9199981689,390.887991667 L 181.116996765,376.558991432 L 317.897994995,385.005991697 L 200.107996464,400.001991272 L 90.9199981689,390.887991667 z" opacity="0.1" /><path d="M 250.849996567,276.292995453 L 240.323997498,303.388996124 L 230.01299715,316.002996206 L 228.086997032,334.889996529 L 221.307996929,352.341995239 L 208.901996613,358.320995331 L 193.54999733,362.498996735 L 199.93299675,309.752996445 L 250.849996567,276.292995453 z" fill="#856300" /><path d="M 196.430999756,350.500998795 L 225.979999542,340.310998917 L 221.307999611,352.341998756 L 207.863999367,362.498998642 L 193.549999237,362.498998642 L 193.549999237,357.42499876 L 196.430999756,350.500998795 z" fill="#9e7700" /><path d="M 221.308002472,352.340996742 L 244.34000206,378.670996666 L 216.863002658,381.838995934 L 186.428003311,378.670996666 L 186.428003311,365.103996396 L 221.308002472,352.340996742 z" fill="#755700" /><path d="M 186.38299942,385.005989313 L 244.340999603,385.005989313 L 244.340999603,378.670989275 L 186.38299942,378.670989275 L 186.38299942,385.005989313 z" fill="#bb8f2c" /><path d="M 232.794994354,310.715003967 L 219.701994419,309.170004845 L 212.780994415,336.065004349 L 228.086994171,334.890004158 L 232.676994324,323.072004408 L 232.794994354,310.715003967 z" fill="#9e7700" /><path d="M 219.702000618,309.169003487 L 232.607000589,323.044003487 L 240.324000359,303.388003349 L 219.702000618,309.169003487 z" fill="#b58a00" /><path d="M 205.113002777,314.35399437 L 193.550003052,362.498994827 L 185.313002586,365.435995102 L 155.028003693,371.12399292 L 149.015003204,296.588993073 L 205.113002777,314.35399437 z" fill="#9e7700" /><path d="M 250.849998474,276.29300499 L 205.112998486,314.355005264 L 149.01599884,296.590005159 L 180.295999527,288.528005123 L 250.849998474,276.29300499 z" fill="#be8f00" /><path d="M 193.548997879,362.498999596 L 200.107997894,385.001000404 L 154.399997711,385.001000404 L 155.027997971,371.124000072 L 193.548997879,362.498999596 z" fill="#856300" /><path d="M 154.399997711,391.33599925 L 200.107997894,391.33599925 L 200.107997894,385.000999212 L 154.399997711,385.000999212 L 154.399997711,391.33599925 z" fill="#ccac13" /><path d="M 196.431001663,350.501011848 L 153.841001511,356.403011799 L 155.029001236,371.123011589 L 193.550001144,362.498011708 L 196.431001663,350.501011848 z" fill="#be8f00" /><path d="M 161.373001099,156.090003967 L 209.014000893,167.252006531 L 237.60200119,246.319004059 L 244.508998871,260.600006104 L 166.381999969,264.939006805 L 148.018001556,269.946006775 L 147.017002106,255.256004333 L 161.373001099,156.090003967 z" fill="#e4c728" /><path d="M 141.34000206,168.776992798 L 161.374001265,156.089992523 L 174.544000626,213.707992554 L 163.044001579,214.519992828 L 148.703001022,187.944992781 L 141.34000206,168.776992798 z" fill="#be8f00" /><path d="M 147.01599884,255.255999565 L 203.082998753,216.804000854 L 233.14099884,228.885000229 L 245.293998718,261.420999527 L 166.738998413,266.902999878 L 148.016998291,269.945999146 L 147.01599884,255.255999565 z" fill="#be8f00" /><path d="M 199.123004675,243.031008959 L 217.466005325,254.254009247 L 243.356002808,256.23100853 L 239.6340065,246.266008854 L 206.396004677,225.430008888 L 176.330003738,238.65900898 L 147.01600647,255.256009102 L 199.123004675,243.031008959 z" fill="#2b2b2b" opacity="0.1" /><path d="M 245.295000076,261.420004845 L 221.921000004,262.513004303 L 215.383999944,268.752004623 L 207.862999916,263.170004845 L 177.400001526,264.594004631 L 177.458999634,276.979004383 L 179.403999329,290.314003944 L 210.371999979,284.235004425 L 215.383999944,279.002004385 L 224.190999985,281.524004459 L 250.849998474,276.292004406 L 245.295000076,261.420004845 z" fill="#856300" /><path d="M 207.86400795,263.170999527 L 210.370007992,284.236000061 L 224.190008163,281.524999619 L 221.922008038,262.513999939 L 207.86400795,263.170999527 z" fill="#ccac13" /><path d="M 244.437004089,61.5359954834 L 247.488002777,99.0249962807 L 244.845005035,134.913995743 L 215.526002884,143.666996002 L 201.512002945,158.752994537 L 179.471003056,159.344997406 L 161.373003006,156.090995789 L 149.581001282,128.476995468 L 140.052001953,111.326996326 L 130.472003937,91.2179965973 L 126.306003571,59.1839981079 L 156.725002289,70.1239967346 L 199.464003563,66.1829948425 L 209.334003448,51.8069953918 L 221.275001526,62.5679969788 L 244.437004089,61.5359954834 z" fill="#dfbca4" /><path d="M 166.37800169,70.3879985809 L 171.111001968,107.771999359 L 163.043001413,113.670000076 L 154.400001526,109.684999466 L 150.689001083,94.6559994221 L 158.368001461,93.98799932 L 156.725001335,71.373998642 L 166.37800169,70.3879985809 z" fill="#c3977a" /><path d="M 204.752002716,103.917999268 L 191.17000246,83.5699998811 L 166.378002167,70.3879995346 L 202.58200264,63.3880004883 L 204.752002716,103.917999268 z" fill="#c3977a" /><path d="M 223.722007751,96.3979988098 L 229.703007579,76.6679987907 L 241.573007584,61.8309993744 L 216.455007553,60.3839988708 L 223.722007751,96.3979988098 z" fill="#c3977a" /><path d="M 247.488002777,99.0250015259 L 140.051002502,111.326999664 L 161.373001099,156.090000153 L 176.198003769,159.534999847 L 189.015002728,161.673999786 L 209.013003349,167.251998901 L 212.925003052,152.714000702 L 217.133003235,144.73800087 L 250.855003357,140.397000313 L 247.488002777,99.0250015259 z" fill="#c3977a" /><path d="M 171.11200285,107.772006989 L 176.482003212,149.487005711 L 186.898002625,152.796006203 L 190.689002991,163.753005981 L 187.417003632,175.791004181 L 161.37200284,156.091006279 L 146.217002869,124.275005341 L 145.493001938,118.111005783 L 140.051002502,111.328006744 L 154.40000248,109.685005188 L 171.11200285,107.772006989 z" fill="#c3977a" /><path d="M 171.11200285,107.770999908 L 176.482003212,149.485998631 L 186.898002625,152.794999123 L 190.689002991,163.751998901 L 187.417003632,175.789997101 L 161.373002768,156.089999199 L 146.218002319,124.27399826 L 145.494003296,118.109998703 L 140.052001953,111.326999664 L 154.401002884,109.683998108 L 171.11200285,107.770999908 z" fill="#2b2b2b" opacity="0.1" /><path d="M 217.133005142,144.738007545 L 171.179006577,150.141007423 L 187.416006088,175.790007591 L 209.01300621,167.252007484 L 217.133005142,144.738007545 z" fill="#8a6651" /><path d="M 154.400998116,109.683996201 L 146.216997981,124.273996353 L 140.050997734,111.326996326 L 154.400998116,109.683996201 z" fill="#8a6651" /><path d="M 181.411001205,118.773996353 L 224.190999985,124.371996164 L 223.753000259,127.711996078 L 180.97300148,122.113996267 L 181.411001205,118.773996353 z" fill="#8a6651" /><path d="M 204.751995087,103.918998003 L 215.587995172,109.707998276 L 224.237995148,101.687997818 L 214.433995117,101.759998083 L 204.751995087,103.918998003 z" fill="#8a6651" /><path d="M 166.379007339,70.3879970312 L 201.511007309,76.4469971657 L 200.535007477,66.8969969749 L 186.928007364,67.0749969482 L 166.379007339,70.3879970312 z" fill="#464646" /><path d="M 221.678994179,74.9020013809 L 220.559994698,63.9960017204 L 229.758994222,61.6200017929 L 241.571993828,61.8310017586 L 221.678994179,74.9020013809 z" fill="#464646" /><path d="M 156.725000381,71.3729968071 L 158.368999481,93.9859962463 L 150.68900013,94.6539974213 L 147.815000534,83.7999968529 L 130.471000195,91.2149972916 L 115.825000763,60.4679965973 L 139.052000165,61.3599967957 L 156.725000381,71.3729968071 z" fill="#464646" /><path d="M 136.664998055,94.3209993839 L 143.343998075,91.6499991417 L 147.730998039,104.435999393 L 136.664998055,94.3209993839 z" fill="#8a6651" /><path d="M 125.608999252,34.3239998817 L 107.322999001,17.3219995499 L 84.5469989777,38.0120000839 L 103.863999128,37.8680000305 L 125.608999252,34.3239998817 z" fill="#9e7700" /><path d="M 84.5480008125,38.0120019913 L 51.0260009766,69.1280021667 L 100.500000954,47.1120018959 L 125.60900116,34.3240013123 L 84.5480008125,38.0120019913 z" fill="#be8f00" /><path d="M 51.0260009766,69.1280021667 L 115.826000214,60.4680013657 L 125.61000061,34.3240013123 L 51.0260009766,69.1280021667 z" fill="#755700" /><path d="M 153.357004166,30.795999527 L 138.568003416,31.2699995041 L 125.609003067,34.3240003586 L 115.82500267,60.468000412 L 140.027003288,43.364000082 L 153.357004166,30.795999527 z" fill="#9e7700" /><path d="M 196.663003922,0 L 163.179004669,13.8650007248 L 125.609004974,34.3240013123 L 141.025005341,32.3640003204 L 153.357004166,30.79500103 L 192.077004433,29.2540006638 L 238.625003815,22.4890007973 L 196.663003922,0 z" fill="#856300" /><path d="M 136.997001648,4.81100082397 L 125.60900116,34.3240013123 L 196.663002014,0 L 136.997001648,4.81100082397 z" fill="#be8f00" /><path d="M 153.356998444,30.795999527 L 258.733997345,20.5299987793 L 262.584999084,59.6659994125 L 220.561998367,63.9960002899 L 209.334998369,51.8069996834 L 200.535998344,66.8979988098 L 156.724998474,71.3740005493 L 153.142997742,48.1249997616 L 153.356998444,30.795999527 z" fill="#e4c728" /><path d="M 165.385997772,39.1350002289 L 204.039997101,35.2860002518 L 192.651997566,56.7780008316 L 167.14899826,59.1840009689 L 165.385997772,39.1350002289 z" fill="#464646" /><path d="M 250.402004242,30.7419986725 L 211.730005264,34.4049987793 L 227.042005062,53.3039989471 L 252.530004501,50.7559986115 L 250.402004242,30.7419986725 z" fill="#464646" /><path d="M 156.725002289,71.373998642 L 115.825000763,60.4679994583 L 153.3560009,30.795999527 L 156.725002289,71.373998642 z" fill="#ccac13" /><path d="M 209.33400178,51.8059997559 L 220.560001373,63.9949998856 L 224.239002228,101.687000275 L 204.752001762,103.917999268 L 200.672001839,66.8819999695 L 209.33400178,51.8059997559 z" fill="#e8c9b6" /><path d="M 234.482002735,82.0400009155 C 234.482002735,84.6790008545 232.343003035,86.819000721 229.70400293,86.819000721 C 227.065002918,86.819000721 224.924003124,84.6790008545 224.924003124,82.0400009155 C 224.924003124,79.4000008106 227.065002918,77.2610011101 229.70400293,77.2610011101 C 232.343003035,77.2610011101 234.482002735,79.4000008106 234.482002735,82.0400009155 z" fill="#2b2b2b" /><path d="M 178.779000282,82.2080001831 L 194.882000923,83.9790001512 L 194.49600029,87.486000061 L 178.394000053,85.7160001397 L 178.779000282,82.2080001831 z" fill="#2b2b2b" /><path d="M 129.98899889,219.194997787 L 112.626998901,183.468997002 L 141.339999199,168.776996613 L 163.042999268,214.520998001 L 151.438999176,224.704998016 L 129.98899889,219.194997787 z" fill="#ccac13" /><path d="M 175.397001266,241.232000351 L 147.016001225,255.255001068 L 129.987001419,219.196000099 L 163.043001175,214.520999908 L 174.396001816,226.853000641 L 175.397001266,241.232000351 z" fill="#e4c728" /><path d="M 199.771002769,208.178001404 L 163.042003632,214.52200222 L 175.396002769,241.233001709 L 206.396003723,225.431001842 L 207.863002777,216.804001808 L 199.771002769,208.178001404 z" fill="#dfbca4" /><path d="M 177.399999857,264.59400177 L 166.381999969,264.93800354 L 169.122999668,309.116002679 L 174.395999908,357.424003601 L 185.923999786,351.956001282 L 177.399999857,264.59400177 z" fill="#ccac13" /><path d="M 135.552002907,292.261003494 L 145.680002689,304.632003784 L 166.382002831,264.93800354 L 137.134002686,273.171003342 L 121.57400322,277.704003811 L 135.552002907,292.261003494 z" fill="#ccac13" /><path d="M 131.13500005,240.163007736 L 137.665999889,243.375007629 L 133.900000095,256.231007576 L 126.306000233,261.421007156 L 126.306000233,250.670007445 L 131.13500005,240.163007736 z" fill="#4f5252" /><path d="M 99.8810005188,245.009993553 L 107.68900013,245.333992958 L 118.826999664,261.419993401 L 107.853000045,262.512993813 L 99.8810005188,245.009993553 z" fill="#4f5252" /><path d="M 133.90100193,256.231006622 L 158.368001938,295.323005676 L 156.492001534,302.107006073 L 136.666001797,279.168006348 L 127.375001907,258.310007095 L 133.90100193,256.231006622 z" fill="#858585" /><path d="M 109.888000488,260.248013496 L 116.440999985,255.945013046 L 122.995000362,251.641014099 L 112.987000465,236.401012421 L 131.134000301,240.162014008 L 127.375000358,258.311014175 L 156.491001129,302.105014801 L 149.937999725,306.410015106 L 143.384000778,310.714012146 L 114.267000198,266.917014122 L 96.1180000305,263.157013893 L 99.8789997101,245.01001358 L 109.888000488,260.248013496 z" fill="#6e7073" /><path d="M 174.39499855,357.423999786 L 127.315998077,355.086997986 L 121.306997299,277.625 L 145.679997921,302.666999817 L 166.381998062,264.937999725 L 174.39499855,357.423999786 z" fill="#e4c728" /><path d="M 240.38600719,192.181005478 L 248.901007652,196.30100441 L 244.034007311,208.186004877 L 233.142007351,228.885004044 L 232.795006752,204.133004665 L 234.097007275,194.660004616 L 240.38600719,192.181005478 z" fill="#ccac13" /><path d="M 233.14200592,228.883993149 L 253.367005378,187.068992615 L 269.807004929,184.971992493 L 272.894004822,199.825992584 L 263.872005463,235.219993591 L 233.14200592,228.883993149 z" fill="#c3977a" /><path d="M 199.769996643,208.176996231 L 217.465995789,254.252996445 L 239.633995056,246.265996933 L 221.920995951,199.452997208 L 199.769996643,208.176996231 z" fill="#4f5252" /><path d="M 206.396993637,225.430006027 L 233.141994476,228.8840065 L 227.098993301,208.754006386 L 221.919993877,199.454006195 L 212.620993614,200.002006531 L 199.769992828,208.177006245 L 206.396993637,225.430006027 z" fill="#c3977a" /><path d="M 233.141996264,228.885004044 L 240.81599617,213.019004822 L 240.385995865,192.182004929 L 231.066996217,193.253004074 L 221.920996666,199.454004288 L 233.141996264,228.885004044 z" fill="#8a6651" /><path d="M 187.416999817,175.789001822 L 273.560001373,141.732002258 L 280.611000061,157.275001526 L 286.247001648,174.120001853 L 199.770999908,208.177001953 L 187.416999817,175.789001822 z" fill="#6e7073" /><path d="M 273.559004784,141.733001709 L 287.583004951,149.07900238 L 290.932004929,155.039001942 L 292.257004738,160.764001846 L 286.247004747,174.121002197 L 273.559004784,141.733001709 z" fill="#4f5252" /><path d="M 287.584004402,149.078998566 L 299.887004375,144.156998634 L 300.094004631,151.08099854 L 297.71600461,158.567998409 L 292.258004546,160.764998436 L 287.584004402,149.078998566 z" fill="#464646" /><path d="M 299.88699913,144.156993866 L 310.044999123,140.093993187 L 310.537998676,146.299993753 L 307.877998829,154.476993561 L 297.715999126,158.567994118 L 299.88699913,144.156993866 z" fill="#6e7073" /><path d="M 310.045001268,140.092997551 L 320.062001228,136.086997986 L 319.54500103,142.890997648 L 317.898001194,150.444997787 L 307.878001213,154.476997375 L 310.045001268,140.092997551 z" fill="#464646" /><path d="M 320.061997652,136.086999416 L 329.722997665,132.223999977 L 329.580997467,138.735999584 L 327.56299758,146.553999424 L 317.897997379,150.44399929 L 320.061997652,136.086999416 z" fill="#6e7073" /><path d="M 329.722991228,132.22400713 L 339.329991341,128.380007744 L 339.048991203,134.80800724 L 337.174991131,142.685007095 L 327.701991081,146.511007309 L 329.722991228,132.22400713 z" fill="#464646" /><path d="M 339.330000401,128.380007267 L 348.351000309,124.705007553 L 346.013000488,139.063007355 L 337.175000668,142.685007095 L 339.330000401,128.380007267 z" fill="#6e7073" /><path d="M 221.514994621,176.695997238 L 200.635994911,184.649997234 L 199.448994637,181.535997391 L 220.326994896,173.581997395 L 221.514994621,176.695997238 z" fill="#4f5252" /><path d="M 223.65299511,182.307004929 L 202.772994995,190.261004925 L 201.586995125,187.147005081 L 222.464995384,179.193005085 L 223.65299511,182.307004929 z" fill="#4f5252" /><path d="M 225.790995598,187.91900444 L 204.910995483,195.873004436 L 203.724995613,192.759004593 L 224.602995872,184.805004597 L 225.790995598,187.91900444 z" fill="#4f5252" /><path d="M 272.8939991,199.826998711 L 286.247999191,189.475999117 L 286.247999191,174.120999336 L 274.894999027,185.305999041 L 272.8939991,199.826998711 z" fill="#c3977a" /><path d="M 253.366006851,187.068999022 L 269.163006842,179.672998905 L 286.24700737,174.120999336 L 272.893006802,199.826998711 L 253.366006851,187.068999022 z" fill="#8a6651" /><path d="M 253.366006851,187.068994522 L 258.192007065,166.499994755 L 279.18300724,156.089994431 L 286.24700737,174.120994806 L 253.366006851,187.068994522 z" fill="#dfbca4" /></svg>